<svg width="404" height="209" viewBox="0 0 404 209" fill="none" xmlns="http://www.w3.org/2000/svg">
<g filter="url(#filter0_d_661_4779)">
<rect x="23" y="159.125" width="137" height="358" rx="12" transform="rotate(-90 23 159.125)" fill="white" shape-rendering="crispEdges"/>
<rect x="23" y="159.125" width="137" height="358" rx="12" transform="rotate(-90 23 159.125)" stroke="#07378C" stroke-opacity="0.04" stroke-width="4" shape-rendering="crispEdges"/>
<path d="M38.41 62.67C39.55 62.67 40.535 62.885 41.365 63.315C42.205 63.735 42.845 64.34 43.285 65.13C43.735 65.92 43.96 66.85 43.96 67.92C43.96 68.99 43.735 69.92 43.285 70.71C42.845 71.49 42.205 72.09 41.365 72.51C40.535 72.92 39.55 73.125 38.41 73.125H35.155V62.67H38.41ZM38.41 72C39.76 72 40.79 71.645 41.5 70.935C42.21 70.215 42.565 69.21 42.565 67.92C42.565 66.62 42.205 65.605 41.485 64.875C40.775 64.145 39.75 63.78 38.41 63.78H36.52V72H38.41ZM47.0355 66.24C47.2755 65.77 47.6155 65.405 48.0555 65.145C48.5055 64.885 49.0505 64.755 49.6905 64.755V66.165H49.3305C47.8005 66.165 47.0355 66.995 47.0355 68.655V73.125H45.6705V64.905H47.0355V66.24ZM50.6662 68.985C50.6662 68.145 50.8362 67.41 51.1762 66.78C51.5162 66.14 51.9812 65.645 52.5712 65.295C53.1712 64.945 53.8362 64.77 54.5662 64.77C55.2862 64.77 55.9112 64.925 56.4412 65.235C56.9712 65.545 57.3662 65.935 57.6262 66.405V64.905H59.0062V73.125H57.6262V71.595C57.3562 72.075 56.9512 72.475 56.4112 72.795C55.8812 73.105 55.2612 73.26 54.5512 73.26C53.8212 73.26 53.1612 73.08 52.5712 72.72C51.9812 72.36 51.5162 71.855 51.1762 71.205C50.8362 70.555 50.6662 69.815 50.6662 68.985ZM57.6262 69C57.6262 68.38 57.5012 67.84 57.2512 67.38C57.0012 66.92 56.6612 66.57 56.2312 66.33C55.8112 66.08 55.3462 65.955 54.8362 65.955C54.3262 65.955 53.8612 66.075 53.4412 66.315C53.0212 66.555 52.6862 66.905 52.4362 67.365C52.1862 67.825 52.0612 68.365 52.0612 68.985C52.0612 69.615 52.1862 70.165 52.4362 70.635C52.6862 71.095 53.0212 71.45 53.4412 71.7C53.8612 71.94 54.3262 72.06 54.8362 72.06C55.3462 72.06 55.8112 71.94 56.2312 71.7C56.6612 71.45 57.0012 71.095 57.2512 70.635C57.5012 70.165 57.6262 69.62 57.6262 69ZM64.5679 66.03H62.8429V73.125H61.4779V66.03H60.4129V64.905H61.4779V64.32C61.4779 63.4 61.7129 62.73 62.1829 62.31C62.6629 61.88 63.4279 61.665 64.4779 61.665V62.805C63.8779 62.805 63.4529 62.925 63.2029 63.165C62.9629 63.395 62.8429 63.78 62.8429 64.32V64.905H64.5679V66.03ZM67.7344 66.03V70.875C67.7344 71.275 67.8194 71.56 67.9894 71.73C68.1594 71.89 68.4544 71.97 68.8744 71.97H69.8794V73.125H68.6494C67.8894 73.125 67.3194 72.95 66.9394 72.6C66.5594 72.25 66.3694 71.675 66.3694 70.875V66.03H65.3044V64.905H66.3694V62.835H67.7344V64.905H69.8794V66.03H67.7344ZM85.2373 64.755C85.8773 64.755 86.4473 64.89 86.9473 65.16C87.4473 65.42 87.8423 65.815 88.1323 66.345C88.4223 66.875 88.5673 67.52 88.5673 68.28V73.125H87.2173V68.475C87.2173 67.655 87.0123 67.03 86.6023 66.6C86.2023 66.16 85.6573 65.94 84.9673 65.94C84.2573 65.94 83.6923 66.17 83.2723 66.63C82.8523 67.08 82.6423 67.735 82.6423 68.595V73.125H81.2923V68.475C81.2923 67.655 81.0873 67.03 80.6773 66.6C80.2773 66.16 79.7323 65.94 79.0423 65.94C78.3323 65.94 77.7673 66.17 77.3473 66.63C76.9273 67.08 76.7173 67.735 76.7173 68.595V73.125H75.3523V64.905H76.7173V66.09C76.9873 65.66 77.3473 65.33 77.7973 65.1C78.2573 64.87 78.7623 64.755 79.3123 64.755C80.0023 64.755 80.6123 64.91 81.1423 65.22C81.6723 65.53 82.0673 65.985 82.3273 66.585C82.5573 66.005 82.9373 65.555 83.4673 65.235C83.9973 64.915 84.5873 64.755 85.2373 64.755ZM98.2164 68.7C98.2164 68.96 98.2014 69.235 98.1714 69.525H91.6014C91.6514 70.335 91.9264 70.97 92.4264 71.43C92.9364 71.88 93.5514 72.105 94.2714 72.105C94.8614 72.105 95.3514 71.97 95.7414 71.7C96.1414 71.42 96.4214 71.05 96.5814 70.59H98.0514C97.8314 71.38 97.3914 72.025 96.7314 72.525C96.0714 73.015 95.2514 73.26 94.2714 73.26C93.4914 73.26 92.7914 73.085 92.1714 72.735C91.5614 72.385 91.0814 71.89 90.7314 71.25C90.3814 70.6 90.2064 69.85 90.2064 69C90.2064 68.15 90.3764 67.405 90.7164 66.765C91.0564 66.125 91.5314 65.635 92.1414 65.295C92.7614 64.945 93.4714 64.77 94.2714 64.77C95.0514 64.77 95.7414 64.94 96.3414 65.28C96.9414 65.62 97.4014 66.09 97.7214 66.69C98.0514 67.28 98.2164 67.95 98.2164 68.7ZM96.8064 68.415C96.8064 67.895 96.6914 67.45 96.4614 67.08C96.2314 66.7 95.9164 66.415 95.5164 66.225C95.1264 66.025 94.6914 65.925 94.2114 65.925C93.5214 65.925 92.9314 66.145 92.4414 66.585C91.9614 67.025 91.6864 67.635 91.6164 68.415H96.8064ZM103.327 68.985C103.327 68.145 103.497 67.41 103.837 66.78C104.177 66.14 104.642 65.645 105.232 65.295C105.832 64.945 106.497 64.77 107.227 64.77C107.947 64.77 108.572 64.925 109.102 65.235C109.632 65.545 110.027 65.935 110.287 66.405V64.905H111.667V73.125H110.287V71.595C110.017 72.075 109.612 72.475 109.072 72.795C108.542 73.105 107.922 73.26 107.212 73.26C106.482 73.26 105.822 73.08 105.232 72.72C104.642 72.36 104.177 71.855 103.837 71.205C103.497 70.555 103.327 69.815 103.327 68.985ZM110.287 69C110.287 68.38 110.162 67.84 109.912 67.38C109.662 66.92 109.322 66.57 108.892 66.33C108.472 66.08 108.007 65.955 107.497 65.955C106.987 65.955 106.522 66.075 106.102 66.315C105.682 66.555 105.347 66.905 105.097 67.365C104.847 67.825 104.722 68.365 104.722 68.985C104.722 69.615 104.847 70.165 105.097 70.635C105.347 71.095 105.682 71.45 106.102 71.7C106.522 71.94 106.987 72.06 107.497 72.06C108.007 72.06 108.472 71.94 108.892 71.7C109.322 71.45 109.662 71.095 109.912 70.635C110.162 70.165 110.287 69.62 110.287 69ZM117.283 67.89C117.283 66.87 117.513 65.955 117.973 65.145C118.433 64.325 119.058 63.685 119.848 63.225C120.648 62.765 121.533 62.535 122.503 62.535C123.643 62.535 124.638 62.81 125.488 63.36C126.338 63.91 126.958 64.69 127.348 65.7H125.713C125.423 65.07 125.003 64.585 124.453 64.245C123.913 63.905 123.263 63.735 122.503 63.735C121.773 63.735 121.118 63.905 120.538 64.245C119.958 64.585 119.503 65.07 119.173 65.7C118.843 66.32 118.678 67.05 118.678 67.89C118.678 68.72 118.843 69.45 119.173 70.08C119.503 70.7 119.958 71.18 120.538 71.52C121.118 71.86 121.773 72.03 122.503 72.03C123.263 72.03 123.913 71.865 124.453 71.535C125.003 71.195 125.423 70.71 125.713 70.08H127.348C126.958 71.08 126.338 71.855 125.488 72.405C124.638 72.945 123.643 73.215 122.503 73.215C121.533 73.215 120.648 72.99 119.848 72.54C119.058 72.08 118.433 71.445 117.973 70.635C117.513 69.825 117.283 68.91 117.283 67.89ZM130.655 62.025V73.125H129.29V62.025H130.655ZM133.596 63.57C133.336 63.57 133.116 63.48 132.936 63.3C132.756 63.12 132.666 62.9 132.666 62.64C132.666 62.38 132.756 62.16 132.936 61.98C133.116 61.8 133.336 61.71 133.596 61.71C133.846 61.71 134.056 61.8 134.226 61.98C134.406 62.16 134.496 62.38 134.496 62.64C134.496 62.9 134.406 63.12 134.226 63.3C134.056 63.48 133.846 63.57 133.596 63.57ZM134.256 64.905V73.125H132.891V64.905H134.256ZM143.993 68.7C143.993 68.96 143.978 69.235 143.948 69.525H137.378C137.428 70.335 137.703 70.97 138.203 71.43C138.713 71.88 139.328 72.105 140.048 72.105C140.638 72.105 141.128 71.97 141.518 71.7C141.918 71.42 142.198 71.05 142.358 70.59H143.828C143.608 71.38 143.168 72.025 142.508 72.525C141.848 73.015 141.028 73.26 140.048 73.26C139.268 73.26 138.568 73.085 137.948 72.735C137.338 72.385 136.858 71.89 136.508 71.25C136.158 70.6 135.983 69.85 135.983 69C135.983 68.15 136.153 67.405 136.493 66.765C136.833 66.125 137.308 65.635 137.918 65.295C138.538 64.945 139.248 64.77 140.048 64.77C140.828 64.77 141.518 64.94 142.118 65.28C142.718 65.62 143.178 66.09 143.498 66.69C143.828 67.28 143.993 67.95 143.993 68.7ZM142.583 68.415C142.583 67.895 142.468 67.45 142.238 67.08C142.008 66.7 141.693 66.415 141.293 66.225C140.903 66.025 140.468 65.925 139.988 65.925C139.298 65.925 138.708 66.145 138.218 66.585C137.738 67.025 137.463 67.635 137.393 68.415H142.583ZM149.709 64.755C150.709 64.755 151.519 65.06 152.139 65.67C152.759 66.27 153.069 67.14 153.069 68.28V73.125H151.719V68.475C151.719 67.655 151.514 67.03 151.104 66.6C150.694 66.16 150.134 65.94 149.424 65.94C148.704 65.94 148.129 66.165 147.699 66.615C147.279 67.065 147.069 67.72 147.069 68.58V73.125H145.704V64.905H147.069V66.075C147.339 65.655 147.704 65.33 148.164 65.1C148.634 64.87 149.149 64.755 149.709 64.755ZM156.874 66.03V70.875C156.874 71.275 156.959 71.56 157.129 71.73C157.299 71.89 157.594 71.97 158.014 71.97H159.019V73.125H157.789C157.029 73.125 156.459 72.95 156.079 72.6C155.699 72.25 155.509 71.675 155.509 70.875V66.03H154.444V64.905H155.509V62.835H156.874V64.905H159.019V66.03H156.874ZM163.982 67.89C163.982 66.87 164.212 65.955 164.672 65.145C165.132 64.325 165.757 63.685 166.547 63.225C167.347 62.765 168.232 62.535 169.202 62.535C170.342 62.535 171.337 62.81 172.187 63.36C173.037 63.91 173.657 64.69 174.047 65.7H172.412C172.122 65.07 171.702 64.585 171.152 64.245C170.612 63.905 169.962 63.735 169.202 63.735C168.472 63.735 167.817 63.905 167.237 64.245C166.657 64.585 166.202 65.07 165.872 65.7C165.542 66.32 165.377 67.05 165.377 67.89C165.377 68.72 165.542 69.45 165.872 70.08C166.202 70.7 166.657 71.18 167.237 71.52C167.817 71.86 168.472 72.03 169.202 72.03C169.962 72.03 170.612 71.865 171.152 71.535C171.702 71.195 172.122 70.71 172.412 70.08H174.047C173.657 71.08 173.037 71.855 172.187 72.405C171.337 72.945 170.342 73.215 169.202 73.215C168.232 73.215 167.347 72.99 166.547 72.54C165.757 72.08 165.132 71.445 164.672 70.635C164.212 69.825 163.982 68.91 163.982 67.89ZM175.479 68.985C175.479 68.145 175.649 67.41 175.989 66.78C176.329 66.14 176.794 65.645 177.384 65.295C177.984 64.945 178.649 64.77 179.379 64.77C180.099 64.77 180.724 64.925 181.254 65.235C181.784 65.545 182.179 65.935 182.439 66.405V64.905H183.819V73.125H182.439V71.595C182.169 72.075 181.764 72.475 181.224 72.795C180.694 73.105 180.074 73.26 179.364 73.26C178.634 73.26 177.974 73.08 177.384 72.72C176.794 72.36 176.329 71.855 175.989 71.205C175.649 70.555 175.479 69.815 175.479 68.985ZM182.439 69C182.439 68.38 182.314 67.84 182.064 67.38C181.814 66.92 181.474 66.57 181.044 66.33C180.624 66.08 180.159 65.955 179.649 65.955C179.139 65.955 178.674 66.075 178.254 66.315C177.834 66.555 177.499 66.905 177.249 67.365C176.999 67.825 176.874 68.365 176.874 68.985C176.874 69.615 176.999 70.165 177.249 70.635C177.499 71.095 177.834 71.45 178.254 71.7C178.674 71.94 179.139 72.06 179.649 72.06C180.159 72.06 180.624 71.94 181.044 71.7C181.474 71.45 181.814 71.095 182.064 70.635C182.314 70.165 182.439 69.62 182.439 69ZM187.401 66.24C187.641 65.77 187.981 65.405 188.421 65.145C188.871 64.885 189.416 64.755 190.056 64.755V66.165H189.696C188.166 66.165 187.401 66.995 187.401 68.655V73.125H186.036V64.905H187.401V66.24ZM199.041 68.7C199.041 68.96 199.026 69.235 198.996 69.525H192.426C192.476 70.335 192.751 70.97 193.251 71.43C193.761 71.88 194.376 72.105 195.096 72.105C195.686 72.105 196.176 71.97 196.566 71.7C196.966 71.42 197.246 71.05 197.406 70.59H198.876C198.656 71.38 198.216 72.025 197.556 72.525C196.896 73.015 196.076 73.26 195.096 73.26C194.316 73.26 193.616 73.085 192.996 72.735C192.386 72.385 191.906 71.89 191.556 71.25C191.206 70.6 191.031 69.85 191.031 69C191.031 68.15 191.201 67.405 191.541 66.765C191.881 66.125 192.356 65.635 192.966 65.295C193.586 64.945 194.296 64.77 195.096 64.77C195.876 64.77 196.566 64.94 197.166 65.28C197.766 65.62 198.226 66.09 198.546 66.69C198.876 67.28 199.041 67.95 199.041 68.7ZM197.631 68.415C197.631 67.895 197.516 67.45 197.286 67.08C197.056 66.7 196.741 66.415 196.341 66.225C195.951 66.025 195.516 65.925 195.036 65.925C194.346 65.925 193.756 66.145 193.266 66.585C192.786 67.025 192.511 67.635 192.441 68.415H197.631ZM211.652 65.73C211.652 66.6 211.352 67.325 210.752 67.905C210.162 68.475 209.257 68.76 208.037 68.76H206.027V73.125H204.662V62.67H208.037C209.217 62.67 210.112 62.955 210.722 63.525C211.342 64.095 211.652 64.83 211.652 65.73ZM208.037 67.635C208.797 67.635 209.357 67.47 209.717 67.14C210.077 66.81 210.257 66.34 210.257 65.73C210.257 64.44 209.517 63.795 208.037 63.795H206.027V67.635H208.037ZM216.844 73.26C216.074 73.26 215.374 73.085 214.744 72.735C214.124 72.385 213.634 71.89 213.274 71.25C212.924 70.6 212.749 69.85 212.749 69C212.749 68.16 212.929 67.42 213.289 66.78C213.659 66.13 214.159 65.635 214.789 65.295C215.419 64.945 216.124 64.77 216.904 64.77C217.684 64.77 218.389 64.945 219.019 65.295C219.649 65.635 220.144 66.125 220.504 66.765C220.874 67.405 221.059 68.15 221.059 69C221.059 69.85 220.869 70.6 220.489 71.25C220.119 71.89 219.614 72.385 218.974 72.735C218.334 73.085 217.624 73.26 216.844 73.26ZM216.844 72.06C217.334 72.06 217.794 71.945 218.224 71.715C218.654 71.485 218.999 71.14 219.259 70.68C219.529 70.22 219.664 69.66 219.664 69C219.664 68.34 219.534 67.78 219.274 67.32C219.014 66.86 218.674 66.52 218.254 66.3C217.834 66.07 217.379 65.955 216.889 65.955C216.389 65.955 215.929 66.07 215.509 66.3C215.099 66.52 214.769 66.86 214.519 67.32C214.269 67.78 214.144 68.34 214.144 69C214.144 69.67 214.264 70.235 214.504 70.695C214.754 71.155 215.084 71.5 215.494 71.73C215.904 71.95 216.354 72.06 216.844 72.06ZM224.128 62.025V73.125H222.763V62.025H224.128ZM227.07 63.57C226.81 63.57 226.59 63.48 226.41 63.3C226.23 63.12 226.14 62.9 226.14 62.64C226.14 62.38 226.23 62.16 226.41 61.98C226.59 61.8 226.81 61.71 227.07 61.71C227.32 61.71 227.53 61.8 227.7 61.98C227.88 62.16 227.97 62.38 227.97 62.64C227.97 62.9 227.88 63.12 227.7 63.3C227.53 63.48 227.32 63.57 227.07 63.57ZM227.73 64.905V73.125H226.365V64.905H227.73ZM229.456 69C229.456 68.15 229.626 67.41 229.966 66.78C230.306 66.14 230.776 65.645 231.376 65.295C231.986 64.945 232.681 64.77 233.461 64.77C234.471 64.77 235.301 65.015 235.951 65.505C236.611 65.995 237.046 66.675 237.256 67.545H235.786C235.646 67.045 235.371 66.65 234.961 66.36C234.561 66.07 234.061 65.925 233.461 65.925C232.681 65.925 232.051 66.195 231.571 66.735C231.091 67.265 230.851 68.02 230.851 69C230.851 69.99 231.091 70.755 231.571 71.295C232.051 71.835 232.681 72.105 233.461 72.105C234.061 72.105 234.561 71.965 234.961 71.685C235.361 71.405 235.636 71.005 235.786 70.485H237.256C237.036 71.325 236.596 72 235.936 72.51C235.276 73.01 234.451 73.26 233.461 73.26C232.681 73.26 231.986 73.085 231.376 72.735C230.776 72.385 230.306 71.89 229.966 71.25C229.626 70.61 229.456 69.86 229.456 69ZM246.068 64.905L241.118 76.995H239.708L241.328 73.035L238.013 64.905H239.528L242.108 71.565L244.658 64.905H246.068Z" fill="black"/>
<rect x="259" y="53.125" width="110" height="30" rx="15" fill="#0A58EB"/>
<rect x="259" y="53.125" width="110" height="30" rx="15" fill="url(#paint0_radial_661_4779)"/>
<path d="M275.323 64.3921L275.395 64.4284C275.689 64.5797 275.928 64.8186 276.079 65.1121L276.115 65.1847C276.26 65.472 276.672 65.472 276.82 65.1847L276.856 65.1121C277.008 64.8186 277.246 64.5797 277.54 64.4284L277.613 64.3921C277.9 64.2469 277.9 63.8355 277.613 63.6873L277.54 63.651C277.246 63.4997 277.008 63.2608 276.856 62.9673L276.82 62.8947C276.675 62.6074 276.263 62.6074 276.115 62.8947L276.079 62.9673C275.928 63.2608 275.689 63.4997 275.395 63.651L275.323 63.6873C275.035 63.8325 275.035 64.2439 275.323 64.3921Z" fill="url(#paint1_linear_661_4779)"/>
<path d="M275.894 67.2265C276.191 67.0753 276.191 66.6548 275.894 66.5036L275.453 66.2767C275.059 66.074 274.739 65.7534 274.536 65.3601L274.309 64.9185C274.158 64.622 273.737 64.622 273.586 64.9185L273.359 65.3601C273.157 65.7534 272.836 66.074 272.443 66.2767L272.001 66.5036C271.705 66.6548 271.705 67.0753 272.001 67.2265L272.443 67.4534C272.836 67.6561 273.157 67.9767 273.359 68.37L273.586 68.8116C273.737 69.1081 274.158 69.1081 274.309 68.8116L274.536 68.37C274.739 67.9767 275.059 67.6561 275.453 67.4534L275.894 67.2265Z" fill="url(#paint2_linear_661_4779)"/>
<path d="M281.569 69.0355L281.122 68.8056C280.58 68.5303 280.147 68.0977 279.872 67.5563L279.642 67.1086C279.44 66.7093 279.034 66.4612 278.587 66.4612C278.139 66.4612 277.734 66.7093 277.531 67.1086L277.301 67.5563C277.026 68.0977 276.593 68.5303 276.052 68.8056L275.604 69.0355C275.205 69.2382 274.957 69.6435 274.957 70.0912C274.957 70.5389 275.205 70.9443 275.604 71.1469L276.052 71.3768C276.593 71.6521 277.026 72.0847 277.301 72.6262L277.531 73.0739C277.734 73.4732 278.139 73.7212 278.587 73.7212C279.034 73.7212 279.44 73.4732 279.642 73.0739L279.872 72.6262C280.147 72.0847 280.58 71.6521 281.122 71.3768L281.569 71.1469C281.969 70.9443 282.217 70.5389 282.217 70.0912C282.217 69.6435 281.969 69.2382 281.569 69.0355ZM281.158 70.3393L280.71 70.5692C279.996 70.9322 279.428 71.5009 279.065 72.2148L278.835 72.6625C278.765 72.7986 278.638 72.8137 278.587 72.8137C278.535 72.8137 278.408 72.7986 278.339 72.6625L278.109 72.2148C277.746 71.5009 277.177 70.9322 276.463 70.5692L276.015 70.3393C275.879 70.2697 275.864 70.1426 275.864 70.0912C275.864 70.0398 275.879 69.9127 276.015 69.8432L276.463 69.6133C277.177 69.2503 277.746 68.6816 278.109 67.9677L278.339 67.52C278.408 67.3838 278.535 67.3687 278.587 67.3687C278.638 67.3687 278.765 67.3838 278.835 67.52L279.065 67.9677C279.428 68.6816 279.996 69.2503 280.71 69.6133L281.158 69.8432C281.294 69.9127 281.309 70.0398 281.309 70.0912C281.309 70.1426 281.294 70.2697 281.158 70.3393Z" fill="url(#paint3_linear_661_4779)"/>
<path d="M286.708 67.9151C286.708 67.1873 286.871 66.5372 287.196 65.9648C287.528 65.3854 287.977 64.9367 288.542 64.6187C289.114 64.2936 289.754 64.1311 290.461 64.1311C291.287 64.1311 292.012 64.3431 292.634 64.7671C293.255 65.191 293.69 65.7776 293.937 66.5266H292.231C292.061 66.1733 291.821 65.9083 291.51 65.7316C291.206 65.555 290.853 65.4666 290.45 65.4666C290.019 65.4666 289.634 65.5691 289.295 65.774C288.963 65.9719 288.701 66.2545 288.51 66.622C288.327 66.9894 288.235 67.4205 288.235 67.9151C288.235 68.4027 288.327 68.8338 288.51 69.2083C288.701 69.5757 288.963 69.8619 289.295 70.0669C289.634 70.2647 290.019 70.3636 290.45 70.3636C290.853 70.3636 291.206 70.2753 291.51 70.0987C291.821 69.9149 292.061 69.6464 292.231 69.2931H293.937C293.69 70.0492 293.255 70.6392 292.634 71.0632C292.019 71.4801 291.294 71.6886 290.461 71.6886C289.754 71.6886 289.114 71.5296 288.542 71.2116C287.977 70.8866 287.528 70.4378 287.196 69.8655C286.871 69.2931 286.708 68.643 286.708 67.9151ZM296.742 66.6644C296.933 66.3535 297.18 66.1097 297.484 65.933C297.795 65.7564 298.148 65.668 298.544 65.668V67.2262H298.151C297.685 67.2262 297.332 67.3357 297.092 67.5548C296.858 67.7738 296.742 68.1554 296.742 68.6995V71.625H295.258V65.7528H296.742V66.6644ZM305.055 68.5617C305.055 68.7737 305.041 68.9645 305.013 69.1341H300.72C300.755 69.5581 300.903 69.8902 301.165 70.1305C301.426 70.3707 301.748 70.4908 302.129 70.4908C302.681 70.4908 303.073 70.2541 303.306 69.7807H304.907C304.737 70.346 304.412 70.8124 303.931 71.1798C303.451 71.5402 302.861 71.7204 302.161 71.7204C301.596 71.7204 301.087 71.5967 300.635 71.3494C300.19 71.095 299.84 70.7382 299.586 70.2789C299.338 69.8195 299.215 69.2896 299.215 68.6889C299.215 68.0812 299.338 67.5477 299.586 67.0884C299.833 66.6291 300.179 66.2757 300.624 66.0284C301.07 65.7811 301.582 65.6574 302.161 65.6574C302.72 65.6574 303.218 65.7776 303.656 66.0178C304.101 66.2581 304.444 66.6008 304.684 67.046C304.931 67.4841 305.055 67.9893 305.055 68.5617ZM303.518 68.1377C303.511 67.7561 303.373 67.4523 303.105 67.2262C302.836 66.993 302.508 66.8764 302.119 66.8764C301.751 66.8764 301.441 66.9894 301.186 67.2156C300.939 67.4346 300.787 67.742 300.73 68.1377H303.518ZM305.81 68.6677C305.81 68.0741 305.926 67.5477 306.159 67.0884C306.4 66.6291 306.721 66.2757 307.124 66.0284C307.534 65.7811 307.99 65.6574 308.491 65.6574C308.929 65.6574 309.311 65.7458 309.636 65.9224C309.968 66.0991 310.233 66.3217 310.431 66.5902V65.7528H311.925V71.625H310.431V70.7664C310.24 71.042 309.975 71.2717 309.636 71.4554C309.304 71.6321 308.919 71.7204 308.481 71.7204C307.986 71.7204 307.534 71.5932 307.124 71.3388C306.721 71.0844 306.4 70.7276 306.159 70.2683C305.926 69.8019 305.81 69.2684 305.81 68.6677ZM310.431 68.6889C310.431 68.3285 310.36 68.0211 310.219 67.7667C310.078 67.5053 309.887 67.3074 309.647 67.1732C309.406 67.0318 309.148 66.9612 308.873 66.9612C308.597 66.9612 308.343 67.0283 308.11 67.1626C307.876 67.2968 307.686 67.4947 307.537 67.7561C307.396 68.0105 307.325 68.3144 307.325 68.6677C307.325 69.021 307.396 69.332 307.537 69.6005C307.686 69.8619 307.876 70.0633 308.11 70.2047C308.35 70.346 308.604 70.4166 308.873 70.4166C309.148 70.4166 309.406 70.3495 309.647 70.2153C309.887 70.0739 310.078 69.8761 310.219 69.6217C310.36 69.3602 310.431 69.0493 310.431 68.6889ZM315.156 66.9718V69.8125C315.156 70.0103 315.201 70.1552 315.293 70.2471C315.392 70.3318 315.555 70.3742 315.781 70.3742H316.47V71.625H315.537C314.286 71.625 313.661 71.0173 313.661 69.8019V66.9718H312.961V65.7528H313.661V64.3007H315.156V65.7528H316.47V66.9718H315.156ZM323.049 68.5617C323.049 68.7737 323.035 68.9645 323.007 69.1341H318.714C318.749 69.5581 318.898 69.8902 319.159 70.1305C319.42 70.3707 319.742 70.4908 320.124 70.4908C320.675 70.4908 321.067 70.2541 321.3 69.7807H322.901C322.731 70.346 322.406 70.8124 321.925 71.1798C321.445 71.5402 320.855 71.7204 320.155 71.7204C319.59 71.7204 319.081 71.5967 318.629 71.3494C318.184 71.095 317.834 70.7382 317.58 70.2789C317.332 69.8195 317.209 69.2896 317.209 68.6889C317.209 68.0812 317.332 67.5477 317.58 67.0884C317.827 66.6291 318.173 66.2757 318.618 66.0284C319.064 65.7811 319.576 65.6574 320.155 65.6574C320.714 65.6574 321.212 65.7776 321.65 66.0178C322.095 66.2581 322.438 66.6008 322.678 67.046C322.925 67.4841 323.049 67.9893 323.049 68.5617ZM321.512 68.1377C321.505 67.7561 321.367 67.4523 321.099 67.2262C320.83 66.993 320.502 66.8764 320.113 66.8764C319.745 66.8764 319.435 66.9894 319.18 67.2156C318.933 67.4346 318.781 67.742 318.724 68.1377H321.512ZM332.159 66.516C332.159 66.9117 332.064 67.2827 331.873 67.629C331.689 67.9752 331.396 68.2543 330.993 68.4663C330.597 68.6783 330.096 68.7843 329.488 68.7843H328.248V71.625H326.764V64.2265H329.488C330.06 64.2265 330.548 64.3254 330.951 64.5233C331.353 64.7211 331.654 64.9932 331.852 65.3394C332.057 65.6857 332.159 66.0779 332.159 66.516ZM329.424 67.5866C329.834 67.5866 330.138 67.4947 330.336 67.311C330.534 67.1202 330.633 66.8552 330.633 66.516C330.633 65.7952 330.23 65.4348 329.424 65.4348H328.248V67.5866H329.424ZM335.873 71.7204C335.308 71.7204 334.799 71.5967 334.347 71.3494C333.895 71.095 333.538 70.7382 333.276 70.2789C333.022 69.8195 332.895 69.2896 332.895 68.6889C332.895 68.0883 333.025 67.5583 333.287 67.099C333.555 66.6397 333.919 66.2863 334.379 66.039C334.838 65.7846 335.35 65.6574 335.916 65.6574C336.481 65.6574 336.993 65.7846 337.452 66.039C337.912 66.2863 338.272 66.6397 338.534 67.099C338.802 67.5583 338.936 68.0883 338.936 68.6889C338.936 69.2896 338.799 69.8195 338.523 70.2789C338.255 70.7382 337.887 71.095 337.421 71.3494C336.961 71.5967 336.446 71.7204 335.873 71.7204ZM335.873 70.4272C336.142 70.4272 336.393 70.3636 336.626 70.2365C336.866 70.1022 337.057 69.9043 337.198 69.6429C337.339 69.3814 337.41 69.0634 337.41 68.6889C337.41 68.1307 337.262 67.7031 336.965 67.4064C336.675 67.1025 336.318 66.9506 335.894 66.9506C335.47 66.9506 335.114 67.1025 334.824 67.4064C334.541 67.7031 334.4 68.1307 334.4 68.6889C334.4 69.2472 334.538 69.6782 334.813 69.9821C335.096 70.2789 335.449 70.4272 335.873 70.4272ZM341.562 63.7813V71.625H340.078V63.7813H341.562ZM343.834 65.0532C343.572 65.0532 343.353 64.972 343.176 64.8095C343.007 64.6399 342.922 64.4314 342.922 64.1841C342.922 63.9368 343.007 63.7318 343.176 63.5693C343.353 63.3997 343.572 63.3149 343.834 63.3149C344.095 63.3149 344.311 63.3997 344.48 63.5693C344.657 63.7318 344.745 63.9368 344.745 64.1841C344.745 64.4314 344.657 64.6399 344.48 64.8095C344.311 64.972 344.095 65.0532 343.834 65.0532ZM344.565 65.7528V71.625H343.081V65.7528H344.565ZM345.703 68.6889C345.703 68.0812 345.826 67.5512 346.074 67.099C346.321 66.6397 346.664 66.2863 347.102 66.039C347.54 65.7846 348.042 65.6574 348.607 65.6574C349.335 65.6574 349.935 65.8412 350.409 66.2086C350.889 66.569 351.211 67.0778 351.373 67.7349H349.773C349.688 67.4806 349.543 67.2827 349.338 67.1414C349.14 66.993 348.893 66.9188 348.596 66.9188C348.172 66.9188 347.837 67.0742 347.589 67.3852C347.342 67.689 347.218 68.1236 347.218 68.6889C347.218 69.2472 347.342 69.6817 347.589 69.9927C347.837 70.2965 348.172 70.4484 348.596 70.4484C349.197 70.4484 349.589 70.1799 349.773 69.6429H351.373C351.211 70.2789 350.889 70.7841 350.409 71.1586C349.928 71.5331 349.328 71.7204 348.607 71.7204C348.042 71.7204 347.54 71.5967 347.102 71.3494C346.664 71.095 346.321 70.7417 346.074 70.2895C345.826 69.8301 345.703 69.2966 345.703 68.6889ZM358.131 65.7528L354.496 74.4021H352.916L354.188 71.4766L351.835 65.7528H353.499L355.015 69.8549L356.552 65.7528H358.131Z" fill="#F5F5F5"/>
</g>
<rect x="-11" y="205" width="115" height="336" rx="12" transform="rotate(-90 -11 205)" fill="white"/>
<rect x="-11" y="205" width="115" height="336" rx="12" transform="rotate(-90 -11 205)" stroke="url(#paint4_linear_661_4779)" stroke-opacity="0.87" stroke-width="4"/>
<path d="M33.3815 112.931C33.3815 112.129 33.5549 111.417 33.9017 110.792C34.2485 110.16 34.7301 109.671 35.3467 109.324C35.9709 108.97 36.6761 108.792 37.4622 108.792C38.4255 108.792 39.2501 109.047 39.936 109.555C40.6219 110.064 41.0804 110.758 41.3116 111.636H39.1384C38.9765 111.297 38.7453 111.039 38.4448 110.862C38.1519 110.684 37.8167 110.596 37.439 110.596C36.8302 110.596 36.337 110.808 35.9594 111.232C35.5817 111.655 35.3929 112.222 35.3929 112.931C35.3929 113.64 35.5817 114.206 35.9594 114.63C36.337 115.054 36.8302 115.266 37.439 115.266C37.8167 115.266 38.1519 115.177 38.4448 115C38.7453 114.823 38.9765 114.565 39.1384 114.226H41.3116C41.0804 115.104 40.6219 115.798 39.936 116.306C39.2501 116.807 38.4255 117.058 37.4622 117.058C36.6761 117.058 35.9709 116.884 35.3467 116.538C34.7301 116.183 34.2485 115.694 33.9017 115.069C33.5549 114.445 33.3815 113.732 33.3815 112.931ZM44.4296 108.446V117H42.4528V108.446H44.4296ZM46.7869 109.879C46.4401 109.879 46.155 109.779 45.9315 109.578C45.7157 109.37 45.6078 109.116 45.6078 108.816C45.6078 108.507 45.7157 108.253 45.9315 108.053C46.155 107.844 46.4401 107.74 46.7869 107.74C47.126 107.74 47.4035 107.844 47.6192 108.053C47.8427 108.253 47.9545 108.507 47.9545 108.816C47.9545 109.116 47.8427 109.37 47.6192 109.578C47.4035 109.779 47.126 109.879 46.7869 109.879ZM47.7695 110.55V117H45.7928V110.55H47.7695ZM55.2133 113.671C55.2133 113.856 55.2017 114.048 55.1786 114.249H50.7049C50.7357 114.649 50.8629 114.958 51.0863 115.174C51.3175 115.382 51.5988 115.486 51.9302 115.486C52.4235 115.486 52.7664 115.278 52.9591 114.861H55.063C54.9551 115.285 54.7586 115.667 54.4734 116.006C54.196 116.345 53.8453 116.611 53.4215 116.803C52.9976 116.996 52.5236 117.092 51.9996 117.092C51.3676 117.092 50.8051 116.958 50.3118 116.688C49.8186 116.418 49.4333 116.033 49.1558 115.532C48.8784 115.031 48.7397 114.445 48.7397 113.775C48.7397 113.104 48.8745 112.519 49.1443 112.018C49.4217 111.517 49.807 111.131 50.3003 110.862C50.7935 110.592 51.3599 110.457 51.9996 110.457C52.6238 110.457 53.1787 110.588 53.6642 110.85C54.1497 111.112 54.5274 111.486 54.7971 111.971C55.0745 112.457 55.2133 113.023 55.2133 113.671ZM53.1903 113.151C53.1903 112.811 53.0747 112.542 52.8435 112.341C52.6123 112.141 52.3233 112.041 51.9765 112.041C51.6451 112.041 51.3638 112.137 51.1326 112.33C50.9091 112.522 50.7704 112.796 50.7164 113.151H53.1903ZM60.1171 110.48C60.8724 110.48 61.4735 110.727 61.9205 111.22C62.3752 111.706 62.6025 112.376 62.6025 113.231V117H60.6373V113.497C60.6373 113.066 60.5256 112.731 60.3021 112.492C60.0786 112.253 59.778 112.133 59.4004 112.133C59.0228 112.133 58.7222 112.253 58.4987 112.492C58.2752 112.731 58.1635 113.066 58.1635 113.497V117H56.1867V110.55H58.1635V111.405C58.3639 111.12 58.6336 110.896 58.9727 110.734C59.3118 110.565 59.6933 110.48 60.1171 110.48ZM67.502 115.324V117H66.4963C65.7796 117 65.2208 116.827 64.8201 116.48C64.4193 116.125 64.219 115.551 64.219 114.757V112.191H63.4329V110.55H64.219V108.977H66.1957V110.55H67.4904V112.191H66.1957V114.78C66.1957 114.973 66.242 115.112 66.3344 115.197C66.4269 115.281 66.581 115.324 66.7968 115.324H67.502ZM70.5789 112.931C70.5789 112.129 70.7523 111.417 71.0991 110.792C71.4459 110.16 71.9275 109.671 72.5441 109.324C73.1683 108.97 73.8735 108.792 74.6595 108.792C75.6229 108.792 76.4475 109.047 77.1334 109.555C77.8193 110.064 78.2778 110.758 78.509 111.636H76.3357C76.1739 111.297 75.9427 111.039 75.6421 110.862C75.3493 110.684 75.014 110.596 74.6364 110.596C74.0276 110.596 73.5344 110.808 73.1567 111.232C72.7791 111.655 72.5903 112.222 72.5903 112.931C72.5903 113.64 72.7791 114.206 73.1567 114.63C73.5344 115.054 74.0276 115.266 74.6364 115.266C75.014 115.266 75.3493 115.177 75.6421 115C75.9427 114.823 76.1739 114.565 76.3357 114.226H78.509C78.2778 115.104 77.8193 115.798 77.1334 116.306C76.4475 116.807 75.6229 117.058 74.6595 117.058C73.8735 117.058 73.1683 116.884 72.5441 116.538C71.9275 116.183 71.4459 115.694 71.0991 115.069C70.7523 114.445 70.5789 113.732 70.5789 112.931ZM79.2572 113.763C79.2572 113.1 79.3805 112.519 79.6271 112.018C79.8814 111.517 80.2243 111.131 80.6559 110.862C81.0875 110.592 81.5692 110.457 82.1009 110.457C82.5556 110.457 82.9525 110.55 83.2916 110.734C83.6384 110.919 83.9043 111.162 84.0892 111.463V110.55H86.066V117H84.0892V116.087C83.8966 116.387 83.6268 116.63 83.28 116.815C82.941 117 82.5441 117.092 82.0894 117.092C81.5653 117.092 81.0875 116.958 80.6559 116.688C80.2243 116.41 79.8814 116.021 79.6271 115.52C79.3805 115.012 79.2572 114.426 79.2572 113.763ZM84.0892 113.775C84.0892 113.282 83.9505 112.892 83.6731 112.607C83.4034 112.322 83.072 112.179 82.6789 112.179C82.2859 112.179 81.9506 112.322 81.6732 112.607C81.4035 112.885 81.2686 113.27 81.2686 113.763C81.2686 114.256 81.4035 114.649 81.6732 114.942C81.9506 115.227 82.2859 115.37 82.6789 115.37C83.072 115.37 83.4034 115.227 83.6731 114.942C83.9505 114.657 84.0892 114.268 84.0892 113.775ZM89.4035 111.625C89.6347 111.27 89.9237 110.993 90.2705 110.792C90.6173 110.584 91.0026 110.48 91.4265 110.48V112.573H90.8832C90.39 112.573 90.02 112.68 89.7734 112.896C89.5268 113.104 89.4035 113.474 89.4035 114.006V117H87.4267V110.55H89.4035V111.625ZM98.3826 113.671C98.3826 113.856 98.371 114.048 98.3479 114.249H93.8742C93.905 114.649 94.0321 114.958 94.2556 115.174C94.4868 115.382 94.7681 115.486 95.0995 115.486C95.5927 115.486 95.9357 115.278 96.1284 114.861H98.2323C98.1244 115.285 97.9279 115.667 97.6427 116.006C97.3653 116.345 97.0146 116.611 96.5908 116.803C96.1669 116.996 95.6929 117.092 95.1689 117.092C94.5369 117.092 93.9743 116.958 93.4811 116.688C92.9879 116.418 92.6025 116.033 92.3251 115.532C92.0477 115.031 91.9089 114.445 91.9089 113.775C91.9089 113.104 92.0438 112.519 92.3135 112.018C92.591 111.517 92.9763 111.131 93.4696 110.862C93.9628 110.592 94.5292 110.457 95.1689 110.457C95.7931 110.457 96.348 110.588 96.8335 110.85C97.319 111.112 97.6967 111.486 97.9664 111.971C98.2438 112.457 98.3826 113.023 98.3826 113.671ZM96.3596 113.151C96.3596 112.811 96.244 112.542 96.0128 112.341C95.7816 112.141 95.4926 112.041 95.1458 112.041C94.8144 112.041 94.5331 112.137 94.3019 112.33C94.0784 112.522 93.9397 112.796 93.8857 113.151H96.3596ZM107.921 111.497C107.921 111.968 107.813 112.399 107.597 112.792C107.382 113.177 107.05 113.49 106.603 113.729C106.156 113.967 105.601 114.087 104.939 114.087H103.713V117H101.736V108.885H104.939C105.586 108.885 106.133 108.997 106.58 109.22C107.027 109.444 107.362 109.752 107.586 110.145C107.809 110.538 107.921 110.989 107.921 111.497ZM104.788 112.515C105.166 112.515 105.447 112.426 105.632 112.249C105.817 112.072 105.91 111.821 105.91 111.497C105.91 111.174 105.817 110.923 105.632 110.746C105.447 110.569 105.166 110.48 104.788 110.48H103.713V112.515H104.788ZM111.817 117.092C111.185 117.092 110.615 116.958 110.106 116.688C109.605 116.418 109.208 116.033 108.915 115.532C108.63 115.031 108.488 114.445 108.488 113.775C108.488 113.112 108.634 112.53 108.927 112.029C109.22 111.521 109.621 111.131 110.129 110.862C110.638 110.592 111.208 110.457 111.84 110.457C112.472 110.457 113.042 110.592 113.551 110.862C114.06 111.131 114.46 111.521 114.753 112.029C115.046 112.53 115.193 113.112 115.193 113.775C115.193 114.438 115.042 115.023 114.742 115.532C114.449 116.033 114.044 116.418 113.528 116.688C113.019 116.958 112.449 117.092 111.817 117.092ZM111.817 115.382C112.195 115.382 112.514 115.243 112.776 114.965C113.046 114.688 113.181 114.291 113.181 113.775C113.181 113.258 113.05 112.862 112.788 112.584C112.534 112.307 112.218 112.168 111.84 112.168C111.455 112.168 111.135 112.307 110.881 112.584C110.626 112.854 110.499 113.251 110.499 113.775C110.499 114.291 110.622 114.688 110.869 114.965C111.123 115.243 111.439 115.382 111.817 115.382ZM118.149 108.446V117H116.172V108.446H118.149ZM120.506 109.879C120.159 109.879 119.874 109.779 119.651 109.578C119.435 109.37 119.327 109.116 119.327 108.816C119.327 108.507 119.435 108.253 119.651 108.053C119.874 107.844 120.159 107.74 120.506 107.74C120.845 107.74 121.122 107.844 121.338 108.053C121.562 108.253 121.674 108.507 121.674 108.816C121.674 109.116 121.562 109.37 121.338 109.578C121.122 109.779 120.845 109.879 120.506 109.879ZM121.489 110.55V117H119.512V110.55H121.489ZM122.459 113.775C122.459 113.104 122.594 112.519 122.863 112.018C123.141 111.517 123.522 111.131 124.008 110.862C124.501 110.592 125.064 110.457 125.695 110.457C126.505 110.457 127.179 110.669 127.718 111.093C128.266 111.517 128.624 112.114 128.794 112.885H126.69C126.512 112.391 126.169 112.145 125.661 112.145C125.299 112.145 125.01 112.287 124.794 112.573C124.578 112.85 124.47 113.251 124.47 113.775C124.47 114.299 124.578 114.703 124.794 114.989C125.01 115.266 125.299 115.405 125.661 115.405C126.169 115.405 126.512 115.158 126.69 114.665H128.794C128.624 115.42 128.266 116.014 127.718 116.445C127.171 116.877 126.497 117.092 125.695 117.092C125.064 117.092 124.501 116.958 124.008 116.688C123.522 116.418 123.141 116.033 122.863 115.532C122.594 115.031 122.459 114.445 122.459 113.775ZM136.371 110.55L132.325 120.063H130.198L131.677 116.78L129.053 110.55H131.261L132.753 114.584L134.232 110.55H136.371ZM40.5487 126.943L37.5084 135H36.2946L33.2543 126.943H34.3756L36.9073 133.89L39.4389 126.943H40.5487ZM47.4128 131.59C47.4128 131.79 47.4012 132.002 47.3781 132.226H42.3148C42.3534 132.85 42.5653 133.339 42.9506 133.694C43.3437 134.041 43.8176 134.214 44.3725 134.214C44.8272 134.214 45.2048 134.11 45.5054 133.902C45.8137 133.686 46.0294 133.401 46.1528 133.046H47.2856C47.1161 133.655 46.777 134.152 46.2684 134.538C45.7597 134.915 45.1278 135.104 44.3725 135.104C43.7714 135.104 43.2319 134.969 42.7541 134.699C42.284 134.43 41.9141 134.048 41.6444 133.555C41.3746 133.054 41.2398 132.476 41.2398 131.821C41.2398 131.166 41.3708 130.592 41.6328 130.099C41.8948 129.605 42.2609 129.228 42.731 128.966C43.2088 128.696 43.756 128.561 44.3725 128.561C44.9736 128.561 45.5054 128.692 45.9678 128.954C46.4302 129.216 46.7847 129.578 47.0313 130.041C47.2856 130.495 47.4128 131.012 47.4128 131.59ZM46.3262 131.37C46.3262 130.969 46.2375 130.626 46.0603 130.341C45.883 130.048 45.6403 129.829 45.332 129.682C45.0314 129.528 44.6962 129.451 44.3263 129.451C43.7945 129.451 43.3398 129.621 42.9622 129.96C42.5923 130.299 42.3803 130.769 42.3264 131.37H46.3262ZM49.7839 129.694C49.9689 129.332 50.2309 129.05 50.57 128.85C50.9168 128.65 51.3368 128.55 51.8301 128.55V129.636H51.5526C50.3735 129.636 49.7839 130.276 49.7839 131.555V135H48.732V128.665H49.7839V129.694ZM55.2177 135.104C54.7322 135.104 54.2967 135.023 53.9114 134.861C53.5261 134.692 53.2217 134.461 52.9982 134.168C52.7747 133.867 52.6514 133.524 52.6282 133.139H53.7149C53.7457 133.455 53.8921 133.713 54.1542 133.913C54.4239 134.114 54.7746 134.214 55.2061 134.214C55.6069 134.214 55.9228 134.125 56.154 133.948C56.3852 133.771 56.5008 133.547 56.5008 133.278C56.5008 133 56.3775 132.796 56.1309 132.665C55.8843 132.526 55.5028 132.391 54.9865 132.26C54.5164 132.137 54.131 132.014 53.8305 131.89C53.5376 131.759 53.2833 131.571 53.0675 131.324C52.8594 131.07 52.7554 130.738 52.7554 130.33C52.7554 130.006 52.8517 129.709 53.0444 129.44C53.2371 129.17 53.5107 128.958 53.8652 128.804C54.2197 128.642 54.6243 128.561 55.079 128.561C55.7803 128.561 56.3467 128.738 56.7783 129.093C57.2099 129.447 57.4411 129.933 57.4719 130.549H56.4199C56.3968 130.218 56.2619 129.952 56.0153 129.752C55.7764 129.551 55.4527 129.451 55.0443 129.451C54.6667 129.451 54.3661 129.532 54.1426 129.694C53.9191 129.856 53.8074 130.068 53.8074 130.33C53.8074 130.538 53.8729 130.711 54.0039 130.85C54.1426 130.981 54.3122 131.089 54.5125 131.174C54.7206 131.251 55.0058 131.339 55.368 131.44C55.8227 131.563 56.1926 131.686 56.4777 131.809C56.7629 131.925 57.0056 132.102 57.206 132.341C57.4141 132.58 57.522 132.892 57.5297 133.278C57.5297 133.624 57.4334 133.936 57.2407 134.214C57.048 134.491 56.7744 134.711 56.4199 134.873C56.0731 135.027 55.6724 135.104 55.2177 135.104ZM59.4887 127.636C59.2883 127.636 59.1187 127.567 58.98 127.428C58.8413 127.289 58.7719 127.12 58.7719 126.92C58.7719 126.719 58.8413 126.55 58.98 126.411C59.1187 126.272 59.2883 126.203 59.4887 126.203C59.6813 126.203 59.8432 126.272 59.9742 126.411C60.1129 126.55 60.1823 126.719 60.1823 126.92C60.1823 127.12 60.1129 127.289 59.9742 127.428C59.8432 127.567 59.6813 127.636 59.4887 127.636ZM59.9973 128.665V135H58.9453V128.665H59.9973ZM64.4837 135.104C63.8902 135.104 63.3508 134.969 62.8653 134.699C62.3874 134.43 62.0098 134.048 61.7324 133.555C61.4626 133.054 61.3278 132.476 61.3278 131.821C61.3278 131.174 61.4665 130.603 61.7439 130.11C62.0291 129.609 62.4144 129.228 62.8999 128.966C63.3855 128.696 63.9288 128.561 64.5299 128.561C65.131 128.561 65.6743 128.696 66.1599 128.966C66.6454 129.228 67.0269 129.605 67.3043 130.099C67.5894 130.592 67.732 131.166 67.732 131.821C67.732 132.476 67.5856 133.054 67.2927 133.555C67.0076 134.048 66.6184 134.43 66.1252 134.699C65.632 134.969 65.0848 135.104 64.4837 135.104ZM64.4837 134.179C64.8613 134.179 65.2158 134.091 65.5472 133.913C65.8786 133.736 66.1444 133.47 66.3448 133.116C66.5529 132.761 66.6569 132.33 66.6569 131.821C66.6569 131.312 66.5568 130.881 66.3564 130.526C66.156 130.172 65.894 129.91 65.5703 129.74C65.2466 129.563 64.896 129.474 64.5183 129.474C64.133 129.474 63.7785 129.563 63.4548 129.74C63.1388 129.91 62.8845 130.172 62.6919 130.526C62.4992 130.881 62.4029 131.312 62.4029 131.821C62.4029 132.337 62.4953 132.773 62.6803 133.127C62.873 133.482 63.1273 133.748 63.4433 133.925C63.7592 134.094 64.106 134.179 64.4837 134.179ZM72.1323 128.55C72.903 128.55 73.5272 128.785 74.005 129.255C74.4829 129.717 74.7218 130.388 74.7218 131.266V135H73.6814V131.416C73.6814 130.784 73.5234 130.303 73.2074 129.971C72.8914 129.632 72.4599 129.463 71.9127 129.463C71.3578 129.463 70.9147 129.636 70.5833 129.983C70.2596 130.33 70.0978 130.835 70.0978 131.497V135H69.0458V128.665H70.0978V129.567C70.3058 129.243 70.5871 128.993 70.9416 128.815C71.3039 128.638 71.7007 128.55 72.1323 128.55ZM76.706 135.069C76.5056 135.069 76.3361 135 76.1974 134.861C76.0587 134.723 75.9893 134.553 75.9893 134.353C75.9893 134.152 76.0587 133.983 76.1974 133.844C76.3361 133.705 76.5056 133.636 76.706 133.636C76.8987 133.636 77.0605 133.705 77.1915 133.844C77.3303 133.983 77.3996 134.152 77.3996 134.353C77.3996 134.553 77.3303 134.723 77.1915 134.861C77.0605 135 76.8987 135.069 76.706 135.069ZM76.706 130.122C76.5056 130.122 76.3361 130.052 76.1974 129.914C76.0587 129.775 75.9893 129.605 75.9893 129.405C75.9893 129.205 76.0587 129.035 76.1974 128.896C76.3361 128.758 76.5056 128.688 76.706 128.688C76.8987 128.688 77.0605 128.758 77.1915 128.896C77.3303 129.035 77.3996 129.205 77.3996 129.405C77.3996 129.605 77.3303 129.775 77.1915 129.914C77.0605 130.052 76.8987 130.122 76.706 130.122ZM84.1332 134.029L86.0984 128.665H87.2197L84.7343 135H83.509L81.0236 128.665H82.1565L84.1332 134.029ZM87.7347 127.602V126.642H89.908V135H88.8445V127.602H87.7347ZM92.1542 135.069C91.9539 135.069 91.7843 135 91.6456 134.861C91.5069 134.723 91.4375 134.553 91.4375 134.353C91.4375 134.152 91.5069 133.983 91.6456 133.844C91.7843 133.705 91.9539 133.636 92.1542 133.636C92.3469 133.636 92.5087 133.705 92.6398 133.844C92.7785 133.983 92.8478 134.152 92.8478 134.353C92.8478 134.553 92.7785 134.723 92.6398 134.861C92.5087 135 92.3469 135.069 92.1542 135.069ZM94.0034 130.734C94.0034 129.409 94.2192 128.376 94.6507 127.636C95.0823 126.889 95.8376 126.515 96.9165 126.515C97.9877 126.515 98.7391 126.889 99.1707 127.636C99.6023 128.376 99.8181 129.409 99.8181 130.734C99.8181 132.083 99.6023 133.131 99.1707 133.879C98.7391 134.626 97.9877 135 96.9165 135C95.8376 135 95.0823 134.626 94.6507 133.879C94.2192 133.131 94.0034 132.083 94.0034 130.734ZM98.7777 130.734C98.7777 130.064 98.7314 129.497 98.6389 129.035C98.5542 128.565 98.3731 128.187 98.0956 127.902C97.8259 127.617 97.4329 127.474 96.9165 127.474C96.3925 127.474 95.9917 127.617 95.7143 127.902C95.4445 128.187 95.2634 128.565 95.1709 129.035C95.0862 129.497 95.0438 130.064 95.0438 130.734C95.0438 131.428 95.0862 132.01 95.1709 132.48C95.2634 132.95 95.4445 133.328 95.7143 133.613C95.9917 133.898 96.3925 134.041 96.9165 134.041C97.4329 134.041 97.8259 133.898 98.0956 133.613C98.3731 133.328 98.5542 132.95 98.6389 132.48C98.7314 132.01 98.7777 131.428 98.7777 130.734ZM34.9421 144.798V147.492H37.8783V148.359H34.9421V151.133H38.2251V152H33.8901V143.931H38.2251V144.798H34.9421ZM42.3254 146.532H40.996V152H39.944V146.532H39.1233V145.665H39.944V145.214C39.944 144.505 40.1251 143.989 40.4874 143.665C40.8573 143.334 41.4468 143.168 42.256 143.168V144.047C41.7936 144.047 41.4661 144.139 41.2734 144.324C41.0885 144.501 40.996 144.798 40.996 145.214V145.665H42.3254V146.532ZM46.0605 146.532H44.7311V152H43.6791V146.532H42.8583V145.665H43.6791V145.214C43.6791 144.505 43.8602 143.989 44.2224 143.665C44.5923 143.334 45.1819 143.168 45.9911 143.168V144.047C45.5287 144.047 45.2012 144.139 45.0085 144.324C44.8235 144.501 44.7311 144.798 44.7311 145.214V145.665H46.0605V146.532ZM52.9976 148.59C52.9976 148.79 52.9861 149.002 52.9629 149.226H47.8997C47.9382 149.85 48.1501 150.339 48.5355 150.694C48.9285 151.041 49.4025 151.214 49.9573 151.214C50.412 151.214 50.7897 151.11 51.0902 150.902C51.3985 150.686 51.6143 150.401 51.7376 150.046H52.8705C52.7009 150.655 52.3618 151.152 51.8532 151.538C51.3445 151.915 50.7126 152.104 49.9573 152.104C49.3562 152.104 48.8168 151.969 48.3389 151.699C47.8688 151.43 47.4989 151.048 47.2292 150.555C46.9595 150.054 46.8246 149.476 46.8246 148.821C46.8246 148.166 46.9556 147.592 47.2176 147.099C47.4797 146.605 47.8457 146.228 48.3158 145.966C48.7936 145.696 49.3408 145.561 49.9573 145.561C50.5585 145.561 51.0902 145.692 51.5526 145.954C52.015 146.216 52.3695 146.578 52.6161 147.041C52.8705 147.495 52.9976 148.012 52.9976 148.59ZM51.911 148.37C51.911 147.969 51.8224 147.626 51.6451 147.341C51.4679 147.048 51.2251 146.829 50.9168 146.682C50.6163 146.528 50.281 146.451 49.9111 146.451C49.3793 146.451 48.9247 146.621 48.547 146.96C48.1771 147.299 47.9652 147.769 47.9112 148.37H51.911ZM53.9238 148.821C53.9238 148.166 54.0548 147.596 54.3168 147.11C54.5788 146.617 54.9411 146.235 55.4035 145.966C55.8736 145.696 56.4092 145.561 57.0103 145.561C57.7887 145.561 58.4283 145.75 58.9293 146.128C59.4379 146.505 59.7731 147.029 59.935 147.7H58.8021C58.6942 147.314 58.4823 147.01 58.1663 146.786C57.858 146.563 57.4727 146.451 57.0103 146.451C56.4092 146.451 55.9237 146.659 55.5537 147.075C55.1838 147.484 54.9989 148.066 54.9989 148.821C54.9989 149.584 55.1838 150.174 55.5537 150.59C55.9237 151.006 56.4092 151.214 57.0103 151.214C57.4727 151.214 57.858 151.106 58.1663 150.89C58.4746 150.674 58.6865 150.366 58.8021 149.965H59.935C59.7654 150.613 59.4263 151.133 58.9177 151.526C58.4091 151.911 57.7733 152.104 57.0103 152.104C56.4092 152.104 55.8736 151.969 55.4035 151.699C54.9411 151.43 54.5788 151.048 54.3168 150.555C54.0548 150.062 53.9238 149.484 53.9238 148.821ZM62.5524 146.532V150.266C62.5524 150.574 62.6179 150.794 62.7489 150.925C62.88 151.048 63.1073 151.11 63.431 151.11H64.2055V152H63.2576C62.6719 152 62.2326 151.865 61.9397 151.595C61.6469 151.326 61.5005 150.883 61.5005 150.266V146.532H60.6797V145.665H61.5005V144.07H62.5524V145.665H64.2055V146.532H62.5524ZM65.954 144.636C65.7537 144.636 65.5841 144.567 65.4454 144.428C65.3067 144.289 65.2373 144.12 65.2373 143.92C65.2373 143.719 65.3067 143.55 65.4454 143.411C65.5841 143.272 65.7537 143.203 65.954 143.203C66.1467 143.203 66.3085 143.272 66.4396 143.411C66.5783 143.55 66.6476 143.719 66.6476 143.92C66.6476 144.12 66.5783 144.289 66.4396 144.428C66.3085 144.567 66.1467 144.636 65.954 144.636ZM66.4627 145.665V152H65.4107V145.665H66.4627ZM70.5444 151.029L72.5096 145.665H73.631L71.1456 152H69.9202L67.4348 145.665H68.5677L70.5444 151.029ZM80.3768 148.59C80.3768 148.79 80.3652 149.002 80.3421 149.226H75.2788C75.3173 149.85 75.5293 150.339 75.9146 150.694C76.3076 151.041 76.7816 151.214 77.3365 151.214C77.7912 151.214 78.1688 151.11 78.4694 150.902C78.7776 150.686 78.9934 150.401 79.1167 150.046H80.2496C80.0801 150.655 79.741 151.152 79.2323 151.538C78.7237 151.915 78.0917 152.104 77.3365 152.104C76.7354 152.104 76.1959 151.969 75.7181 151.699C75.248 151.43 74.8781 151.048 74.6083 150.555C74.3386 150.054 74.2037 149.476 74.2037 148.821C74.2037 148.166 74.3347 147.592 74.5968 147.099C74.8588 146.605 75.2249 146.228 75.695 145.966C76.1728 145.696 76.72 145.561 77.3365 145.561C77.9376 145.561 78.4694 145.692 78.9318 145.954C79.3942 146.216 79.7487 146.578 79.9953 147.041C80.2496 147.495 80.3768 148.012 80.3768 148.59ZM79.2901 148.37C79.2901 147.969 79.2015 147.626 79.0242 147.341C78.847 147.048 78.6042 146.829 78.296 146.682C77.9954 146.528 77.6602 146.451 77.2902 146.451C76.7585 146.451 76.3038 146.621 75.9262 146.96C75.5562 147.299 75.3443 147.769 75.2904 148.37H79.2901ZM84.3155 148.809C84.3155 148.162 84.4465 147.596 84.7085 147.11C84.9705 146.617 85.3289 146.235 85.7836 145.966C86.246 145.696 86.7623 145.561 87.3326 145.561C87.8259 145.561 88.2844 145.677 88.7083 145.908C89.1321 146.131 89.4558 146.428 89.6793 146.798V143.446H90.7428V152H89.6793V150.809C89.4712 151.187 89.163 151.499 88.7545 151.746C88.3461 151.985 87.8682 152.104 87.3211 152.104C86.7585 152.104 86.246 151.965 85.7836 151.688C85.3289 151.41 84.9705 151.021 84.7085 150.52C84.4465 150.019 84.3155 149.449 84.3155 148.809ZM89.6793 148.821C89.6793 148.343 89.583 147.927 89.3903 147.573C89.1976 147.218 88.9356 146.948 88.6042 146.763C88.2806 146.571 87.9222 146.474 87.5292 146.474C87.1361 146.474 86.7778 146.567 86.4541 146.752C86.1304 146.937 85.8722 147.206 85.6796 147.561C85.4869 147.915 85.3906 148.332 85.3906 148.809C85.3906 149.295 85.4869 149.719 85.6796 150.081C85.8722 150.436 86.1304 150.709 86.4541 150.902C86.7778 151.087 87.1361 151.179 87.5292 151.179C87.9222 151.179 88.2806 151.087 88.6042 150.902C88.9356 150.709 89.1976 150.436 89.3903 150.081C89.583 149.719 89.6793 149.299 89.6793 148.821ZM92.0581 148.809C92.0581 148.162 92.1892 147.596 92.4512 147.11C92.7132 146.617 93.0716 146.235 93.5263 145.966C93.9887 145.696 94.5012 145.561 95.0637 145.561C95.6186 145.561 96.1003 145.681 96.5087 145.919C96.9172 146.158 97.2216 146.459 97.422 146.821V145.665H98.4855V152H97.422V150.821C97.2139 151.191 96.9018 151.499 96.4856 151.746C96.0772 151.985 95.5994 152.104 95.0522 152.104C94.4896 152.104 93.981 151.965 93.5263 151.688C93.0716 151.41 92.7132 151.021 92.4512 150.52C92.1892 150.019 92.0581 149.449 92.0581 148.809ZM97.422 148.821C97.422 148.343 97.3257 147.927 97.133 147.573C96.9403 147.218 96.6783 146.948 96.3469 146.763C96.0232 146.571 95.6649 146.474 95.2718 146.474C94.8788 146.474 94.5204 146.567 94.1967 146.752C93.8731 146.937 93.6149 147.206 93.4222 147.561C93.2296 147.915 93.1332 148.332 93.1332 148.809C93.1332 149.295 93.2296 149.719 93.4222 150.081C93.6149 150.436 93.8731 150.709 94.1967 150.902C94.5204 151.087 94.8788 151.179 95.2718 151.179C95.6649 151.179 96.0232 151.087 96.3469 150.902C96.6783 150.709 96.9403 150.436 97.133 150.081C97.3257 149.719 97.422 149.299 97.422 148.821ZM101.477 146.532V150.266C101.477 150.574 101.543 150.794 101.674 150.925C101.805 151.048 102.032 151.11 102.356 151.11H103.13V152H102.182C101.596 152 101.157 151.865 100.864 151.595C100.571 151.326 100.425 150.883 100.425 150.266V146.532H99.6043V145.665H100.425V144.07H101.477V145.665H103.13V146.532H101.477ZM110.115 148.59C110.115 148.79 110.104 149.002 110.081 149.226H105.017C105.056 149.85 105.268 150.339 105.653 150.694C106.046 151.041 106.52 151.214 107.075 151.214C107.53 151.214 107.907 151.11 108.208 150.902C108.516 150.686 108.732 150.401 108.855 150.046H109.988C109.819 150.655 109.48 151.152 108.971 151.538C108.462 151.915 107.83 152.104 107.075 152.104C106.474 152.104 105.934 151.969 105.457 151.699C104.987 151.43 104.617 151.048 104.347 150.555C104.077 150.054 103.942 149.476 103.942 148.821C103.942 148.166 104.073 147.592 104.335 147.099C104.597 146.605 104.963 146.228 105.434 145.966C105.911 145.696 106.459 145.561 107.075 145.561C107.676 145.561 108.208 145.692 108.67 145.954C109.133 146.216 109.487 146.578 109.734 147.041C109.988 147.495 110.115 148.012 110.115 148.59ZM109.029 148.37C109.029 147.969 108.94 147.626 108.763 147.341C108.586 147.048 108.343 146.829 108.035 146.682C107.734 146.528 107.399 146.451 107.029 146.451C106.497 146.451 106.042 146.621 105.665 146.96C105.295 147.299 105.083 147.769 105.029 148.37H109.029ZM111.77 152.069C111.569 152.069 111.4 152 111.261 151.861C111.122 151.723 111.053 151.553 111.053 151.353C111.053 151.152 111.122 150.983 111.261 150.844C111.4 150.705 111.569 150.636 111.77 150.636C111.962 150.636 112.124 150.705 112.255 150.844C112.394 150.983 112.463 151.152 112.463 151.353C112.463 151.553 112.394 151.723 112.255 151.861C112.124 152 111.962 152.069 111.77 152.069ZM111.77 147.122C111.569 147.122 111.4 147.052 111.261 146.914C111.122 146.775 111.053 146.605 111.053 146.405C111.053 146.205 111.122 146.035 111.261 145.896C111.4 145.758 111.569 145.688 111.77 145.688C111.962 145.688 112.124 145.758 112.255 145.896C112.394 146.035 112.463 146.205 112.463 146.405C112.463 146.605 112.394 146.775 112.255 146.914C112.124 147.052 111.962 147.122 111.77 147.122ZM119.567 141.203V142.07H118.469V153.272H119.567V154.15H117.486V141.203H119.567ZM122.709 143.943V152H121.658V143.943H122.709ZM127.52 145.55C128.29 145.55 128.914 145.785 129.392 146.255C129.87 146.717 130.109 147.388 130.109 148.266V152H129.069V148.416C129.069 147.784 128.911 147.303 128.595 146.971C128.279 146.632 127.847 146.463 127.3 146.463C126.745 146.463 126.302 146.636 125.97 146.983C125.647 147.33 125.485 147.835 125.485 148.497V152H124.433V145.665H125.485V146.567C125.693 146.243 125.974 145.993 126.329 145.815C126.691 145.638 127.088 145.55 127.52 145.55ZM134.001 152.104C133.515 152.104 133.08 152.023 132.694 151.861C132.309 151.692 132.005 151.461 131.781 151.168C131.558 150.867 131.434 150.524 131.411 150.139H132.498C132.529 150.455 132.675 150.713 132.937 150.913C133.207 151.114 133.557 151.214 133.989 151.214C134.39 151.214 134.706 151.125 134.937 150.948C135.168 150.771 135.284 150.547 135.284 150.278C135.284 150 135.16 149.796 134.914 149.665C134.667 149.526 134.286 149.391 133.769 149.26C133.299 149.137 132.914 149.014 132.613 148.89C132.321 148.759 132.066 148.571 131.85 148.324C131.642 148.07 131.538 147.738 131.538 147.33C131.538 147.006 131.635 146.709 131.827 146.44C132.02 146.17 132.294 145.958 132.648 145.804C133.003 145.642 133.407 145.561 133.862 145.561C134.563 145.561 135.13 145.738 135.561 146.093C135.993 146.447 136.224 146.933 136.255 147.549H135.203C135.18 147.218 135.045 146.952 134.798 146.752C134.559 146.551 134.236 146.451 133.827 146.451C133.45 146.451 133.149 146.532 132.926 146.694C132.702 146.856 132.59 147.068 132.59 147.33C132.59 147.538 132.656 147.711 132.787 147.85C132.926 147.981 133.095 148.089 133.295 148.174C133.504 148.251 133.789 148.339 134.151 148.44C134.606 148.563 134.976 148.686 135.261 148.809C135.546 148.925 135.789 149.102 135.989 149.341C136.197 149.58 136.305 149.892 136.313 150.278C136.313 150.624 136.216 150.936 136.024 151.214C135.831 151.491 135.557 151.711 135.203 151.873C134.856 152.027 134.455 152.104 134.001 152.104ZM143.508 148.59C143.508 148.79 143.497 149.002 143.474 149.226H138.41C138.449 149.85 138.661 150.339 139.046 150.694C139.439 151.041 139.913 151.214 140.468 151.214C140.923 151.214 141.3 151.11 141.601 150.902C141.909 150.686 142.125 150.401 142.248 150.046H143.381C143.212 150.655 142.872 151.152 142.364 151.538C141.855 151.915 141.223 152.104 140.468 152.104C139.867 152.104 139.327 151.969 138.85 151.699C138.379 151.43 138.01 151.048 137.74 150.555C137.47 150.054 137.335 149.476 137.335 148.821C137.335 148.166 137.466 147.592 137.728 147.099C137.99 146.605 138.356 146.228 138.826 145.966C139.304 145.696 139.851 145.561 140.468 145.561C141.069 145.561 141.601 145.692 142.063 145.954C142.526 146.216 142.88 146.578 143.127 147.041C143.381 147.495 143.508 148.012 143.508 148.59ZM142.422 148.37C142.422 147.969 142.333 147.626 142.156 147.341C141.979 147.048 141.736 146.829 141.427 146.682C141.127 146.528 140.792 146.451 140.422 146.451C139.89 146.451 139.435 146.621 139.058 146.96C138.688 147.299 138.476 147.769 138.422 148.37H142.422ZM145.879 146.694C146.064 146.332 146.326 146.05 146.666 145.85C147.012 145.65 147.432 145.55 147.926 145.55V146.636H147.648C146.469 146.636 145.879 147.276 145.879 148.555V152H144.827V145.665H145.879V146.694ZM150.354 146.532V150.266C150.354 150.574 150.419 150.794 150.55 150.925C150.681 151.048 150.909 151.11 151.232 151.11H152.007V152H151.059C150.473 152 150.034 151.865 149.741 151.595C149.448 151.326 149.302 150.883 149.302 150.266V146.532H148.481V145.665H149.302V144.07H150.354V145.665H152.007V146.532H150.354ZM155.832 148.809C155.832 148.162 155.963 147.596 156.225 147.11C156.487 146.617 156.845 146.235 157.3 145.966C157.762 145.696 158.278 145.561 158.849 145.561C159.342 145.561 159.8 145.677 160.224 145.908C160.648 146.131 160.972 146.428 161.195 146.798V143.446H162.259V152H161.195V150.809C160.987 151.187 160.679 151.499 160.271 151.746C159.862 151.985 159.384 152.104 158.837 152.104C158.275 152.104 157.762 151.965 157.3 151.688C156.845 151.41 156.487 151.021 156.225 150.52C155.963 150.019 155.832 149.449 155.832 148.809ZM161.195 148.821C161.195 148.343 161.099 147.927 160.906 147.573C160.714 147.218 160.452 146.948 160.12 146.763C159.797 146.571 159.438 146.474 159.045 146.474C158.652 146.474 158.294 146.567 157.97 146.752C157.646 146.937 157.388 147.206 157.196 147.561C157.003 147.915 156.907 148.332 156.907 148.809C156.907 149.295 157.003 149.719 157.196 150.081C157.388 150.436 157.646 150.709 157.97 150.902C158.294 151.087 158.652 151.179 159.045 151.179C159.438 151.179 159.797 151.087 160.12 150.902C160.452 150.709 160.714 150.436 160.906 150.081C161.099 149.719 161.195 149.299 161.195 148.821ZM163.574 148.809C163.574 148.162 163.705 147.596 163.967 147.11C164.229 146.617 164.588 146.235 165.042 145.966C165.505 145.696 166.017 145.561 166.58 145.561C167.135 145.561 167.616 145.681 168.025 145.919C168.433 146.158 168.738 146.459 168.938 146.821V145.665H170.002V152H168.938V150.821C168.73 151.191 168.418 151.499 168.002 151.746C167.593 151.985 167.115 152.104 166.568 152.104C166.006 152.104 165.497 151.965 165.042 151.688C164.588 151.41 164.229 151.021 163.967 150.52C163.705 150.019 163.574 149.449 163.574 148.809ZM168.938 148.821C168.938 148.343 168.842 147.927 168.649 147.573C168.456 147.218 168.194 146.948 167.863 146.763C167.539 146.571 167.181 146.474 166.788 146.474C166.395 146.474 166.036 146.567 165.713 146.752C165.389 146.937 165.131 147.206 164.938 147.561C164.746 147.915 164.649 148.332 164.649 148.809C164.649 149.295 164.746 149.719 164.938 150.081C165.131 150.436 165.389 150.709 165.713 150.902C166.036 151.087 166.395 151.179 166.788 151.179C167.181 151.179 167.539 151.087 167.863 150.902C168.194 150.709 168.456 150.436 168.649 150.081C168.842 149.719 168.938 149.299 168.938 148.821ZM172.993 146.532V150.266C172.993 150.574 173.059 150.794 173.19 150.925C173.321 151.048 173.548 151.11 173.872 151.11H174.646V152H173.698C173.112 152 172.673 151.865 172.38 151.595C172.088 151.326 171.941 150.883 171.941 150.266V146.532H171.12V145.665H171.941V144.07H172.993V145.665H174.646V146.532H172.993ZM181.631 148.59C181.631 148.79 181.62 149.002 181.597 149.226H176.533C176.572 149.85 176.784 150.339 177.169 150.694C177.562 151.041 178.036 151.214 178.591 151.214C179.046 151.214 179.423 151.11 179.724 150.902C180.032 150.686 180.248 150.401 180.371 150.046H181.504C181.335 150.655 180.996 151.152 180.487 151.538C179.978 151.915 179.346 152.104 178.591 152.104C177.99 152.104 177.45 151.969 176.973 151.699C176.503 151.43 176.133 151.048 175.863 150.555C175.593 150.054 175.458 149.476 175.458 148.821C175.458 148.166 175.589 147.592 175.851 147.099C176.113 146.605 176.479 146.228 176.95 145.966C177.427 145.696 177.975 145.561 178.591 145.561C179.192 145.561 179.724 145.692 180.186 145.954C180.649 146.216 181.003 146.578 181.25 147.041C181.504 147.495 181.631 148.012 181.631 148.59ZM180.545 148.37C180.545 147.969 180.456 147.626 180.279 147.341C180.102 147.048 179.859 146.829 179.551 146.682C179.25 146.528 178.915 146.451 178.545 146.451C178.013 146.451 177.558 146.621 177.181 146.96C176.811 147.299 176.599 147.769 176.545 148.37H180.545ZM185.413 154.15H183.332V153.272H184.43V142.07H183.332V141.203H185.413V154.15ZM40.225 170H39.173L34.9421 163.584V170H33.8901V161.931H34.9421L39.173 168.335V161.931H40.225V170ZM47.7289 166.59C47.7289 166.79 47.7173 167.002 47.6942 167.226H42.6309C42.6695 167.85 42.8814 168.339 43.2667 168.694C43.6598 169.041 44.1337 169.214 44.6886 169.214C45.1433 169.214 45.5209 169.11 45.8215 168.902C46.1298 168.686 46.3455 168.401 46.4688 168.046H47.6017C47.4322 168.655 47.0931 169.152 46.5844 169.538C46.0758 169.915 45.4439 170.104 44.6886 170.104C44.0875 170.104 43.548 169.969 43.0702 169.699C42.6001 169.43 42.2302 169.048 41.9604 168.555C41.6907 168.054 41.5558 167.476 41.5558 166.821C41.5558 166.166 41.6869 165.592 41.9489 165.099C42.2109 164.605 42.577 164.228 43.0471 163.966C43.5249 163.696 44.0721 163.561 44.6886 163.561C45.2897 163.561 45.8215 163.692 46.2839 163.954C46.7463 164.216 47.1008 164.578 47.3474 165.041C47.6017 165.495 47.7289 166.012 47.7289 166.59ZM46.6422 166.37C46.6422 165.969 46.5536 165.626 46.3764 165.341C46.1991 165.048 45.9564 164.829 45.6481 164.682C45.3475 164.528 45.0123 164.451 44.6424 164.451C44.1106 164.451 43.6559 164.621 43.2783 164.96C42.9084 165.299 42.6964 165.769 42.6425 166.37H46.6422ZM52.3542 170L50.8514 167.642L49.4064 170H48.3082L50.3544 166.856L48.3082 163.665H49.4989L51.0017 166.012L52.4352 163.665H53.5334L51.4988 166.798L53.5449 170H52.3542ZM55.7935 164.532V168.266C55.7935 168.574 55.859 168.794 55.99 168.925C56.1211 169.048 56.3484 169.11 56.6721 169.11H57.4466V170H56.4987C55.913 170 55.4737 169.865 55.1808 169.595C54.888 169.326 54.7416 168.883 54.7416 168.266V164.532H53.9208V163.665H54.7416V162.07H55.7935V163.665H57.4466V164.532H55.7935ZM62.7163 164.694C62.9013 164.332 63.1633 164.05 63.5024 163.85C63.8492 163.65 64.2692 163.55 64.7625 163.55V164.636H64.485C63.3059 164.636 62.7163 165.276 62.7163 166.555V170H61.6644V163.665H62.7163V164.694ZM71.6874 166.59C71.6874 166.79 71.6759 167.002 71.6528 167.226H66.5895C66.628 167.85 66.8399 168.339 67.2253 168.694C67.6183 169.041 68.0923 169.214 68.6472 169.214C69.1019 169.214 69.4795 169.11 69.78 168.902C70.0883 168.686 70.3041 168.401 70.4274 168.046H71.5603C71.3907 168.655 71.0516 169.152 70.543 169.538C70.0344 169.915 69.4024 170.104 68.6472 170.104C68.046 170.104 67.5066 169.969 67.0288 169.699C66.5587 169.43 66.1887 169.048 65.919 168.555C65.6493 168.054 65.5144 167.476 65.5144 166.821C65.5144 166.166 65.6454 165.592 65.9074 165.099C66.1695 164.605 66.5355 164.228 67.0056 163.966C67.4835 163.696 68.0306 163.561 68.6472 163.561C69.2483 163.561 69.78 163.692 70.2424 163.954C70.7048 164.216 71.0593 164.578 71.306 165.041C71.5603 165.495 71.6874 166.012 71.6874 166.59ZM70.6008 166.37C70.6008 165.969 70.5122 165.626 70.3349 165.341C70.1577 165.048 69.9149 164.829 69.6066 164.682C69.3061 164.528 68.9708 164.451 68.6009 164.451C68.0692 164.451 67.6145 164.621 67.2368 164.96C66.8669 165.299 66.655 165.769 66.601 166.37H70.6008ZM75.3649 169.029L77.3301 163.665H78.4514L75.966 170H74.7406L72.2552 163.665H73.3881L75.3649 169.029ZM79.9605 162.636C79.7601 162.636 79.5906 162.567 79.4519 162.428C79.3132 162.289 79.2438 162.12 79.2438 161.92C79.2438 161.719 79.3132 161.55 79.4519 161.411C79.5906 161.272 79.7601 161.203 79.9605 161.203C80.1532 161.203 80.315 161.272 80.446 161.411C80.5848 161.55 80.6541 161.719 80.6541 161.92C80.6541 162.12 80.5848 162.289 80.446 162.428C80.315 162.567 80.1532 162.636 79.9605 162.636ZM80.4692 163.665V170H79.4172V163.665H80.4692ZM87.9727 166.59C87.9727 166.79 87.9611 167.002 87.938 167.226H82.8747C82.9133 167.85 83.1252 168.339 83.5105 168.694C83.9036 169.041 84.3775 169.214 84.9324 169.214C85.3871 169.214 85.7647 169.11 86.0653 168.902C86.3735 168.686 86.5893 168.401 86.7126 168.046H87.8455C87.676 168.655 87.3369 169.152 86.8282 169.538C86.3196 169.915 85.6877 170.104 84.9324 170.104C84.3313 170.104 83.7918 169.969 83.314 169.699C82.8439 169.43 82.474 169.048 82.2042 168.555C81.9345 168.054 81.7996 167.476 81.7996 166.821C81.7996 166.166 81.9307 165.592 82.1927 165.099C82.4547 164.605 82.8208 164.228 83.2909 163.966C83.7687 163.696 84.3159 163.561 84.9324 163.561C85.5335 163.561 86.0653 163.692 86.5277 163.954C86.9901 164.216 87.3446 164.578 87.5912 165.041C87.8455 165.495 87.9727 166.012 87.9727 166.59ZM86.886 166.37C86.886 165.969 86.7974 165.626 86.6202 165.341C86.4429 165.048 86.2001 164.829 85.8919 164.682C85.5913 164.528 85.2561 164.451 84.8862 164.451C84.3544 164.451 83.8997 164.621 83.5221 164.96C83.1522 165.299 82.9402 165.769 82.8863 166.37H86.886ZM97.7307 163.665L95.7539 170H94.6673L93.1414 164.971L91.6154 170H90.5288L88.5405 163.665H89.6156L91.0721 168.983L92.6443 163.665H93.7194L95.2568 168.994L96.6903 163.665H97.7307ZM101.325 166.809C101.325 166.162 101.456 165.596 101.718 165.11C101.98 164.617 102.338 164.235 102.793 163.966C103.255 163.696 103.772 163.561 104.342 163.561C104.835 163.561 105.294 163.677 105.718 163.908C106.142 164.131 106.465 164.428 106.689 164.798V161.446H107.752V170H106.689V168.809C106.481 169.187 106.172 169.499 105.764 169.746C105.355 169.985 104.878 170.104 104.33 170.104C103.768 170.104 103.255 169.965 102.793 169.688C102.338 169.41 101.98 169.021 101.718 168.52C101.456 168.019 101.325 167.449 101.325 166.809ZM106.689 166.821C106.689 166.343 106.592 165.927 106.4 165.573C106.207 165.218 105.945 164.948 105.614 164.763C105.29 164.571 104.932 164.474 104.539 164.474C104.145 164.474 103.787 164.567 103.463 164.752C103.14 164.937 102.882 165.206 102.689 165.561C102.496 165.915 102.4 166.332 102.4 166.809C102.4 167.295 102.496 167.719 102.689 168.081C102.882 168.436 103.14 168.709 103.463 168.902C103.787 169.087 104.145 169.179 104.539 169.179C104.932 169.179 105.29 169.087 105.614 168.902C105.945 168.709 106.207 168.436 106.4 168.081C106.592 167.719 106.689 167.299 106.689 166.821ZM109.068 166.809C109.068 166.162 109.199 165.596 109.461 165.11C109.723 164.617 110.081 164.235 110.536 163.966C110.998 163.696 111.511 163.561 112.073 163.561C112.628 163.561 113.11 163.681 113.518 163.919C113.927 164.158 114.231 164.459 114.431 164.821V163.665H115.495V170H114.431V168.821C114.223 169.191 113.911 169.499 113.495 169.746C113.087 169.985 112.609 170.104 112.062 170.104C111.499 170.104 110.99 169.965 110.536 169.688C110.081 169.41 109.723 169.021 109.461 168.52C109.199 168.019 109.068 167.449 109.068 166.809ZM114.431 166.821C114.431 166.343 114.335 165.927 114.142 165.573C113.95 165.218 113.688 164.948 113.356 164.763C113.033 164.571 112.674 164.474 112.281 164.474C111.888 164.474 111.53 164.567 111.206 164.752C110.882 164.937 110.624 165.206 110.432 165.561C110.239 165.915 110.143 166.332 110.143 166.809C110.143 167.295 110.239 167.719 110.432 168.081C110.624 168.436 110.882 168.709 111.206 168.902C111.53 169.087 111.888 169.179 112.281 169.179C112.674 169.179 113.033 169.087 113.356 168.902C113.688 168.709 113.95 168.436 114.142 168.081C114.335 167.719 114.431 167.299 114.431 166.821ZM118.486 164.532V168.266C118.486 168.574 118.552 168.794 118.683 168.925C118.814 169.048 119.041 169.11 119.365 169.11H120.139V170H119.192C118.606 170 118.167 169.865 117.874 169.595C117.581 169.326 117.434 168.883 117.434 168.266V164.532H116.614V163.665H117.434V162.07H118.486V163.665H120.139V164.532H118.486ZM127.125 166.59C127.125 166.79 127.113 167.002 127.09 167.226H122.027C122.065 167.85 122.277 168.339 122.663 168.694C123.056 169.041 123.53 169.214 124.084 169.214C124.539 169.214 124.917 169.11 125.217 168.902C125.526 168.686 125.741 168.401 125.865 168.046H126.998C126.828 168.655 126.489 169.152 125.98 169.538C125.472 169.915 124.84 170.104 124.084 170.104C123.483 170.104 122.944 169.969 122.466 169.699C121.996 169.43 121.626 169.048 121.356 168.555C121.087 168.054 120.952 167.476 120.952 166.821C120.952 166.166 121.083 165.592 121.345 165.099C121.607 164.605 121.973 164.228 122.443 163.966C122.921 163.696 123.468 163.561 124.084 163.561C124.686 163.561 125.217 163.692 125.68 163.954C126.142 164.216 126.497 164.578 126.743 165.041C126.998 165.495 127.125 166.012 127.125 166.59ZM126.038 166.37C126.038 165.969 125.949 165.626 125.772 165.341C125.595 165.048 125.352 164.829 125.044 164.682C124.743 164.528 124.408 164.451 124.038 164.451C123.506 164.451 123.052 164.621 122.674 164.96C122.304 165.299 122.092 165.769 122.038 166.37H126.038ZM128.779 170.069C128.579 170.069 128.409 170 128.27 169.861C128.132 169.723 128.062 169.553 128.062 169.353C128.062 169.152 128.132 168.983 128.27 168.844C128.409 168.705 128.579 168.636 128.779 168.636C128.972 168.636 129.134 168.705 129.265 168.844C129.403 168.983 129.473 169.152 129.473 169.353C129.473 169.553 129.403 169.723 129.265 169.861C129.134 170 128.972 170.069 128.779 170.069ZM128.779 165.122C128.579 165.122 128.409 165.052 128.27 164.914C128.132 164.775 128.062 164.605 128.062 164.405C128.062 164.205 128.132 164.035 128.27 163.896C128.409 163.758 128.579 163.688 128.779 163.688C128.972 163.688 129.134 163.758 129.265 163.896C129.403 164.035 129.473 164.205 129.473 164.405C129.473 164.605 129.403 164.775 129.265 164.914C129.134 165.052 128.972 165.122 128.779 165.122ZM136.576 159.203V160.07H135.478V171.272H136.576V172.15H134.495V159.203H136.576ZM139.719 161.943V170H138.667V161.943H139.719ZM144.529 163.55C145.3 163.55 145.924 163.785 146.402 164.255C146.879 164.717 147.118 165.388 147.118 166.266V170H146.078V166.416C146.078 165.784 145.92 165.303 145.604 164.971C145.288 164.632 144.856 164.463 144.309 164.463C143.754 164.463 143.311 164.636 142.98 164.983C142.656 165.33 142.494 165.835 142.494 166.497V170H141.442V163.665H142.494V164.567C142.702 164.243 142.984 163.993 143.338 163.815C143.7 163.638 144.097 163.55 144.529 163.55ZM151.01 170.104C150.524 170.104 150.089 170.023 149.704 169.861C149.318 169.692 149.014 169.461 148.79 169.168C148.567 168.867 148.444 168.524 148.421 168.139H149.507C149.538 168.455 149.684 168.713 149.946 168.913C150.216 169.114 150.567 169.214 150.998 169.214C151.399 169.214 151.715 169.125 151.946 168.948C152.178 168.771 152.293 168.547 152.293 168.278C152.293 168 152.17 167.796 151.923 167.665C151.677 167.526 151.295 167.391 150.779 167.26C150.309 167.137 149.923 167.014 149.623 166.89C149.33 166.759 149.076 166.571 148.86 166.324C148.652 166.07 148.548 165.738 148.548 165.33C148.548 165.006 148.644 164.709 148.837 164.44C149.029 164.17 149.303 163.958 149.657 163.804C150.012 163.642 150.417 163.561 150.871 163.561C151.573 163.561 152.139 163.738 152.571 164.093C153.002 164.447 153.233 164.933 153.264 165.549H152.212C152.189 165.218 152.054 164.952 151.808 164.752C151.569 164.551 151.245 164.451 150.837 164.451C150.459 164.451 150.158 164.532 149.935 164.694C149.711 164.856 149.6 165.068 149.6 165.33C149.6 165.538 149.665 165.711 149.796 165.85C149.935 165.981 150.104 166.089 150.305 166.174C150.513 166.251 150.798 166.339 151.16 166.44C151.615 166.563 151.985 166.686 152.27 166.809C152.555 166.925 152.798 167.102 152.998 167.341C153.206 167.58 153.314 167.892 153.322 168.278C153.322 168.624 153.226 168.936 153.033 169.214C152.84 169.491 152.567 169.711 152.212 169.873C151.865 170.027 151.465 170.104 151.01 170.104ZM160.518 166.59C160.518 166.79 160.506 167.002 160.483 167.226H155.42C155.458 167.85 155.67 168.339 156.055 168.694C156.449 169.041 156.922 169.214 157.477 169.214C157.932 169.214 158.31 169.11 158.61 168.902C158.919 168.686 159.134 168.401 159.258 168.046H160.39C160.221 168.655 159.882 169.152 159.373 169.538C158.865 169.915 158.233 170.104 157.477 170.104C156.876 170.104 156.337 169.969 155.859 169.699C155.389 169.43 155.019 169.048 154.749 168.555C154.479 168.054 154.345 167.476 154.345 166.821C154.345 166.166 154.476 165.592 154.738 165.099C155 164.605 155.366 164.228 155.836 163.966C156.314 163.696 156.861 163.561 157.477 163.561C158.078 163.561 158.61 163.692 159.073 163.954C159.535 164.216 159.89 164.578 160.136 165.041C160.39 165.495 160.518 166.012 160.518 166.59ZM159.431 166.37C159.431 165.969 159.342 165.626 159.165 165.341C158.988 165.048 158.745 164.829 158.437 164.682C158.136 164.528 157.801 164.451 157.431 164.451C156.899 164.451 156.445 164.621 156.067 164.96C155.697 165.299 155.485 165.769 155.431 166.37H159.431ZM162.889 164.694C163.074 164.332 163.336 164.05 163.675 163.85C164.022 163.65 164.442 163.55 164.935 163.55V164.636H164.657C163.478 164.636 162.889 165.276 162.889 166.555V170H161.837V163.665H162.889V164.694ZM167.363 164.532V168.266C167.363 168.574 167.429 168.794 167.56 168.925C167.691 169.048 167.918 169.11 168.242 169.11H169.016V170H168.068C167.483 170 167.043 169.865 166.75 169.595C166.458 169.326 166.311 168.883 166.311 168.266V164.532H165.49V163.665H166.311V162.07H167.363V163.665H169.016V164.532H167.363ZM172.841 166.809C172.841 166.162 172.972 165.596 173.234 165.11C173.496 164.617 173.854 164.235 174.309 163.966C174.771 163.696 175.288 163.561 175.858 163.561C176.351 163.561 176.81 163.677 177.234 163.908C177.658 164.131 177.981 164.428 178.205 164.798V161.446H179.268V170H178.205V168.809C177.997 169.187 177.688 169.499 177.28 169.746C176.871 169.985 176.394 170.104 175.846 170.104C175.284 170.104 174.771 169.965 174.309 169.688C173.854 169.41 173.496 169.021 173.234 168.52C172.972 168.019 172.841 167.449 172.841 166.809ZM178.205 166.821C178.205 166.343 178.108 165.927 177.916 165.573C177.723 165.218 177.461 164.948 177.13 164.763C176.806 164.571 176.448 164.474 176.055 164.474C175.662 164.474 175.303 164.567 174.979 164.752C174.656 164.937 174.398 165.206 174.205 165.561C174.012 165.915 173.916 166.332 173.916 166.809C173.916 167.295 174.012 167.719 174.205 168.081C174.398 168.436 174.656 168.709 174.979 168.902C175.303 169.087 175.662 169.179 176.055 169.179C176.448 169.179 176.806 169.087 177.13 168.902C177.461 168.709 177.723 168.436 177.916 168.081C178.108 167.719 178.205 167.299 178.205 166.821ZM180.584 166.809C180.584 166.162 180.715 165.596 180.977 165.11C181.239 164.617 181.597 164.235 182.052 163.966C182.514 163.696 183.027 163.561 183.589 163.561C184.144 163.561 184.626 163.681 185.034 163.919C185.443 164.158 185.747 164.459 185.947 164.821V163.665H187.011V170H185.947V168.821C185.739 169.191 185.427 169.499 185.011 169.746C184.603 169.985 184.125 170.104 183.578 170.104C183.015 170.104 182.506 169.965 182.052 169.688C181.597 169.41 181.239 169.021 180.977 168.52C180.715 168.019 180.584 167.449 180.584 166.809ZM185.947 166.821C185.947 166.343 185.851 165.927 185.658 165.573C185.466 165.218 185.204 164.948 184.872 164.763C184.549 164.571 184.19 164.474 183.797 164.474C183.404 164.474 183.046 164.567 182.722 164.752C182.398 164.937 182.14 165.206 181.948 165.561C181.755 165.915 181.659 166.332 181.659 166.809C181.659 167.295 181.755 167.719 181.948 168.081C182.14 168.436 182.398 168.709 182.722 168.902C183.046 169.087 183.404 169.179 183.797 169.179C184.19 169.179 184.549 169.087 184.872 168.902C185.204 168.709 185.466 168.436 185.658 168.081C185.851 167.719 185.947 167.299 185.947 166.821ZM190.002 164.532V168.266C190.002 168.574 190.068 168.794 190.199 168.925C190.33 169.048 190.557 169.11 190.881 169.11H191.655V170H190.708C190.122 170 189.683 169.865 189.39 169.595C189.097 169.326 188.95 168.883 188.95 168.266V164.532H188.13V163.665H188.95V162.07H190.002V163.665H191.655V164.532H190.002ZM198.641 166.59C198.641 166.79 198.629 167.002 198.606 167.226H193.543C193.581 167.85 193.793 168.339 194.179 168.694C194.572 169.041 195.046 169.214 195.6 169.214C196.055 169.214 196.433 169.11 196.733 168.902C197.042 168.686 197.257 168.401 197.381 168.046H198.514C198.344 168.655 198.005 169.152 197.496 169.538C196.988 169.915 196.356 170.104 195.6 170.104C194.999 170.104 194.46 169.969 193.982 169.699C193.512 169.43 193.142 169.048 192.872 168.555C192.603 168.054 192.468 167.476 192.468 166.821C192.468 166.166 192.599 165.592 192.861 165.099C193.123 164.605 193.489 164.228 193.959 163.966C194.437 163.696 194.984 163.561 195.6 163.561C196.202 163.561 196.733 163.692 197.196 163.954C197.658 164.216 198.013 164.578 198.259 165.041C198.514 165.495 198.641 166.012 198.641 166.59ZM197.554 166.37C197.554 165.969 197.465 165.626 197.288 165.341C197.111 165.048 196.868 164.829 196.56 164.682C196.259 164.528 195.924 164.451 195.554 164.451C195.022 164.451 194.568 164.621 194.19 164.96C193.82 165.299 193.608 165.769 193.554 166.37H197.554ZM201.047 168.543L199.752 171.653H199.047L199.891 168.543H201.047ZM206.478 164.532V168.266C206.478 168.574 206.543 168.794 206.674 168.925C206.805 169.048 207.033 169.11 207.357 169.11H208.131V170H207.183C206.597 170 206.158 169.865 205.865 169.595C205.572 169.326 205.426 168.883 205.426 168.266V164.532H204.605V163.665H205.426V162.07H206.478V163.665H208.131V164.532H206.478ZM214.793 163.665L210.978 172.982H209.891L211.14 169.931L208.585 163.665H209.752L211.741 168.798L213.706 163.665H214.793ZM216.833 164.833C217.041 164.47 217.349 164.17 217.757 163.931C218.174 163.684 218.655 163.561 219.202 163.561C219.765 163.561 220.274 163.696 220.728 163.966C221.191 164.235 221.553 164.617 221.815 165.11C222.077 165.596 222.208 166.162 222.208 166.809C222.208 167.449 222.077 168.019 221.815 168.52C221.553 169.021 221.191 169.41 220.728 169.688C220.274 169.965 219.765 170.104 219.202 170.104C218.663 170.104 218.185 169.985 217.769 169.746C217.361 169.499 217.048 169.195 216.833 168.832V173.006H215.781V163.665H216.833V164.833ZM221.133 166.809C221.133 166.332 221.037 165.915 220.844 165.561C220.651 165.206 220.389 164.937 220.058 164.752C219.734 164.567 219.376 164.474 218.983 164.474C218.597 164.474 218.239 164.571 217.908 164.763C217.584 164.948 217.322 165.222 217.122 165.584C216.929 165.939 216.833 166.351 216.833 166.821C216.833 167.299 216.929 167.719 217.122 168.081C217.322 168.436 217.584 168.709 217.908 168.902C218.239 169.087 218.597 169.179 218.983 169.179C219.376 169.179 219.734 169.087 220.058 168.902C220.389 168.709 220.651 168.436 220.844 168.081C221.037 167.719 221.133 167.295 221.133 166.809ZM224.067 162.636C223.866 162.636 223.697 162.567 223.558 162.428C223.419 162.289 223.35 162.12 223.35 161.92C223.35 161.719 223.419 161.55 223.558 161.411C223.697 161.272 223.866 161.203 224.067 161.203C224.259 161.203 224.421 161.272 224.552 161.411C224.691 161.55 224.76 161.719 224.76 161.92C224.76 162.12 224.691 162.289 224.552 162.428C224.421 162.567 224.259 162.636 224.067 162.636ZM224.575 163.665V170H223.523V163.665H224.575ZM225.906 166.821C225.906 166.166 226.037 165.596 226.299 165.11C226.561 164.617 226.923 164.235 227.385 163.966C227.856 163.696 228.391 163.561 228.992 163.561C229.771 163.561 230.41 163.75 230.911 164.128C231.42 164.505 231.755 165.029 231.917 165.7H230.784C230.676 165.314 230.464 165.01 230.148 164.786C229.84 164.563 229.455 164.451 228.992 164.451C228.391 164.451 227.906 164.659 227.536 165.075C227.166 165.484 226.981 166.066 226.981 166.821C226.981 167.584 227.166 168.174 227.536 168.59C227.906 169.006 228.391 169.214 228.992 169.214C229.455 169.214 229.84 169.106 230.148 168.89C230.457 168.674 230.669 168.366 230.784 167.965H231.917C231.747 168.613 231.408 169.133 230.9 169.526C230.391 169.911 229.755 170.104 228.992 170.104C228.391 170.104 227.856 169.969 227.385 169.699C226.923 169.43 226.561 169.048 226.299 168.555C226.037 168.062 225.906 167.484 225.906 166.821ZM232.858 166.809C232.858 166.162 232.989 165.596 233.251 165.11C233.513 164.617 233.872 164.235 234.326 163.966C234.789 163.696 235.301 163.561 235.864 163.561C236.419 163.561 236.9 163.681 237.309 163.919C237.717 164.158 238.022 164.459 238.222 164.821V163.665H239.286V170H238.222V168.821C238.014 169.191 237.702 169.499 237.286 169.746C236.877 169.985 236.399 170.104 235.852 170.104C235.29 170.104 234.781 169.965 234.326 169.688C233.872 169.41 233.513 169.021 233.251 168.52C232.989 168.019 232.858 167.449 232.858 166.809ZM238.222 166.821C238.222 166.343 238.126 165.927 237.933 165.573C237.74 165.218 237.478 164.948 237.147 164.763C236.823 164.571 236.465 164.474 236.072 164.474C235.679 164.474 235.321 164.567 234.997 164.752C234.673 164.937 234.415 165.206 234.222 165.561C234.03 165.915 233.933 166.332 233.933 166.809C233.933 167.295 234.03 167.719 234.222 168.081C234.415 168.436 234.673 168.709 234.997 168.902C235.321 169.087 235.679 169.179 236.072 169.179C236.465 169.179 236.823 169.087 237.147 168.902C237.478 168.709 237.74 168.436 237.933 168.081C238.126 167.719 238.222 167.299 238.222 166.821ZM242.046 161.446V170H240.994V161.446H242.046ZM244.821 161.446V170H243.769V161.446H244.821ZM252.001 163.665L248.186 172.982H247.1L248.348 169.931L245.794 163.665H246.961L248.949 168.798L250.915 163.665H252.001ZM255.551 162.602V161.642H257.724V170H256.661V162.602H255.551ZM259.335 169.156C260.314 168.37 261.08 167.727 261.635 167.226C262.19 166.717 262.656 166.189 263.034 165.642C263.419 165.087 263.612 164.544 263.612 164.012C263.612 163.511 263.489 163.118 263.242 162.833C263.003 162.54 262.614 162.394 262.075 162.394C261.55 162.394 261.142 162.559 260.849 162.891C260.564 163.214 260.41 163.65 260.387 164.197H259.369C259.4 163.334 259.662 162.667 260.156 162.197C260.649 161.727 261.285 161.492 262.063 161.492C262.857 161.492 263.485 161.711 263.947 162.151C264.417 162.59 264.652 163.195 264.652 163.966C264.652 164.605 264.46 165.23 264.074 165.838C263.697 166.44 263.265 166.971 262.78 167.434C262.294 167.888 261.674 168.42 260.919 169.029H264.895V169.908H259.335V169.156ZM41.5082 180.55C42.0014 180.55 42.4407 180.654 42.826 180.862C43.2113 181.062 43.5157 181.366 43.7392 181.775C43.9627 182.183 44.0745 182.68 44.0745 183.266V187H43.0341V183.416C43.0341 182.784 42.8761 182.303 42.5601 181.971C42.2519 181.632 41.8318 181.463 41.3001 181.463C40.7529 181.463 40.3175 181.64 39.9938 181.995C39.6701 182.341 39.5083 182.846 39.5083 183.509V187H38.4679V183.416C38.4679 182.784 38.3099 182.303 37.9939 181.971C37.6857 181.632 37.2656 181.463 36.7339 181.463C36.1867 181.463 35.7513 181.64 35.4276 181.995C35.1039 182.341 34.9421 182.846 34.9421 183.509V187H33.8901V180.665H34.9421V181.578C35.1502 181.247 35.4276 180.993 35.7744 180.815C36.1289 180.638 36.5181 180.55 36.942 180.55C37.4737 180.55 37.9438 180.669 38.3523 180.908C38.7607 181.147 39.0651 181.497 39.2655 181.96C39.4428 181.513 39.7356 181.166 40.1441 180.919C40.5525 180.673 41.0072 180.55 41.5082 180.55ZM48.4936 187.104C47.9001 187.104 47.3607 186.969 46.8752 186.699C46.3973 186.43 46.0197 186.048 45.7423 185.555C45.4725 185.054 45.3377 184.476 45.3377 183.821C45.3377 183.174 45.4764 182.603 45.7538 182.11C46.039 181.609 46.4243 181.228 46.9098 180.966C47.3954 180.696 47.9387 180.561 48.5398 180.561C49.1409 180.561 49.6842 180.696 50.1698 180.966C50.6553 181.228 51.0368 181.605 51.3142 182.099C51.5993 182.592 51.7419 183.166 51.7419 183.821C51.7419 184.476 51.5955 185.054 51.3026 185.555C51.0175 186.048 50.6283 186.43 50.1351 186.699C49.6419 186.969 49.0947 187.104 48.4936 187.104ZM48.4936 186.179C48.8712 186.179 49.2257 186.091 49.5571 185.913C49.8885 185.736 50.1543 185.47 50.3547 185.116C50.5628 184.761 50.6668 184.33 50.6668 183.821C50.6668 183.312 50.5667 182.881 50.3663 182.526C50.1659 182.172 49.9039 181.91 49.5802 181.74C49.2565 181.563 48.9059 181.474 48.5282 181.474C48.1429 181.474 47.7884 181.563 47.4647 181.74C47.1487 181.91 46.8944 182.172 46.7018 182.526C46.5091 182.881 46.4128 183.312 46.4128 183.821C46.4128 184.337 46.5052 184.773 46.6902 185.127C46.8829 185.482 47.1372 185.748 47.4532 185.925C47.7691 186.094 48.1159 186.179 48.4936 186.179ZM56.1422 180.55C56.9129 180.55 57.5371 180.785 58.0149 181.255C58.4928 181.717 58.7317 182.388 58.7317 183.266V187H57.6913V183.416C57.6913 182.784 57.5333 182.303 57.2173 181.971C56.9013 181.632 56.4698 181.463 55.9226 181.463C55.3677 181.463 54.9246 181.636 54.5932 181.983C54.2695 182.33 54.1077 182.835 54.1077 183.497V187H53.0557V180.665H54.1077V181.567C54.3157 181.243 54.597 180.993 54.9515 180.815C55.3138 180.638 55.7106 180.55 56.1422 180.55ZM61.6638 181.532V185.266C61.6638 185.574 61.7293 185.794 61.8604 185.925C61.9914 186.048 62.2187 186.11 62.5424 186.11H63.3169V187H62.369C61.7833 187 61.344 186.865 61.0512 186.595C60.7583 186.326 60.6119 185.883 60.6119 185.266V181.532H59.7911V180.665H60.6119V179.07H61.6638V180.665H63.3169V181.532H61.6638ZM67.6665 180.55C68.1443 180.55 68.5758 180.654 68.9612 180.862C69.3465 181.062 69.6471 181.366 69.8629 181.775C70.0863 182.183 70.1981 182.68 70.1981 183.266V187H69.1577V183.416C69.1577 182.784 68.9997 182.303 68.6837 181.971C68.3678 181.632 67.9362 181.463 67.389 181.463C66.8341 181.463 66.391 181.636 66.0596 181.983C65.7359 182.33 65.5741 182.835 65.5741 183.497V187H64.5221V178.446H65.5741V181.567C65.7822 181.243 66.0673 180.993 66.4295 180.815C66.7995 180.638 67.2118 180.55 67.6665 180.55ZM74.0897 187.104C73.6042 187.104 73.1688 187.023 72.7835 186.861C72.3981 186.692 72.0937 186.461 71.8702 186.168C71.6467 185.867 71.5234 185.524 71.5003 185.139H72.5869C72.6178 185.455 72.7642 185.713 73.0262 185.913C73.296 186.114 73.6466 186.214 74.0782 186.214C74.4789 186.214 74.7949 186.125 75.0261 185.948C75.2573 185.771 75.3729 185.547 75.3729 185.278C75.3729 185 75.2496 184.796 75.003 184.665C74.7564 184.526 74.3749 184.391 73.8585 184.26C73.3884 184.137 73.0031 184.014 72.7025 183.89C72.4097 183.759 72.1554 183.571 71.9396 183.324C71.7315 183.07 71.6275 182.738 71.6275 182.33C71.6275 182.006 71.7238 181.709 71.9165 181.44C72.1091 181.17 72.3827 180.958 72.7372 180.804C73.0917 180.642 73.4963 180.561 73.951 180.561C74.6523 180.561 75.2188 180.738 75.6503 181.093C76.0819 181.447 76.3131 181.933 76.3439 182.549H75.292C75.2689 182.218 75.134 181.952 74.8874 181.752C74.6485 181.551 74.3248 181.451 73.9163 181.451C73.5387 181.451 73.2382 181.532 73.0147 181.694C72.7912 181.856 72.6794 182.068 72.6794 182.33C72.6794 182.538 72.7449 182.711 72.8759 182.85C73.0147 182.981 73.1842 183.089 73.3846 183.174C73.5927 183.251 73.8778 183.339 74.24 183.44C74.6947 183.563 75.0646 183.686 75.3498 183.809C75.6349 183.925 75.8777 184.102 76.0781 184.341C76.2861 184.58 76.394 184.892 76.4017 185.278C76.4017 185.624 76.3054 185.936 76.1127 186.214C75.9201 186.491 75.6465 186.711 75.292 186.873C74.9452 187.027 74.5444 187.104 74.0897 187.104ZM80.4369 183.809C80.4369 183.162 80.5679 182.596 80.83 182.11C81.092 181.617 81.4503 181.235 81.905 180.966C82.3674 180.696 82.8799 180.561 83.4425 180.561C83.9974 180.561 84.4791 180.681 84.8875 180.919C85.296 181.158 85.6004 181.459 85.8008 181.821V180.665H86.8643V187H85.8008V185.821C85.5927 186.191 85.2806 186.499 84.8644 186.746C84.4559 186.985 83.9781 187.104 83.431 187.104C82.8684 187.104 82.3597 186.965 81.905 186.688C81.4503 186.41 81.092 186.021 80.83 185.52C80.5679 185.019 80.4369 184.449 80.4369 183.809ZM85.8008 183.821C85.8008 183.343 85.7044 182.927 85.5118 182.573C85.3191 182.218 85.0571 181.948 84.7257 181.763C84.402 181.571 84.0436 181.474 83.6506 181.474C83.2576 181.474 82.8992 181.567 82.5755 181.752C82.2518 181.937 81.9937 182.206 81.801 182.561C81.6083 182.915 81.512 183.332 81.512 183.809C81.512 184.295 81.6083 184.719 81.801 185.081C81.9937 185.436 82.2518 185.709 82.5755 185.902C82.8992 186.087 83.2576 186.179 83.6506 186.179C84.0436 186.179 84.402 186.087 84.7257 185.902C85.0571 185.709 85.3191 185.436 85.5118 185.081C85.7044 184.719 85.8008 184.299 85.8008 183.821ZM91.7169 180.55C92.1948 180.55 92.6263 180.654 93.0117 180.862C93.397 181.062 93.6976 181.366 93.9133 181.775C94.1368 182.183 94.2486 182.68 94.2486 183.266V187H93.2082V183.416C93.2082 182.784 93.0502 182.303 92.7342 181.971C92.4183 181.632 91.9867 181.463 91.4395 181.463C90.8846 181.463 90.4415 181.636 90.1101 181.983C89.7864 182.33 89.6246 182.835 89.6246 183.497V187H88.5726V178.446H89.6246V181.567C89.8327 181.243 90.1178 180.993 90.48 180.815C90.8499 180.638 91.2623 180.55 91.7169 180.55ZM101.678 183.59C101.678 183.79 101.666 184.002 101.643 184.226H96.5796C96.6182 184.85 96.8301 185.339 97.2154 185.694C97.6085 186.041 98.0824 186.214 98.6373 186.214C99.092 186.214 99.4696 186.11 99.7702 185.902C100.078 185.686 100.294 185.401 100.418 185.046H101.55C101.381 185.655 101.042 186.152 100.533 186.538C100.025 186.915 99.3926 187.104 98.6373 187.104C98.0362 187.104 97.4967 186.969 97.0189 186.699C96.5488 186.43 96.1789 186.048 95.9092 185.555C95.6394 185.054 95.5046 184.476 95.5046 183.821C95.5046 183.166 95.6356 182.592 95.8976 182.099C96.1596 181.605 96.5257 181.228 96.9958 180.966C97.4736 180.696 98.0208 180.561 98.6373 180.561C99.2384 180.561 99.7702 180.692 100.233 180.954C100.695 181.216 101.05 181.578 101.296 182.041C101.55 182.495 101.678 183.012 101.678 183.59ZM100.591 183.37C100.591 182.969 100.502 182.626 100.325 182.341C100.148 182.048 99.9051 181.829 99.5968 181.682C99.2962 181.528 98.961 181.451 98.5911 181.451C98.0593 181.451 97.6046 181.621 97.227 181.96C96.8571 182.299 96.6451 182.769 96.5912 183.37H100.591ZM102.604 183.809C102.604 183.162 102.735 182.596 102.997 182.11C103.259 181.617 103.617 181.235 104.072 180.966C104.534 180.696 105.047 180.561 105.609 180.561C106.164 180.561 106.646 180.681 107.054 180.919C107.463 181.158 107.767 181.459 107.968 181.821V180.665H109.031V187H107.968V185.821C107.76 186.191 107.447 186.499 107.031 186.746C106.623 186.985 106.145 187.104 105.598 187.104C105.035 187.104 104.527 186.965 104.072 186.688C103.617 186.41 103.259 186.021 102.997 185.52C102.735 185.019 102.604 184.449 102.604 183.809ZM107.968 183.821C107.968 183.343 107.871 182.927 107.679 182.573C107.486 182.218 107.224 181.948 106.893 181.763C106.569 181.571 106.21 181.474 105.817 181.474C105.424 181.474 105.066 181.567 104.742 181.752C104.419 181.937 104.161 182.206 103.968 182.561C103.775 182.915 103.679 183.332 103.679 183.809C103.679 184.295 103.775 184.719 103.968 185.081C104.161 185.436 104.419 185.709 104.742 185.902C105.066 186.087 105.424 186.179 105.817 186.179C106.21 186.179 106.569 186.087 106.893 185.902C107.224 185.709 107.486 185.436 107.679 185.081C107.871 184.719 107.968 184.299 107.968 183.821ZM110.346 183.809C110.346 183.162 110.477 182.596 110.739 182.11C111.001 181.617 111.36 181.235 111.815 180.966C112.277 180.696 112.793 180.561 113.364 180.561C113.857 180.561 114.315 180.677 114.739 180.908C115.163 181.131 115.487 181.428 115.71 181.798V178.446H116.774V187H115.71V185.809C115.502 186.187 115.194 186.499 114.785 186.746C114.377 186.985 113.899 187.104 113.352 187.104C112.789 187.104 112.277 186.965 111.815 186.688C111.36 186.41 111.001 186.021 110.739 185.52C110.477 185.019 110.346 184.449 110.346 183.809ZM115.71 183.821C115.71 183.343 115.614 182.927 115.421 182.573C115.229 182.218 114.967 181.948 114.635 181.763C114.312 181.571 113.953 181.474 113.56 181.474C113.167 181.474 112.809 181.567 112.485 181.752C112.161 181.937 111.903 182.206 111.711 182.561C111.518 182.915 111.422 183.332 111.422 183.809C111.422 184.295 111.518 184.719 111.711 185.081C111.903 185.436 112.161 185.709 112.485 185.902C112.809 186.087 113.167 186.179 113.56 186.179C113.953 186.179 114.312 186.087 114.635 185.902C114.967 185.709 115.229 185.436 115.421 185.081C115.614 184.719 115.71 184.299 115.71 183.821ZM120.944 189.15H118.864V188.272H119.962V177.07H118.864V176.203H120.944V189.15Z" fill="black"/>
<path d="M23.1289 116.727H20.9842C20.887 116.727 20.8081 116.802 20.8081 116.895C20.7108 120.191 17.7703 122.814 14.2343 122.588C10.9899 122.373 8.43821 119.681 8.51719 116.582C8.52934 116.03 8.62655 115.502 8.78452 114.997C9.04577 114.191 9.48321 113.46 10.0543 112.844C11.1844 111.626 12.8248 110.86 14.6596 110.86C16.4944 110.86 17.6548 111.423 18.7363 112.339C18.9246 112.496 19.1008 112.664 19.2649 112.844L21.0389 111.15C20.8688 110.976 20.6926 110.807 20.5104 110.645C18.9672 109.293 16.9136 108.469 14.6535 108.469C12.3934 108.469 9.85382 109.502 8.26809 111.15C7.69699 111.748 7.21702 112.421 6.84641 113.158C6.23278 114.376 5.929 115.758 6.01406 117.22C6.25708 121.323 9.72623 124.683 14.0156 124.979C19.0218 125.315 23.1958 121.59 23.299 116.912C23.299 116.814 23.214 116.733 23.1168 116.733L23.1289 116.727Z" fill="url(#paint5_linear_661_4779)"/>
<path d="M25.8188 109.537C25.9768 109.537 26.0618 109.722 25.9464 109.833L22.4651 113.158L20.5331 114.997L16.4199 118.926L16.0979 119.234C15.3081 119.994 14.0201 119.994 13.2242 119.234L12.8961 118.92L9.94336 116.1L10.1439 115.909C11.0066 115.084 12.404 115.084 13.2606 115.909L14.658 117.243L19.2633 112.844L22.6717 109.589C22.7081 109.554 22.7506 109.537 22.7993 109.537H25.8127H25.8188Z" fill="url(#paint6_linear_661_4779)"/>
<path opacity="0.1" d="M21.0453 111.144L19.2712 112.839C19.1072 112.659 18.931 112.491 18.7427 112.334L20.5167 110.639C20.699 110.802 20.8752 110.97 21.0453 111.144Z" fill="#181919"/>
<defs>
<filter id="filter0_d_661_4779" x="-3" y="0.125" width="410" height="189" filterUnits="userSpaceOnUse" color-interpolation-filters="sRGB">
<feFlood flood-opacity="0" result="BackgroundImageFix"/>
<feColorMatrix in="SourceAlpha" type="matrix" values="0 0 0 0 0 0 0 0 0 0 0 0 0 0 0 0 0 0 127 0" result="hardAlpha"/>
<feMorphology radius="2" operator="dilate" in="SourceAlpha" result="effect1_dropShadow_661_4779"/>
<feOffset dy="4"/>
<feGaussianBlur stdDeviation="11"/>
<feComposite in2="hardAlpha" operator="out"/>
<feColorMatrix type="matrix" values="0 0 0 0 0.716629 0 0 0 0 0.814865 0 0 0 0 1 0 0 0 1 0"/>
<feBlend mode="normal" in2="BackgroundImageFix" result="effect1_dropShadow_661_4779"/>
<feBlend mode="normal" in="SourceGraphic" in2="effect1_dropShadow_661_4779" result="shape"/>
</filter>
<radialGradient id="paint0_radial_661_4779" cx="0" cy="0" r="1" gradientUnits="userSpaceOnUse" gradientTransform="translate(346.267 70.2303) rotate(164.121) scale(62.5189 19.9662)">
<stop stop-color="white" stop-opacity="0.5"/>
<stop offset="1" stop-color="#0A58EB" stop-opacity="0"/>
</radialGradient>
<linearGradient id="paint1_linear_661_4779" x1="276.998" y1="62.6792" x2="276.998" y2="73.7212" gradientUnits="userSpaceOnUse">
<stop stop-color="white"/>
<stop offset="1" stop-color="#A2AAFF"/>
</linearGradient>
<linearGradient id="paint2_linear_661_4779" x1="276.998" y1="62.6792" x2="276.998" y2="73.7212" gradientUnits="userSpaceOnUse">
<stop stop-color="white"/>
<stop offset="1" stop-color="#A2AAFF"/>
</linearGradient>
<linearGradient id="paint3_linear_661_4779" x1="276.998" y1="62.6792" x2="276.998" y2="73.7212" gradientUnits="userSpaceOnUse">
<stop stop-color="white"/>
<stop offset="1" stop-color="#A2AAFF"/>
</linearGradient>
<linearGradient id="paint4_linear_661_4779" x1="104" y1="373" x2="-11" y2="373" gradientUnits="userSpaceOnUse">
<stop stop-color="#00B7FF" stop-opacity="0.4"/>
<stop offset="1" stop-color="#1569FC" stop-opacity="0.55"/>
</linearGradient>
<linearGradient id="paint5_linear_661_4779" x1="14.6657" y1="108.295" x2="14.6657" y2="124.288" gradientUnits="userSpaceOnUse">
<stop stop-color="#0A58EB"/>
</linearGradient>
<linearGradient id="paint6_linear_661_4779" x1="17.9753" y1="108.527" x2="17.9753" y2="124.52" gradientUnits="userSpaceOnUse">
<stop stop-color="#0A58EB"/>
</linearGradient>
</defs>
</svg>
