<svg width="354" height="74" viewBox="0 0 354 74" fill="none" xmlns="http://www.w3.org/2000/svg">
<rect x="102.054" y="0.395752" width="251" height="49" rx="24.5" fill="url(#paint0_linear_881_3989)"/>
<path d="M136.217 24.2638C135.417 23.8478 135.017 23.2038 135.017 22.3318C135.017 21.8998 135.125 21.5078 135.341 21.1558C135.565 20.7958 135.897 20.5118 136.337 20.3038C136.785 20.0878 137.329 19.9798 137.969 19.9798C138.609 19.9798 139.149 20.0878 139.589 20.3038C140.037 20.5118 140.369 20.7958 140.585 21.1558C140.809 21.5078 140.921 21.8998 140.921 22.3318C140.921 22.7718 140.813 23.1598 140.597 23.4958C140.381 23.8238 140.093 24.0798 139.733 24.2638C140.173 24.4558 140.517 24.7358 140.765 25.1038C141.013 25.4718 141.137 25.9078 141.137 26.4118C141.137 26.9558 140.997 27.4318 140.717 27.8398C140.445 28.2398 140.069 28.5478 139.589 28.7638C139.109 28.9798 138.569 29.0878 137.969 29.0878C137.369 29.0878 136.829 28.9798 136.349 28.7638C135.877 28.5478 135.501 28.2398 135.221 27.8398C134.949 27.4318 134.813 26.9558 134.813 26.4118C134.813 25.9078 134.937 25.4718 135.185 25.1038C135.433 24.7278 135.777 24.4478 136.217 24.2638ZM139.289 22.5718C139.289 22.1798 139.169 21.8758 138.929 21.6598C138.697 21.4438 138.377 21.3358 137.969 21.3358C137.569 21.3358 137.249 21.4438 137.009 21.6598C136.777 21.8758 136.661 22.1838 136.661 22.5838C136.661 22.9438 136.781 23.2318 137.021 23.4478C137.269 23.6638 137.585 23.7718 137.969 23.7718C138.353 23.7718 138.669 23.6638 138.917 23.4478C139.165 23.2238 139.289 22.9318 139.289 22.5718ZM137.969 24.9958C137.513 24.9958 137.141 25.1118 136.853 25.3438C136.573 25.5758 136.433 25.9078 136.433 26.3398C136.433 26.7398 136.569 27.0678 136.841 27.3238C137.121 27.5718 137.497 27.6958 137.969 27.6958C138.441 27.6958 138.813 27.5678 139.085 27.3118C139.357 27.0558 139.493 26.7318 139.493 26.3398C139.493 25.9158 139.353 25.5878 139.073 25.3558C138.793 25.1158 138.425 24.9958 137.969 24.9958ZM142.464 24.4078C142.464 23.0238 142.712 21.9398 143.208 21.1558C143.712 20.3718 144.544 19.9798 145.704 19.9798C146.864 19.9798 147.692 20.3718 148.188 21.1558C148.692 21.9398 148.944 23.0238 148.944 24.4078C148.944 25.7998 148.692 26.8918 148.188 27.6838C147.692 28.4758 146.864 28.8718 145.704 28.8718C144.544 28.8718 143.712 28.4758 143.208 27.6838C142.712 26.8918 142.464 25.7998 142.464 24.4078ZM147.288 24.4078C147.288 23.8158 147.248 23.3198 147.168 22.9198C147.096 22.5118 146.944 22.1798 146.712 21.9238C146.488 21.6678 146.152 21.5398 145.704 21.5398C145.256 21.5398 144.916 21.6678 144.684 21.9238C144.46 22.1798 144.308 22.5118 144.228 22.9198C144.156 23.3198 144.12 23.8158 144.12 24.4078C144.12 25.0158 144.156 25.5278 144.228 25.9438C144.3 26.3518 144.452 26.6838 144.684 26.9398C144.916 27.1878 145.256 27.3118 145.704 27.3118C146.152 27.3118 146.492 27.1878 146.724 26.9398C146.956 26.6838 147.108 26.3518 147.18 25.9438C147.252 25.5278 147.288 25.0158 147.288 24.4078ZM150.03 22.2958C150.03 21.6878 150.206 21.2118 150.558 20.8678C150.918 20.5238 151.378 20.3518 151.938 20.3518C152.498 20.3518 152.954 20.5238 153.306 20.8678C153.666 21.2118 153.846 21.6878 153.846 22.2958C153.846 22.9118 153.666 23.3918 153.306 23.7358C152.954 24.0798 152.498 24.2518 151.938 24.2518C151.378 24.2518 150.918 24.0798 150.558 23.7358C150.206 23.3918 150.03 22.9118 150.03 22.2958ZM157.734 20.4958L153.018 28.8958H151.386L156.09 20.4958H157.734ZM151.926 21.3598C151.486 21.3598 151.266 21.6718 151.266 22.2958C151.266 22.9278 151.486 23.2438 151.926 23.2438C152.142 23.2438 152.31 23.1678 152.43 23.0158C152.55 22.8558 152.61 22.6158 152.61 22.2958C152.61 21.6718 152.382 21.3598 151.926 21.3598ZM155.298 27.0838C155.298 26.4678 155.474 25.9918 155.826 25.6558C156.186 25.3118 156.646 25.1398 157.206 25.1398C157.766 25.1398 158.218 25.3118 158.562 25.6558C158.914 25.9918 159.09 26.4678 159.09 27.0838C159.09 27.6998 158.914 28.1798 158.562 28.5238C158.218 28.8678 157.766 29.0398 157.206 29.0398C156.638 29.0398 156.178 28.8678 155.826 28.5238C155.474 28.1798 155.298 27.6998 155.298 27.0838ZM157.194 26.1478C156.738 26.1478 156.51 26.4598 156.51 27.0838C156.51 27.7158 156.738 28.0318 157.194 28.0318C157.642 28.0318 157.866 27.7158 157.866 27.0838C157.866 26.4598 157.642 26.1478 157.194 26.1478ZM162.814 24.6958C162.814 23.8718 162.998 23.1358 163.366 22.4878C163.742 21.8318 164.25 21.3238 164.89 20.9638C165.538 20.5958 166.262 20.4118 167.062 20.4118C167.998 20.4118 168.818 20.6518 169.522 21.1318C170.226 21.6118 170.718 22.2758 170.998 23.1238H169.066C168.874 22.7238 168.602 22.4238 168.25 22.2238C167.906 22.0238 167.506 21.9238 167.05 21.9238C166.562 21.9238 166.126 22.0398 165.742 22.2718C165.366 22.4958 165.07 22.8158 164.854 23.2318C164.646 23.6478 164.542 24.1358 164.542 24.6958C164.542 25.2478 164.646 25.7358 164.854 26.1598C165.07 26.5758 165.366 26.8998 165.742 27.1318C166.126 27.3558 166.562 27.4678 167.05 27.4678C167.506 27.4678 167.906 27.3678 168.25 27.1678C168.602 26.9598 168.874 26.6558 169.066 26.2558H170.998C170.718 27.1118 170.226 27.7798 169.522 28.2598C168.826 28.7318 168.006 28.9678 167.062 28.9678C166.262 28.9678 165.538 28.7878 164.89 28.4278C164.25 28.0598 163.742 27.5518 163.366 26.9038C162.998 26.2558 162.814 25.5198 162.814 24.6958ZM176.177 22.1518C176.681 22.1518 177.129 22.2638 177.521 22.4878C177.913 22.7038 178.217 23.0278 178.433 23.4598C178.657 23.8838 178.769 24.3958 178.769 24.9958V28.8958H177.089V25.2238C177.089 24.6958 176.957 24.2918 176.693 24.0118C176.429 23.7238 176.069 23.5798 175.613 23.5798C175.149 23.5798 174.781 23.7238 174.509 24.0118C174.245 24.2918 174.113 24.6958 174.113 25.2238V28.8958H172.433V20.0158H174.113V23.0758C174.329 22.7878 174.617 22.5638 174.977 22.4038C175.337 22.2358 175.737 22.1518 176.177 22.1518ZM186.547 25.4278C186.547 25.6678 186.531 25.8838 186.499 26.0758H181.639C181.679 26.5558 181.847 26.9318 182.143 27.2038C182.439 27.4758 182.803 27.6118 183.235 27.6118C183.859 27.6118 184.303 27.3438 184.567 26.8078H186.379C186.187 27.4478 185.819 27.9758 185.275 28.3918C184.731 28.7998 184.063 29.0038 183.271 29.0038C182.631 29.0038 182.055 28.8638 181.543 28.5838C181.039 28.2958 180.643 27.8918 180.355 27.3718C180.075 26.8518 179.935 26.2518 179.935 25.5718C179.935 24.8838 180.075 24.2798 180.355 23.7598C180.635 23.2398 181.027 22.8398 181.531 22.5598C182.035 22.2798 182.615 22.1398 183.271 22.1398C183.903 22.1398 184.467 22.2758 184.963 22.5478C185.467 22.8198 185.855 23.2078 186.127 23.7118C186.407 24.2078 186.547 24.7798 186.547 25.4278ZM184.807 24.9478C184.799 24.5158 184.643 24.1718 184.339 23.9158C184.035 23.6518 183.663 23.5198 183.223 23.5198C182.807 23.5198 182.455 23.6478 182.167 23.9038C181.887 24.1518 181.715 24.4998 181.651 24.9478H184.807ZM187.341 25.5478C187.341 24.8758 187.473 24.2798 187.737 23.7598C188.009 23.2398 188.373 22.8398 188.829 22.5598C189.293 22.2798 189.809 22.1398 190.377 22.1398C190.873 22.1398 191.305 22.2398 191.673 22.4398C192.049 22.6398 192.349 22.8918 192.573 23.1958V22.2478H194.265V28.8958H192.573V27.9238C192.357 28.2358 192.057 28.4958 191.673 28.7038C191.297 28.9038 190.861 29.0038 190.365 29.0038C189.805 29.0038 189.293 28.8598 188.829 28.5718C188.373 28.2838 188.009 27.8798 187.737 27.3598C187.473 26.8318 187.341 26.2278 187.341 25.5478ZM192.573 25.5718C192.573 25.1638 192.493 24.8158 192.333 24.5278C192.173 24.2318 191.957 24.0078 191.685 23.8558C191.413 23.6958 191.121 23.6158 190.809 23.6158C190.497 23.6158 190.209 23.6918 189.945 23.8438C189.681 23.9958 189.465 24.2198 189.297 24.5158C189.137 24.8038 189.057 25.1478 189.057 25.5478C189.057 25.9478 189.137 26.2998 189.297 26.6038C189.465 26.8998 189.681 27.1278 189.945 27.2878C190.217 27.4478 190.505 27.5278 190.809 27.5278C191.121 27.5278 191.413 27.4518 191.685 27.2998C191.957 27.1398 192.173 26.9158 192.333 26.6278C192.493 26.3318 192.573 25.9798 192.573 25.5718ZM197.586 23.2078C197.802 22.9038 198.098 22.6518 198.474 22.4518C198.858 22.2438 199.294 22.1398 199.782 22.1398C200.35 22.1398 200.862 22.2798 201.318 22.5598C201.782 22.8398 202.146 23.2398 202.41 23.7598C202.682 24.2718 202.818 24.8678 202.818 25.5478C202.818 26.2278 202.682 26.8318 202.41 27.3598C202.146 27.8798 201.782 28.2838 201.318 28.5718C200.862 28.8598 200.35 29.0038 199.782 29.0038C199.294 29.0038 198.862 28.9038 198.486 28.7038C198.118 28.5038 197.818 28.2518 197.586 27.9478V32.0638H195.906V22.2478H197.586V23.2078ZM201.102 25.5478C201.102 25.1478 201.018 24.8038 200.85 24.5158C200.69 24.2198 200.474 23.9958 200.202 23.8438C199.938 23.6918 199.65 23.6158 199.338 23.6158C199.034 23.6158 198.746 23.6958 198.474 23.8558C198.21 24.0078 197.994 24.2318 197.826 24.5278C197.666 24.8238 197.586 25.1718 197.586 25.5718C197.586 25.9718 197.666 26.3198 197.826 26.6158C197.994 26.9118 198.21 27.1398 198.474 27.2998C198.746 27.4518 199.034 27.5278 199.338 27.5278C199.65 27.5278 199.938 27.4478 200.202 27.2878C200.474 27.1278 200.69 26.8998 200.85 26.6038C201.018 26.3078 201.102 25.9558 201.102 25.5478ZM210.219 25.4278C210.219 25.6678 210.203 25.8838 210.171 26.0758H205.311C205.351 26.5558 205.519 26.9318 205.815 27.2038C206.111 27.4758 206.475 27.6118 206.907 27.6118C207.531 27.6118 207.975 27.3438 208.239 26.8078H210.051C209.859 27.4478 209.491 27.9758 208.947 28.3918C208.403 28.7998 207.735 29.0038 206.943 29.0038C206.303 29.0038 205.727 28.8638 205.215 28.5838C204.711 28.2958 204.315 27.8918 204.027 27.3718C203.747 26.8518 203.607 26.2518 203.607 25.5718C203.607 24.8838 203.747 24.2798 204.027 23.7598C204.307 23.2398 204.699 22.8398 205.203 22.5598C205.707 22.2798 206.287 22.1398 206.943 22.1398C207.575 22.1398 208.139 22.2758 208.635 22.5478C209.139 22.8198 209.527 23.2078 209.799 23.7118C210.079 24.2078 210.219 24.7798 210.219 25.4278ZM208.479 24.9478C208.471 24.5158 208.315 24.1718 208.011 23.9158C207.707 23.6518 207.335 23.5198 206.895 23.5198C206.479 23.5198 206.127 23.6478 205.839 23.9038C205.559 24.1518 205.387 24.4998 205.323 24.9478H208.479ZM213.125 23.2798C213.341 22.9278 213.621 22.6518 213.965 22.4518C214.317 22.2518 214.717 22.1518 215.165 22.1518V23.9158H214.721C214.193 23.9158 213.793 24.0398 213.521 24.2878C213.257 24.5358 213.125 24.9678 213.125 25.5838V28.8958H211.445V22.2478H213.125V23.2798ZM221.112 23.6278V26.8438C221.112 27.0678 221.164 27.2318 221.268 27.3358C221.38 27.4318 221.564 27.4798 221.82 27.4798H222.6V28.8958H221.544C220.128 28.8958 219.42 28.2078 219.42 26.8318V23.6278H218.628V22.2478H219.42V20.6038H221.112V22.2478H222.6V23.6278H221.112ZM227.552 22.1518C228.056 22.1518 228.504 22.2638 228.896 22.4878C229.288 22.7038 229.592 23.0278 229.808 23.4598C230.032 23.8838 230.144 24.3958 230.144 24.9958V28.8958H228.464V25.2238C228.464 24.6958 228.332 24.2918 228.068 24.0118C227.804 23.7238 227.444 23.5798 226.988 23.5798C226.524 23.5798 226.156 23.7238 225.884 24.0118C225.62 24.2918 225.488 24.6958 225.488 25.2238V28.8958H223.808V20.0158H225.488V23.0758C225.704 22.7878 225.992 22.5638 226.352 22.4038C226.712 22.2358 227.112 22.1518 227.552 22.1518ZM231.31 25.5478C231.31 24.8758 231.442 24.2798 231.706 23.7598C231.978 23.2398 232.342 22.8398 232.798 22.5598C233.262 22.2798 233.778 22.1398 234.346 22.1398C234.842 22.1398 235.274 22.2398 235.642 22.4398C236.018 22.6398 236.318 22.8918 236.542 23.1958V22.2478H238.234V28.8958H236.542V27.9238C236.326 28.2358 236.026 28.4958 235.642 28.7038C235.266 28.9038 234.83 29.0038 234.334 29.0038C233.774 29.0038 233.262 28.8598 232.798 28.5718C232.342 28.2838 231.978 27.8798 231.706 27.3598C231.442 26.8318 231.31 26.2278 231.31 25.5478ZM236.542 25.5718C236.542 25.1638 236.462 24.8158 236.302 24.5278C236.142 24.2318 235.926 24.0078 235.654 23.8558C235.382 23.6958 235.09 23.6158 234.778 23.6158C234.466 23.6158 234.178 23.6918 233.914 23.8438C233.65 23.9958 233.434 24.2198 233.266 24.5158C233.106 24.8038 233.026 25.1478 233.026 25.5478C233.026 25.9478 233.106 26.2998 233.266 26.6038C233.434 26.8998 233.65 27.1278 233.914 27.2878C234.186 27.4478 234.474 27.5278 234.778 27.5278C235.09 27.5278 235.382 27.4518 235.654 27.2998C235.926 27.1398 236.142 26.9158 236.302 26.6278C236.462 26.3318 236.542 25.9798 236.542 25.5718ZM243.559 22.1518C244.351 22.1518 244.991 22.4038 245.479 22.9078C245.967 23.4038 246.211 24.0998 246.211 24.9958V28.8958H244.531V25.2238C244.531 24.6958 244.399 24.2918 244.135 24.0118C243.871 23.7238 243.511 23.5798 243.055 23.5798C242.591 23.5798 242.223 23.7238 241.951 24.0118C241.687 24.2918 241.555 24.6958 241.555 25.2238V28.8958H239.875V22.2478H241.555V23.0758C241.779 22.7878 242.063 22.5638 242.407 22.4038C242.759 22.2358 243.143 22.1518 243.559 22.1518ZM256.368 20.5198V21.8758H254.136V28.8958H252.456V21.8758H250.224V20.5198H256.368ZM260.545 29.0038C259.905 29.0038 259.329 28.8638 258.817 28.5838C258.305 28.2958 257.901 27.8918 257.605 27.3718C257.317 26.8518 257.173 26.2518 257.173 25.5718C257.173 24.8918 257.321 24.2918 257.617 23.7718C257.921 23.2518 258.333 22.8518 258.853 22.5718C259.373 22.2838 259.953 22.1398 260.593 22.1398C261.233 22.1398 261.813 22.2838 262.333 22.5718C262.853 22.8518 263.261 23.2518 263.557 23.7718C263.861 24.2918 264.013 24.8918 264.013 25.5718C264.013 26.2518 263.857 26.8518 263.545 27.3718C263.241 27.8918 262.825 28.2958 262.297 28.5838C261.777 28.8638 261.193 29.0038 260.545 29.0038ZM260.545 27.5398C260.849 27.5398 261.133 27.4678 261.397 27.3238C261.669 27.1718 261.885 26.9478 262.045 26.6518C262.205 26.3558 262.285 25.9958 262.285 25.5718C262.285 24.9398 262.117 24.4558 261.781 24.1198C261.453 23.7758 261.049 23.6038 260.569 23.6038C260.089 23.6038 259.685 23.7758 259.357 24.1198C259.037 24.4558 258.877 24.9398 258.877 25.5718C258.877 26.2038 259.033 26.6918 259.345 27.0358C259.665 27.3718 260.065 27.5398 260.545 27.5398ZM266.926 23.2078C267.142 22.9038 267.438 22.6518 267.814 22.4518C268.198 22.2438 268.634 22.1398 269.122 22.1398C269.69 22.1398 270.202 22.2798 270.658 22.5598C271.122 22.8398 271.486 23.2398 271.75 23.7598C272.022 24.2718 272.158 24.8678 272.158 25.5478C272.158 26.2278 272.022 26.8318 271.75 27.3598C271.486 27.8798 271.122 28.2838 270.658 28.5718C270.202 28.8598 269.69 29.0038 269.122 29.0038C268.634 29.0038 268.202 28.9038 267.826 28.7038C267.458 28.5038 267.158 28.2518 266.926 27.9478V32.0638H265.246V22.2478H266.926V23.2078ZM270.442 25.5478C270.442 25.1478 270.358 24.8038 270.19 24.5158C270.03 24.2198 269.814 23.9958 269.542 23.8438C269.278 23.6918 268.99 23.6158 268.678 23.6158C268.374 23.6158 268.086 23.6958 267.814 23.8558C267.55 24.0078 267.334 24.2318 267.166 24.5278C267.006 24.8238 266.926 25.1718 266.926 25.5718C266.926 25.9718 267.006 26.3198 267.166 26.6158C267.334 26.9118 267.55 27.1398 267.814 27.2998C268.086 27.4518 268.374 27.5278 268.678 27.5278C268.99 27.5278 269.278 27.4478 269.542 27.2878C269.814 27.1278 270.03 26.8998 270.19 26.6038C270.358 26.3078 270.442 25.9558 270.442 25.5478ZM278.491 23.9038V25.3198H273.403V23.9038H278.491ZM282.031 20.5198V25.7038C282.031 26.2718 282.179 26.7078 282.475 27.0118C282.771 27.3078 283.187 27.4558 283.723 27.4558C284.267 27.4558 284.687 27.3078 284.983 27.0118C285.279 26.7078 285.427 26.2718 285.427 25.7038V20.5198H287.119V25.6918C287.119 26.4038 286.963 27.0078 286.651 27.5038C286.347 27.9918 285.935 28.3598 285.415 28.6078C284.903 28.8558 284.331 28.9798 283.699 28.9798C283.075 28.9798 282.507 28.8558 281.995 28.6078C281.491 28.3598 281.091 27.9918 280.795 27.5038C280.499 27.0078 280.351 26.4038 280.351 25.6918V20.5198H282.031ZM290.422 23.2078C290.638 22.9038 290.934 22.6518 291.31 22.4518C291.694 22.2438 292.13 22.1398 292.618 22.1398C293.186 22.1398 293.698 22.2798 294.154 22.5598C294.618 22.8398 294.982 23.2398 295.246 23.7598C295.518 24.2718 295.654 24.8678 295.654 25.5478C295.654 26.2278 295.518 26.8318 295.246 27.3598C294.982 27.8798 294.618 28.2838 294.154 28.5718C293.698 28.8598 293.186 29.0038 292.618 29.0038C292.13 29.0038 291.698 28.9038 291.322 28.7038C290.954 28.5038 290.654 28.2518 290.422 27.9478V32.0638H288.742V22.2478H290.422V23.2078ZM293.938 25.5478C293.938 25.1478 293.854 24.8038 293.686 24.5158C293.526 24.2198 293.31 23.9958 293.038 23.8438C292.774 23.6918 292.486 23.6158 292.174 23.6158C291.87 23.6158 291.582 23.6958 291.31 23.8558C291.046 24.0078 290.83 24.2318 290.662 24.5278C290.502 24.8238 290.422 25.1718 290.422 25.5718C290.422 25.9718 290.502 26.3198 290.662 26.6158C290.83 26.9118 291.046 27.1398 291.31 27.2998C291.582 27.4518 291.87 27.5278 292.174 27.5278C292.486 27.5278 292.774 27.4478 293.038 27.2878C293.31 27.1278 293.526 26.8998 293.686 26.6038C293.854 26.3078 293.938 25.9558 293.938 25.5478ZM306.178 28.8958L305.266 27.9958C304.49 28.6918 303.542 29.0398 302.422 29.0398C301.806 29.0398 301.262 28.9358 300.79 28.7278C300.326 28.5118 299.966 28.2118 299.71 27.8278C299.454 27.4358 299.326 26.9838 299.326 26.4718C299.326 25.9198 299.482 25.4238 299.794 24.9838C300.106 24.5438 300.566 24.1878 301.174 23.9158C300.958 23.6518 300.802 23.3998 300.706 23.1598C300.61 22.9118 300.562 22.6478 300.562 22.3678C300.562 21.9838 300.662 21.6398 300.862 21.3358C301.062 21.0238 301.346 20.7798 301.714 20.6038C302.09 20.4278 302.526 20.3398 303.022 20.3398C303.526 20.3398 303.958 20.4358 304.318 20.6278C304.678 20.8198 304.946 21.0758 305.122 21.3958C305.298 21.7158 305.374 22.0718 305.35 22.4638H303.718C303.726 22.1998 303.662 21.9998 303.526 21.8638C303.39 21.7198 303.206 21.6478 302.974 21.6478C302.75 21.6478 302.562 21.7158 302.41 21.8518C302.266 21.9798 302.194 22.1478 302.194 22.3558C302.194 22.5558 302.254 22.7558 302.374 22.9558C302.494 23.1478 302.69 23.3878 302.962 23.6758L305.074 25.7638C305.09 25.7478 305.102 25.7318 305.11 25.7158C305.118 25.6998 305.126 25.6838 305.134 25.6678L305.818 24.5278H307.57L306.73 26.0038C306.57 26.3158 306.398 26.6118 306.214 26.8918L308.242 28.8958H306.178ZM302.47 27.6478C303.126 27.6478 303.706 27.4158 304.21 26.9518L302.146 24.9118C301.37 25.2558 300.982 25.7438 300.982 26.3758C300.982 26.7358 301.118 27.0398 301.39 27.2878C301.662 27.5278 302.022 27.6478 302.47 27.6478ZM317.765 23.0398C317.573 22.6878 317.309 22.4198 316.973 22.2358C316.637 22.0518 316.245 21.9598 315.797 21.9598C315.301 21.9598 314.861 22.0718 314.477 22.2958C314.093 22.5198 313.793 22.8398 313.577 23.2558C313.361 23.6718 313.253 24.1518 313.253 24.6958C313.253 25.2558 313.361 25.7438 313.577 26.1598C313.801 26.5758 314.109 26.8958 314.501 27.1198C314.893 27.3438 315.349 27.4558 315.869 27.4558C316.509 27.4558 317.033 27.2878 317.441 26.9518C317.849 26.6078 318.117 26.1318 318.245 25.5238H315.365V24.2398H319.901V25.7038C319.789 26.2878 319.549 26.8278 319.181 27.3238C318.813 27.8198 318.337 28.2198 317.753 28.5238C317.177 28.8198 316.529 28.9678 315.809 28.9678C315.001 28.9678 314.269 28.7878 313.613 28.4278C312.965 28.0598 312.453 27.5518 312.077 26.9038C311.709 26.2558 311.525 25.5198 311.525 24.6958C311.525 23.8718 311.709 23.1358 312.077 22.4878C312.453 21.8318 312.965 21.3238 313.613 20.9638C314.269 20.5958 314.997 20.4118 315.797 20.4118C316.741 20.4118 317.561 20.6438 318.257 21.1078C318.953 21.5638 319.433 22.2078 319.697 23.0398H317.765ZM324.096 29.0038C323.456 29.0038 322.88 28.8638 322.368 28.5838C321.856 28.2958 321.452 27.8918 321.156 27.3718C320.868 26.8518 320.724 26.2518 320.724 25.5718C320.724 24.8918 320.872 24.2918 321.168 23.7718C321.472 23.2518 321.884 22.8518 322.404 22.5718C322.924 22.2838 323.504 22.1398 324.144 22.1398C324.784 22.1398 325.364 22.2838 325.884 22.5718C326.404 22.8518 326.812 23.2518 327.108 23.7718C327.412 24.2918 327.564 24.8918 327.564 25.5718C327.564 26.2518 327.408 26.8518 327.096 27.3718C326.792 27.8918 326.376 28.2958 325.848 28.5838C325.328 28.8638 324.744 29.0038 324.096 29.0038ZM324.096 27.5398C324.4 27.5398 324.684 27.4678 324.948 27.3238C325.22 27.1718 325.436 26.9478 325.596 26.6518C325.756 26.3558 325.836 25.9958 325.836 25.5718C325.836 24.9398 325.668 24.4558 325.332 24.1198C325.004 23.7758 324.6 23.6038 324.12 23.6038C323.64 23.6038 323.236 23.7758 322.908 24.1198C322.588 24.4558 322.428 24.9398 322.428 25.5718C322.428 26.2038 322.584 26.6918 322.896 27.0358C323.216 27.3718 323.616 27.5398 324.096 27.5398Z" fill="white"/>
<path d="M94.5357 26.4166C86.5082 36.081 75.1304 45.1584 61.9967 45.3035C53.6034 45.3962 44.8492 39.5439 42.1787 31.5343C39.6566 23.9697 40.2741 15.2408 47.2008 10.4022C50.8112 7.88023 55.062 7.26813 58.4352 10.5389C63.5887 15.5358 62.2058 25.6426 59.4904 31.4594C51.0164 49.6124 30.7121 63.8714 10.6857 64.7481" stroke="url(#paint1_linear_881_3989)" stroke-width="3" stroke-linecap="round"/>
<path d="M24.3147 70.9565C20.9888 69.8604 13.4756 67.1228 10.0296 64.9413" stroke="url(#paint2_linear_881_3989)" stroke-width="3" stroke-linecap="round"/>
<path d="M10.0298 64.9412C12.5646 62.5087 18.1792 56.7777 20.3595 53.3134" stroke="url(#paint3_linear_881_3989)" stroke-width="3" stroke-linecap="round"/>
<defs>
<linearGradient id="paint0_linear_881_3989" x1="102.054" y1="24.8957" x2="353.054" y2="24.8957" gradientUnits="userSpaceOnUse">
<stop stop-color="#0058FF"/>
<stop offset="0.918269" stop-color="#0492FF"/>
</linearGradient>
<linearGradient id="paint1_linear_881_3989" x1="44.6393" y1="10.0268" x2="54.9922" y2="55.431" gradientUnits="userSpaceOnUse">
<stop stop-color="#21C8F6"/>
<stop offset="1" stop-color="#035AFF"/>
</linearGradient>
<linearGradient id="paint2_linear_881_3989" x1="16.1833" y1="63.5382" x2="18.193" y2="72.3524" gradientUnits="userSpaceOnUse">
<stop stop-color="#21C8F6"/>
<stop offset="1" stop-color="#035AFF"/>
</linearGradient>
<linearGradient id="paint3_linear_881_3989" x1="14.2058" y1="54.7165" x2="16.2155" y2="63.5307" gradientUnits="userSpaceOnUse">
<stop stop-color="#21C8F6"/>
<stop offset="1" stop-color="#035AFF"/>
</linearGradient>
</defs>
</svg>
