<svg width="354" height="74" viewBox="0 0 354 74" fill="none" xmlns="http://www.w3.org/2000/svg">
<rect x="102.055" y="0.395508" width="251" height="49" rx="24.5" fill="url(#paint0_linear_881_3989)"/>
<path d="M168.801 19.6235V29.3955H166.841V23.0395L164.223 29.3955H162.739L160.107 23.0395V29.3955H158.147V19.6235H160.373L163.481 26.8895L166.589 19.6235H168.801ZM174.182 29.5215C173.436 29.5215 172.764 29.3582 172.166 29.0315C171.569 28.6955 171.098 28.2242 170.752 27.6175C170.416 27.0108 170.248 26.3108 170.248 25.5175C170.248 24.7242 170.421 24.0242 170.766 23.4175C171.121 22.8108 171.602 22.3442 172.208 22.0175C172.815 21.6815 173.492 21.5135 174.238 21.5135C174.985 21.5135 175.662 21.6815 176.268 22.0175C176.875 22.3442 177.351 22.8108 177.696 23.4175C178.051 24.0242 178.228 24.7242 178.228 25.5175C178.228 26.3108 178.046 27.0108 177.682 27.6175C177.328 28.2242 176.842 28.6955 176.226 29.0315C175.62 29.3582 174.938 29.5215 174.182 29.5215ZM174.182 27.8135C174.537 27.8135 174.868 27.7295 175.176 27.5615C175.494 27.3842 175.746 27.1228 175.932 26.7775C176.119 26.4322 176.212 26.0122 176.212 25.5175C176.212 24.7802 176.016 24.2155 175.624 23.8235C175.242 23.4222 174.77 23.2215 174.21 23.2215C173.65 23.2215 173.179 23.4222 172.796 23.8235C172.423 24.2155 172.236 24.7802 172.236 25.5175C172.236 26.2548 172.418 26.8242 172.782 27.2255C173.156 27.6175 173.622 27.8135 174.182 27.8135ZM182.634 29.5215C182 29.5215 181.43 29.4095 180.926 29.1855C180.422 28.9522 180.021 28.6395 179.722 28.2475C179.433 27.8555 179.274 27.4215 179.246 26.9455H181.22C181.258 27.2442 181.402 27.4915 181.654 27.6875C181.916 27.8835 182.238 27.9815 182.62 27.9815C182.994 27.9815 183.283 27.9068 183.488 27.7575C183.703 27.6082 183.81 27.4168 183.81 27.1835C183.81 26.9315 183.68 26.7448 183.418 26.6235C183.166 26.4928 182.76 26.3528 182.2 26.2035C181.622 26.0635 181.146 25.9188 180.772 25.7695C180.408 25.6202 180.091 25.3915 179.82 25.0835C179.559 24.7755 179.428 24.3602 179.428 23.8375C179.428 23.4082 179.55 23.0162 179.792 22.6615C180.044 22.3068 180.399 22.0268 180.856 21.8215C181.323 21.6162 181.869 21.5135 182.494 21.5135C183.418 21.5135 184.156 21.7468 184.706 22.2135C185.257 22.6708 185.56 23.2915 185.616 24.0755H183.74C183.712 23.7675 183.582 23.5248 183.348 23.3475C183.124 23.1608 182.821 23.0675 182.438 23.0675C182.084 23.0675 181.808 23.1328 181.612 23.2635C181.426 23.3942 181.332 23.5762 181.332 23.8095C181.332 24.0708 181.463 24.2715 181.724 24.4115C181.986 24.5422 182.392 24.6775 182.942 24.8175C183.502 24.9575 183.964 25.1022 184.328 25.2515C184.692 25.4008 185.005 25.6342 185.266 25.9515C185.537 26.2595 185.677 26.6702 185.686 27.1835C185.686 27.6315 185.56 28.0328 185.308 28.3875C185.066 28.7422 184.711 29.0222 184.244 29.2275C183.787 29.4235 183.25 29.5215 182.634 29.5215ZM189.577 23.2495V27.0015C189.577 27.2628 189.638 27.4542 189.759 27.5755C189.89 27.6875 190.104 27.7435 190.403 27.7435H191.313V29.3955H190.081C188.429 29.3955 187.603 28.5928 187.603 26.9875V23.2495H186.679V21.6395H187.603V19.7215H189.577V21.6395H191.313V23.2495H189.577ZM201.099 29.3955L198.943 25.5875H198.019V29.3955H196.059V19.6235H199.727C200.483 19.6235 201.127 19.7588 201.659 20.0295C202.191 20.2908 202.587 20.6502 202.849 21.1075C203.119 21.5555 203.255 22.0595 203.255 22.6195C203.255 23.2635 203.068 23.8468 202.695 24.3695C202.321 24.8828 201.766 25.2375 201.029 25.4335L203.367 29.3955H201.099ZM198.019 24.1175H199.657C200.189 24.1175 200.585 23.9915 200.847 23.7395C201.108 23.4782 201.239 23.1188 201.239 22.6615C201.239 22.2135 201.108 21.8682 200.847 21.6255C200.585 21.3735 200.189 21.2475 199.657 21.2475H198.019V24.1175ZM212.238 25.3495C212.238 25.6295 212.219 25.8815 212.182 26.1055H206.512C206.558 26.6655 206.754 27.1042 207.1 27.4215C207.445 27.7388 207.87 27.8975 208.374 27.8975C209.102 27.8975 209.62 27.5848 209.928 26.9595H212.042C211.818 27.7062 211.388 28.3222 210.754 28.8075C210.119 29.2835 209.34 29.5215 208.416 29.5215C207.669 29.5215 206.997 29.3582 206.4 29.0315C205.812 28.6955 205.35 28.2242 205.014 27.6175C204.687 27.0108 204.524 26.3108 204.524 25.5175C204.524 24.7148 204.687 24.0102 205.014 23.4035C205.34 22.7968 205.798 22.3302 206.386 22.0035C206.974 21.6768 207.65 21.5135 208.416 21.5135C209.153 21.5135 209.811 21.6722 210.39 21.9895C210.978 22.3068 211.43 22.7595 211.748 23.3475C212.074 23.9262 212.238 24.5935 212.238 25.3495ZM210.208 24.7895C210.198 24.2855 210.016 23.8842 209.662 23.5855C209.307 23.2775 208.873 23.1235 208.36 23.1235C207.874 23.1235 207.464 23.2728 207.128 23.5715C206.801 23.8608 206.6 24.2668 206.526 24.7895H210.208ZM213.164 25.5175C213.164 24.7148 213.327 24.0148 213.654 23.4175C213.981 22.8108 214.433 22.3442 215.012 22.0175C215.591 21.6815 216.253 21.5135 217 21.5135C217.961 21.5135 218.755 21.7562 219.38 22.2415C220.015 22.7175 220.439 23.3895 220.654 24.2575H218.54C218.428 23.9215 218.237 23.6602 217.966 23.4735C217.705 23.2775 217.378 23.1795 216.986 23.1795C216.426 23.1795 215.983 23.3848 215.656 23.7955C215.329 24.1968 215.166 24.7708 215.166 25.5175C215.166 26.2548 215.329 26.8288 215.656 27.2395C215.983 27.6408 216.426 27.8415 216.986 27.8415C217.779 27.8415 218.297 27.4868 218.54 26.7775H220.654C220.439 27.6175 220.015 28.2848 219.38 28.7795C218.745 29.2742 217.952 29.5215 217 29.5215C216.253 29.5215 215.591 29.3582 215.012 29.0315C214.433 28.6955 213.981 28.2288 213.654 27.6315C213.327 27.0248 213.164 26.3202 213.164 25.5175ZM225.534 29.5215C224.787 29.5215 224.115 29.3582 223.518 29.0315C222.921 28.6955 222.449 28.2242 222.104 27.6175C221.768 27.0108 221.6 26.3108 221.6 25.5175C221.6 24.7242 221.773 24.0242 222.118 23.4175C222.473 22.8108 222.953 22.3442 223.56 22.0175C224.167 21.6815 224.843 21.5135 225.59 21.5135C226.337 21.5135 227.013 21.6815 227.62 22.0175C228.227 22.3442 228.703 22.8108 229.048 23.4175C229.403 24.0242 229.58 24.7242 229.58 25.5175C229.58 26.3108 229.398 27.0108 229.034 27.6175C228.679 28.2242 228.194 28.6955 227.578 29.0315C226.971 29.3582 226.29 29.5215 225.534 29.5215ZM225.534 27.8135C225.889 27.8135 226.22 27.7295 226.528 27.5615C226.845 27.3842 227.097 27.1228 227.284 26.7775C227.471 26.4322 227.564 26.0122 227.564 25.5175C227.564 24.7802 227.368 24.2155 226.976 23.8235C226.593 23.4222 226.122 23.2215 225.562 23.2215C225.002 23.2215 224.531 23.4222 224.148 23.8235C223.775 24.2155 223.588 24.7802 223.588 25.5175C223.588 26.2548 223.77 26.8242 224.134 27.2255C224.507 27.6175 224.974 27.8135 225.534 27.8135ZM240.65 21.5275C241.602 21.5275 242.367 21.8215 242.946 22.4095C243.534 22.9882 243.828 23.8002 243.828 24.8455V29.3955H241.868V25.1115C241.868 24.5048 241.714 24.0428 241.406 23.7255C241.098 23.3988 240.678 23.2355 240.146 23.2355C239.614 23.2355 239.189 23.3988 238.872 23.7255C238.564 24.0428 238.41 24.5048 238.41 25.1115V29.3955H236.45V25.1115C236.45 24.5048 236.296 24.0428 235.988 23.7255C235.68 23.3988 235.26 23.2355 234.728 23.2355C234.186 23.2355 233.757 23.3988 233.44 23.7255C233.132 24.0428 232.978 24.5048 232.978 25.1115V29.3955H231.018V21.6395H232.978V22.5775C233.23 22.2508 233.552 21.9942 233.944 21.8075C234.345 21.6208 234.784 21.5275 235.26 21.5275C235.866 21.5275 236.408 21.6582 236.884 21.9195C237.36 22.1715 237.728 22.5355 237.99 23.0115C238.242 22.5635 238.606 22.2042 239.082 21.9335C239.567 21.6628 240.09 21.5275 240.65 21.5275ZM255.32 21.5275C256.272 21.5275 257.037 21.8215 257.616 22.4095C258.204 22.9882 258.498 23.8002 258.498 24.8455V29.3955H256.538V25.1115C256.538 24.5048 256.384 24.0428 256.076 23.7255C255.768 23.3988 255.348 23.2355 254.816 23.2355C254.284 23.2355 253.859 23.3988 253.542 23.7255C253.234 24.0428 253.08 24.5048 253.08 25.1115V29.3955H251.12V25.1115C251.12 24.5048 250.966 24.0428 250.658 23.7255C250.35 23.3988 249.93 23.2355 249.398 23.2355C248.856 23.2355 248.427 23.3988 248.11 23.7255C247.802 24.0428 247.648 24.5048 247.648 25.1115V29.3955H245.688V21.6395H247.648V22.5775C247.9 22.2508 248.222 21.9942 248.614 21.8075C249.015 21.6208 249.454 21.5275 249.93 21.5275C250.536 21.5275 251.078 21.6582 251.554 21.9195C252.03 22.1715 252.398 22.5355 252.66 23.0115C252.912 22.5635 253.276 22.2042 253.752 21.9335C254.237 21.6628 254.76 21.5275 255.32 21.5275ZM267.568 25.3495C267.568 25.6295 267.549 25.8815 267.512 26.1055H261.842C261.888 26.6655 262.084 27.1042 262.43 27.4215C262.775 27.7388 263.2 27.8975 263.704 27.8975C264.432 27.8975 264.95 27.5848 265.258 26.9595H267.372C267.148 27.7062 266.718 28.3222 266.084 28.8075C265.449 29.2835 264.67 29.5215 263.746 29.5215C262.999 29.5215 262.327 29.3582 261.73 29.0315C261.142 28.6955 260.68 28.2242 260.344 27.6175C260.017 27.0108 259.854 26.3108 259.854 25.5175C259.854 24.7148 260.017 24.0102 260.344 23.4035C260.67 22.7968 261.128 22.3302 261.716 22.0035C262.304 21.6768 262.98 21.5135 263.746 21.5135C264.483 21.5135 265.141 21.6722 265.72 21.9895C266.308 22.3068 266.76 22.7595 267.078 23.3475C267.404 23.9262 267.568 24.5935 267.568 25.3495ZM265.538 24.7895C265.528 24.2855 265.346 23.8842 264.992 23.5855C264.637 23.2775 264.203 23.1235 263.69 23.1235C263.204 23.1235 262.794 23.2728 262.458 23.5715C262.131 23.8608 261.93 24.2668 261.856 24.7895H265.538ZM273.296 21.5275C274.22 21.5275 274.967 21.8215 275.536 22.4095C276.106 22.9882 276.39 23.8002 276.39 24.8455V29.3955H274.43V25.1115C274.43 24.4955 274.276 24.0242 273.968 23.6975C273.66 23.3615 273.24 23.1935 272.708 23.1935C272.167 23.1935 271.738 23.3615 271.42 23.6975C271.112 24.0242 270.958 24.4955 270.958 25.1115V29.3955H268.998V21.6395H270.958V22.6055C271.22 22.2695 271.551 22.0082 271.952 21.8215C272.363 21.6255 272.811 21.5275 273.296 21.5275ZM277.75 25.4895C277.75 24.7055 277.904 24.0102 278.212 23.4035C278.529 22.7968 278.959 22.3302 279.5 22.0035C280.041 21.6768 280.643 21.5135 281.306 21.5135C281.81 21.5135 282.291 21.6255 282.748 21.8495C283.205 22.0642 283.569 22.3535 283.84 22.7175V19.0355H285.828V29.3955H283.84V28.2475C283.597 28.6302 283.257 28.9382 282.818 29.1715C282.379 29.4048 281.871 29.5215 281.292 29.5215C280.639 29.5215 280.041 29.3535 279.5 29.0175C278.959 28.6815 278.529 28.2102 278.212 27.6035C277.904 26.9875 277.75 26.2828 277.75 25.4895ZM283.854 25.5175C283.854 25.0415 283.761 24.6355 283.574 24.2995C283.387 23.9542 283.135 23.6928 282.818 23.5155C282.501 23.3288 282.16 23.2355 281.796 23.2355C281.432 23.2355 281.096 23.3242 280.788 23.5015C280.48 23.6788 280.228 23.9402 280.032 24.2855C279.845 24.6215 279.752 25.0228 279.752 25.4895C279.752 25.9562 279.845 26.3668 280.032 26.7215C280.228 27.0668 280.48 27.3328 280.788 27.5195C281.105 27.7062 281.441 27.7995 281.796 27.7995C282.16 27.7995 282.501 27.7108 282.818 27.5335C283.135 27.3468 283.387 27.0855 283.574 26.7495C283.761 26.4042 283.854 25.9935 283.854 25.5175ZM294.952 25.3495C294.952 25.6295 294.934 25.8815 294.896 26.1055H289.226C289.273 26.6655 289.469 27.1042 289.814 27.4215C290.16 27.7388 290.584 27.8975 291.088 27.8975C291.816 27.8975 292.334 27.5848 292.642 26.9595H294.756C294.532 27.7062 294.103 28.3222 293.468 28.8075C292.834 29.2835 292.054 29.5215 291.13 29.5215C290.384 29.5215 289.712 29.3582 289.114 29.0315C288.526 28.6955 288.064 28.2242 287.728 27.6175C287.402 27.0108 287.238 26.3108 287.238 25.5175C287.238 24.7148 287.402 24.0102 287.728 23.4035C288.055 22.7968 288.512 22.3302 289.1 22.0035C289.688 21.6768 290.365 21.5135 291.13 21.5135C291.868 21.5135 292.526 21.6722 293.104 21.9895C293.692 22.3068 294.145 22.7595 294.462 23.3475C294.789 23.9262 294.952 24.5935 294.952 25.3495ZM292.922 24.7895C292.913 24.2855 292.731 23.8842 292.376 23.5855C292.022 23.2775 291.588 23.1235 291.074 23.1235C290.589 23.1235 290.178 23.2728 289.842 23.5715C289.516 23.8608 289.315 24.2668 289.24 24.7895H292.922ZM295.879 25.4895C295.879 24.7055 296.033 24.0102 296.341 23.4035C296.658 22.7968 297.088 22.3302 297.629 22.0035C298.17 21.6768 298.772 21.5135 299.435 21.5135C299.939 21.5135 300.42 21.6255 300.877 21.8495C301.334 22.0642 301.698 22.3535 301.969 22.7175V19.0355H303.957V29.3955H301.969V28.2475C301.726 28.6302 301.386 28.9382 300.947 29.1715C300.508 29.4048 300 29.5215 299.421 29.5215C298.768 29.5215 298.17 29.3535 297.629 29.0175C297.088 28.6815 296.658 28.2102 296.341 27.6035C296.033 26.9875 295.879 26.2828 295.879 25.4895ZM301.983 25.5175C301.983 25.0415 301.89 24.6355 301.703 24.2995C301.516 23.9542 301.264 23.6928 300.947 23.5155C300.63 23.3288 300.289 23.2355 299.925 23.2355C299.561 23.2355 299.225 23.3242 298.917 23.5015C298.609 23.6788 298.357 23.9402 298.161 24.2855C297.974 24.6215 297.881 25.0228 297.881 25.4895C297.881 25.9562 297.974 26.3668 298.161 26.7215C298.357 27.0668 298.609 27.3328 298.917 27.5195C299.234 27.7062 299.57 27.7995 299.925 27.7995C300.289 27.7995 300.63 27.7108 300.947 27.5335C301.264 27.3468 301.516 27.0855 301.703 26.7495C301.89 26.4042 301.983 25.9935 301.983 25.5175Z" fill="white"/>
<path d="M94.5354 26.4166C86.508 36.081 75.1301 45.1584 61.9964 45.3035C53.6032 45.3962 44.849 39.5439 42.1785 31.5343C39.6564 23.9697 40.2738 15.2408 47.2005 10.4022C50.811 7.88023 55.0617 7.26813 58.4349 10.5389C63.5884 15.5358 62.2055 25.6426 59.4902 31.4594C51.0162 49.6124 30.7119 63.8714 10.6855 64.7481" stroke="url(#paint1_linear_881_3989)" stroke-width="3" stroke-linecap="round"/>
<path d="M24.3145 70.9565C20.9886 69.8604 13.4753 67.1228 10.0293 64.9413" stroke="url(#paint2_linear_881_3989)" stroke-width="3" stroke-linecap="round"/>
<path d="M10.0293 64.9414C12.5641 62.5089 18.1787 56.778 20.359 53.3136" stroke="url(#paint3_linear_881_3989)" stroke-width="3" stroke-linecap="round"/>
<defs>
<linearGradient id="paint0_linear_881_3989" x1="102.055" y1="24.8955" x2="353.055" y2="24.8955" gradientUnits="userSpaceOnUse">
<stop stop-color="#0058FF"/>
<stop offset="0.918269" stop-color="#0492FF"/>
</linearGradient>
<linearGradient id="paint1_linear_881_3989" x1="44.6391" y1="10.0268" x2="54.9919" y2="55.431" gradientUnits="userSpaceOnUse">
<stop stop-color="#21C8F6"/>
<stop offset="1" stop-color="#035AFF"/>
</linearGradient>
<linearGradient id="paint2_linear_881_3989" x1="16.183" y1="63.5382" x2="18.1928" y2="72.3524" gradientUnits="userSpaceOnUse">
<stop stop-color="#21C8F6"/>
<stop offset="1" stop-color="#035AFF"/>
</linearGradient>
<linearGradient id="paint3_linear_881_3989" x1="14.2053" y1="54.7168" x2="16.215" y2="63.531" gradientUnits="userSpaceOnUse">
<stop stop-color="#21C8F6"/>
<stop offset="1" stop-color="#035AFF"/>
</linearGradient>
</defs>
</svg>
