<svg width="42" height="36" viewBox="0 0 42 36" fill="none" xmlns="http://www.w3.org/2000/svg">
<path d="M35.6294 17.9833H31.1683C30.9661 17.9833 30.8018 18.1476 30.8018 18.3498C30.5996 25.528 24.483 31.2401 17.1279 30.7473C10.3794 30.2797 5.07165 24.4158 5.23594 17.6674C5.26121 16.4668 5.46341 15.3168 5.79199 14.2173C6.33541 12.4607 7.24531 10.8683 8.43325 9.52874C10.7838 6.87485 14.196 5.20669 18.0125 5.20669C21.8291 5.20669 24.2429 6.43254 26.4924 8.42928C26.8841 8.7705 27.2506 9.13698 27.5918 9.52874L31.282 5.83857C30.9282 5.45944 30.5617 5.09295 30.1826 4.7391C26.9726 1.79454 22.7011 0 17.9999 0C13.2987 0 8.01621 2.24949 4.71779 5.83857C3.52986 7.14024 2.53149 8.6062 1.7606 10.2112C0.484201 12.8651 -0.147681 15.8728 0.0292456 19.0575C0.534749 27.9923 7.75082 35.3094 16.673 35.954C27.0863 36.6869 35.7684 28.5736 35.9832 18.3877C35.9832 18.1729 35.8063 17.9959 35.6041 17.9959L35.6294 17.9833Z" fill="url(#paint0_linear_1475_5159)"/>
<path d="M41.2271 2.3252C41.5557 2.3252 41.7326 2.7296 41.4925 2.96972L34.2512 10.2111L30.2324 14.2172L21.6768 22.7728L21.007 23.4426C19.3641 25.0981 16.6849 25.0981 15.0294 23.4426L14.347 22.7602L8.20508 16.6183L8.62212 16.2013C10.4167 14.4067 13.3233 14.4067 15.1052 16.2013L18.0119 19.1079L27.5912 9.52863L34.6808 2.43894C34.7567 2.36311 34.8451 2.3252 34.9462 2.3252H41.2145H41.2271Z" fill="url(#paint1_linear_1475_5159)"/>
<path opacity="0.1" d="M31.2955 5.82604L27.6053 9.51622C27.2641 9.12445 26.8976 8.75796 26.5059 8.41674L30.196 4.72656C30.5752 5.08042 30.9417 5.44691 31.2955 5.82604Z" fill="#181919"/>
<defs>
<linearGradient id="paint0_linear_1475_5159" x1="18.0252" y1="-0.379128" x2="18.0252" y2="34.4501" gradientUnits="userSpaceOnUse">
<stop stop-color="#0A58EB"/>
</linearGradient>
<linearGradient id="paint1_linear_1475_5159" x1="24.912" y1="0.126253" x2="24.912" y2="34.9555" gradientUnits="userSpaceOnUse">
<stop stop-color="#0A58EB"/>
</linearGradient>
</defs>
</svg>
