<svg width="179" height="36" viewBox="0 0 179 36" fill="none" xmlns="http://www.w3.org/2000/svg">
<path d="M56.4434 29.2055C53.1829 29.2055 50.4785 28.1313 48.3427 25.9703C46.1943 23.8092 45.1201 21.1553 45.1201 17.9707C45.1201 14.786 46.1943 12.1321 48.3427 9.97106C50.4911 7.82267 53.1829 6.73584 56.4434 6.73584C59.7039 6.73584 60.2094 7.20343 61.8776 8.12598C63.5331 9.04852 64.8348 10.3123 65.7573 11.9046L62.6611 13.6992C62.0798 12.625 61.2457 11.7782 60.1462 11.1464C59.0467 10.5145 57.8083 10.1985 56.456 10.1985C54.1434 10.1985 52.273 10.9315 50.8449 12.3975C49.4169 13.8634 48.6966 15.7212 48.6966 17.958C48.6966 20.1949 49.4169 22.0653 50.8449 23.5186C52.273 24.9719 54.1434 25.7175 56.456 25.7175C58.7687 25.7175 59.0594 25.4016 60.1715 24.7697C61.2836 24.1378 62.1177 23.2911 62.6737 22.2169L65.7699 23.9735C64.86 25.5659 63.5836 26.8296 61.9155 27.7648C60.2473 28.7 58.4401 29.1676 56.456 29.1676L56.4434 29.2055Z" fill="white"/>
<path d="M75.741 29.2055C73.4663 29.2055 71.5454 28.4219 69.953 26.8549C68.3607 25.2878 67.5771 23.3542 67.5771 21.0668C67.5771 18.7794 68.3733 16.8459 69.953 15.2788C71.5327 13.7118 73.4663 12.9282 75.741 12.9282C78.0158 12.9282 79.962 13.7118 81.5417 15.2788C83.1214 16.8459 83.9049 18.7794 83.9049 21.0668C83.9049 23.3542 83.1214 25.2878 81.5417 26.8549C79.962 28.4219 78.0284 29.2055 75.741 29.2055ZM72.3036 24.5674C73.2262 25.49 74.3762 25.9576 75.741 25.9576C77.1059 25.9576 78.2433 25.49 79.1785 24.5674C80.101 23.6449 80.5686 22.4696 80.5686 21.0668C80.5686 19.6641 80.101 18.5014 79.1785 17.5662C78.2559 16.631 77.1059 16.1761 75.741 16.1761C74.3762 16.1761 73.2388 16.6437 72.3036 17.5662C71.3811 18.4888 70.9135 19.6641 70.9135 21.0668C70.9135 22.4696 71.3811 23.6323 72.3036 24.5674Z" fill="white"/>
<path d="M103.822 12.9408C105.579 12.9408 106.982 13.5095 108.056 14.6469C109.13 15.7843 109.661 17.3008 109.661 19.2217V28.8136H106.324V19.4365C106.324 18.3623 106.059 17.5409 105.516 16.9469C104.985 16.3529 104.252 16.0623 103.317 16.0623C102.382 16.0623 101.459 16.4035 100.852 17.0859C100.246 17.7684 99.9425 18.792 99.9425 20.1442V28.801H96.6062V19.4239C96.6062 18.3497 96.3534 17.5282 95.8479 16.9343C95.3424 16.3403 94.6221 16.0496 93.6995 16.0496C92.777 16.0496 91.8671 16.3909 91.2226 17.0859C90.578 17.781 90.2621 18.792 90.2621 20.1316V28.7883H86.9258V13.3199H90.2621V15.1777C91.2478 13.6738 92.7264 12.9155 94.6853 12.9155C96.6441 12.9155 98.1227 13.7243 99.0831 15.3546C100.119 13.7243 101.699 12.9155 103.822 12.9155V12.9408Z" fill="white"/>
<path d="M121.994 12.9409C124.117 12.9409 125.937 13.7244 127.441 15.3041C128.945 16.8838 129.703 18.8047 129.703 21.0668C129.703 23.329 128.945 25.2878 127.441 26.8549C125.937 28.4219 124.117 29.2055 121.994 29.2055C119.871 29.2055 117.836 28.3461 116.585 26.6021V34.9808H113.249V13.3326H116.585V15.5568C117.836 13.8002 119.644 12.9282 121.994 12.9282V12.9409ZM117.975 24.618C118.898 25.5532 120.073 26.0208 121.476 26.0208C122.879 26.0208 124.042 25.5532 124.977 24.618C125.899 23.6828 126.367 22.4949 126.367 21.0795C126.367 19.6641 125.899 18.4761 124.977 17.5409C124.054 16.6058 122.879 16.1382 121.476 16.1382C120.073 16.1382 118.911 16.6058 117.975 17.5409C117.053 18.4761 116.585 19.6641 116.585 21.0795C116.585 22.4949 117.053 23.6828 117.975 24.618Z" fill="white"/>
<path d="M132.724 28.8137V6.24292H136.06V28.8137H132.724Z" fill="white"/>
<path d="M140.155 21.0163V17.7937H151.592V21.0163H140.155Z" fill="white"/>
<path d="M169.095 28.8137L167.566 24.4538H158.366L156.85 28.8137H152.982L160.843 7.16553H165.115L172.937 28.8137H169.108H169.095ZM159.541 21.1048H166.404L162.979 11.3359L159.541 21.1048Z" fill="white"/>
<path d="M178.371 7.15283H175.035V28.801H178.371V7.15283Z" fill="white"/>
<path d="M35.6294 17.9833H31.1683C30.9661 17.9833 30.8018 18.1476 30.8018 18.3498C30.5996 25.528 24.483 31.2401 17.1279 30.7473C10.3794 30.2797 5.07165 24.4158 5.23594 17.6674C5.26121 16.4668 5.46341 15.3168 5.79199 14.2173C6.33541 12.4607 7.24531 10.8683 8.43325 9.52874C10.7838 6.87485 14.196 5.20669 18.0125 5.20669C21.8291 5.20669 24.2429 6.43254 26.4924 8.42928C26.8841 8.7705 27.2506 9.13698 27.5918 9.52874L31.282 5.83857C30.9282 5.45944 30.5617 5.09295 30.1826 4.7391C26.9726 1.79454 22.7011 0 17.9999 0C13.2987 0 8.01621 2.24949 4.71779 5.83857C3.52986 7.14024 2.53149 8.6062 1.7606 10.2112C0.484201 12.8651 -0.147681 15.8728 0.0292456 19.0575C0.534749 27.9923 7.75082 35.3094 16.673 35.954C27.0863 36.6869 35.7684 28.5736 35.9832 18.3877C35.9832 18.1729 35.8063 17.9959 35.6041 17.9959L35.6294 17.9833Z" fill="url(#paint0_linear_2018_1925)"/>
<path d="M41.2281 2.3252C41.5567 2.3252 41.7336 2.7296 41.4935 2.96972L34.2521 10.2111L30.2334 14.2172L21.6777 22.7728L21.0079 23.4426C19.3651 25.0981 16.6859 25.0981 15.0304 23.4426L14.3479 22.7602L8.20605 16.6183L8.62309 16.2013C10.4176 14.4067 13.3243 14.4067 15.1062 16.2013L18.0128 19.1079L27.5921 9.52863L34.6818 2.43894C34.7576 2.36311 34.8461 2.3252 34.9472 2.3252H41.2155H41.2281Z" fill="url(#paint1_linear_2018_1925)"/>
<path opacity="0.1" d="M31.2945 5.82604L27.6044 9.51622C27.2631 9.12445 26.8966 8.75796 26.5049 8.41674L30.1951 4.72656C30.5742 5.08042 30.9407 5.44691 31.2945 5.82604Z" fill="#181919"/>
<defs>
<linearGradient id="paint0_linear_2018_1925" x1="18.0252" y1="-0.379128" x2="18.0252" y2="34.4501" gradientUnits="userSpaceOnUse">
<stop stop-color="white"/>
</linearGradient>
<linearGradient id="paint1_linear_2018_1925" x1="24.913" y1="0.126253" x2="24.913" y2="34.9555" gradientUnits="userSpaceOnUse">
<stop stop-color="white"/>
</linearGradient>
</defs>
</svg>
