<svg width="519" height="403" viewBox="0 0 519 403" fill="none" xmlns="http://www.w3.org/2000/svg">
<rect x="2.63415" y="2.55041" width="513.61" height="397.61" rx="14.3049" fill="white"/>
<rect x="2.63415" y="2.55041" width="513.61" height="397.61" rx="14.3049" stroke="#CECECE" stroke-width="3.73171"/>
<g clip-path="url(#clip0_975_2631)">
<g clip-path="url(#clip1_975_2631)">
<rect width="637.001" height="413.713" transform="translate(-133.84 17.2715)" fill="white"/>
<g clip-path="url(#clip2_975_2631)">
<rect width="509.348" height="413.713" transform="translate(-6.1875 17.2715)" fill="white"/>
<g filter="url(#filter0_d_975_2631)">
<path d="M48.332 149.059H46.0883C45.9866 149.059 45.9039 149.142 45.9039 149.243C45.8022 152.854 42.7259 155.727 39.0266 155.479C35.6325 155.244 32.9629 152.294 33.0455 148.9C33.0582 148.296 33.1599 147.718 33.3252 147.165C33.5985 146.282 34.0562 145.481 34.6536 144.807C35.8359 143.472 37.552 142.633 39.4716 142.633C41.3911 142.633 42.6051 143.25 43.7365 144.254C43.9335 144.426 44.1179 144.61 44.2895 144.807L46.1455 142.951C45.9675 142.76 45.7832 142.576 45.5925 142.398C43.978 140.917 41.8297 140.014 39.4652 140.014C37.1007 140.014 34.4439 141.146 32.7849 142.951C32.1875 143.606 31.6853 144.343 31.2976 145.15C30.6556 146.485 30.3378 147.998 30.4268 149.599C30.6811 154.093 34.3104 157.773 38.7978 158.098C44.0352 158.466 48.4019 154.386 48.5099 149.263C48.5099 149.154 48.4209 149.065 48.3193 149.065L48.332 149.059Z" fill="url(#paint0_linear_975_2631)"/>
<path d="M51.1476 141.184C51.3128 141.184 51.4018 141.387 51.281 141.508L47.639 145.15L45.6178 147.165L41.3147 151.468L40.9778 151.805C40.1515 152.638 38.804 152.638 37.9714 151.805L37.6281 151.462L34.5391 148.373L34.7488 148.163C35.6514 147.261 37.1133 147.261 38.0095 148.163L39.4714 149.625L44.2893 144.807L47.8551 141.241C47.8932 141.203 47.9377 141.184 47.9886 141.184H51.1412H51.1476Z" fill="url(#paint1_linear_975_2631)"/>
<path opacity="0.1" d="M46.1512 142.944L44.2952 144.8C44.1236 144.603 43.9392 144.419 43.7422 144.247L45.5982 142.391C45.7889 142.569 45.9732 142.754 46.1512 142.944Z" fill="#181919"/>
<rect x="63.7949" y="140.514" width="359" height="164" rx="11.5" fill="#E4E4E4"/>
<rect x="63.7949" y="140.514" width="359" height="164" rx="11.5" fill="url(#paint2_radial_975_2631)"/>
<rect x="63.7949" y="140.514" width="359" height="164" rx="11.5" fill="url(#paint3_radial_975_2631)"/>
<rect x="63.7949" y="140.514" width="359" height="164" rx="11.5" stroke="#D7D7D7"/>
<path d="M248.077 194.189C248.077 193.608 247.846 193.052 247.435 192.641C247.025 192.231 246.468 192 245.888 192C245.307 192 244.751 192.231 244.34 192.641C243.93 193.052 243.699 193.608 243.699 194.189V196.378H234.944C233.202 196.378 231.532 197.069 230.301 198.301C229.069 199.532 228.378 201.202 228.378 202.944V216.077C228.378 217.818 229.069 219.488 230.301 220.72C231.532 221.951 233.202 222.643 234.944 222.643H246.273C246.46 222.141 246.711 221.667 247.026 221.22C247.77 220.17 248.821 219.382 250.046 218.939L252.148 218.265H234.944C234.363 218.265 233.807 218.035 233.396 217.624C232.986 217.214 232.755 216.657 232.755 216.077V202.944C232.755 202.363 232.986 201.807 233.396 201.396C233.807 200.986 234.363 200.755 234.944 200.755H256.832C257.412 200.755 257.969 200.986 258.379 201.396C258.79 201.807 259.02 202.363 259.02 202.944V211.161L259.603 209.379C260.084 208.066 260.872 207.015 261.923 206.271C262.387 205.938 262.878 205.68 263.398 205.496V202.944C263.398 201.202 262.706 199.532 261.475 198.301C260.243 197.069 258.573 196.378 256.832 196.378H248.077V194.189ZM230.566 229.209H247.696C248.377 229.904 249.215 230.426 250.138 230.733L254.779 232.265C255.44 232.488 256.052 232.838 256.84 233.539L256.884 233.587H230.566C229.986 233.587 229.429 233.817 229.019 234.228C228.608 234.638 228.378 235.195 228.378 235.776V237.308C228.378 241.444 230.164 244.202 233.114 246.036C236.196 247.954 240.657 248.908 245.888 248.908C246.093 248.908 246.298 248.907 246.501 248.904C251.5 248.832 255.735 247.875 258.683 246.036C259.918 245.27 260.947 244.338 261.726 243.209L261.967 243.406C262.579 243.843 263.236 244.15 263.936 244.325C263.432 245.41 263.283 246.627 263.509 247.801C263.51 247.805 263.511 247.81 263.512 247.814C262.744 248.545 261.902 249.195 260.999 249.753C256.954 252.279 251.565 253.286 245.888 253.286C240.241 253.286 234.852 252.27 230.803 249.753C226.622 247.157 224 243.02 224 237.308V235.776C224 234.034 224.692 232.364 225.923 231.132C227.155 229.901 228.825 229.209 230.566 229.209ZM242.605 209.51C242.605 210.381 242.259 211.216 241.643 211.832C241.027 212.447 240.192 212.793 239.321 212.793C238.451 212.793 237.616 212.447 237 211.832C236.384 211.216 236.038 210.381 236.038 209.51C236.038 208.639 236.384 207.804 237 207.189C237.616 206.573 238.451 206.227 239.321 206.227C240.192 206.227 241.027 206.573 241.643 207.189C242.259 207.804 242.605 208.639 242.605 209.51ZM252.454 212.793C253.325 212.793 254.16 212.447 254.776 211.832C255.391 211.216 255.737 210.381 255.737 209.51C255.737 208.639 255.391 207.804 254.776 207.189C254.16 206.573 253.325 206.227 252.454 206.227C251.583 206.227 250.748 206.573 250.133 207.189C249.517 207.804 249.171 208.639 249.171 209.51C249.171 210.381 249.517 211.216 250.133 211.832C250.748 212.447 251.583 212.793 252.454 212.793Z" fill="#B8B8B8"/>
<path d="M259.603 209.379L259.02 211.161V215.954H263.398V205.496C262.878 205.68 262.387 205.938 261.923 206.271C260.872 207.015 260.084 208.066 259.603 209.379Z" fill="#B8B8B8"/>
<path d="M261.475 220.597C262.706 219.365 263.398 217.695 263.398 215.954H259.02C259.02 216.534 258.79 217.091 258.379 217.501C257.969 217.912 257.412 218.142 256.832 218.142V222.52C258.573 222.52 260.243 221.828 261.475 220.597Z" fill="#B8B8B8"/>
<path d="M247.026 221.22C246.711 221.667 246.46 222.141 246.273 222.643L256.832 222.52V218.142L252.148 218.265L250.046 218.939C248.821 219.382 247.77 220.17 247.026 221.22Z" fill="#B8B8B8"/>
<path d="M246.501 248.904C251.5 248.832 255.735 247.875 258.683 246.036C259.918 245.27 260.947 244.338 261.726 243.209L261.967 243.406C262.579 243.843 263.236 244.15 263.936 244.325C263.432 245.41 263.283 246.627 263.509 247.801C266.186 245.248 267.776 241.755 267.776 237.308V235.776C267.776 234.034 267.084 232.364 265.852 231.132C264.621 229.901 262.951 229.209 261.209 229.209V233.587C261.79 233.587 262.346 233.817 262.757 234.228C263.167 234.638 263.398 235.195 263.398 235.776V237.308C263.398 241.444 261.612 244.202 258.661 246.036C255.701 247.878 251.468 248.832 246.501 248.904Z" fill="#B8B8B8"/>
<path d="M247.696 229.209C248.377 229.904 249.215 230.426 250.138 230.733L254.779 232.265C255.44 232.488 256.052 232.838 256.84 233.539L256.884 233.587H261.209V229.209H247.696Z" fill="#B8B8B8"/>
<rect x="260.143" y="181" width="40.8571" height="14.1429" rx="7.07143" fill="white"/>
<circle cx="268.787" cy="188.071" r="2.35714" fill="#F1F0F0"/>
<circle cx="276.644" cy="188.071" r="2.35714" fill="#E3E3E3"/>
<circle cx="284.502" cy="188.071" r="2.35714" fill="#C2C2C2"/>
<circle cx="292.359" cy="188.071" r="2.35714" fill="#B8B8B8"/>
</g>
<g filter="url(#filter1_d_975_2631)">
<path d="M89 58.635C89 51.753 94.579 46.1741 101.461 46.1741H486.539C493.421 46.1741 499 51.753 499 58.635V112.897C499 119.779 493.421 125.358 486.539 125.358H101.461C94.579 125.358 89 119.779 89 112.897V58.635Z" fill="#F8F9FF" shape-rendering="crispEdges"/>
<path d="M101.461 46.9075H486.539C493.016 46.9075 498.267 52.1578 498.267 58.635V112.897C498.267 119.374 493.016 124.625 486.539 124.625H101.461C94.9838 124.625 89.7334 119.374 89.7334 112.897V58.635C89.7334 52.1578 94.9838 46.9075 101.461 46.9075Z" stroke="#F0F0F0" stroke-width="1.46599" shape-rendering="crispEdges"/>
<path d="M114.302 67.1024V74.7659H113.302V67.1024H114.302ZM116.447 66.0139L116.315 68.2019H115.623L115.48 66.0139H116.447ZM119.869 73.8423L121.738 68.7406H122.804L120.44 74.7659H119.275L116.911 68.7406H117.989L119.869 73.8423ZM129.22 71.5224C129.22 71.7129 129.209 71.9145 129.187 72.1271H124.372C124.408 72.7208 124.61 73.1863 124.976 73.5234C125.35 73.8533 125.801 74.0182 126.329 74.0182C126.761 74.0182 127.12 73.9193 127.406 73.7213C127.699 73.5161 127.905 73.2449 128.022 72.9077H129.099C128.938 73.4868 128.616 73.9596 128.132 74.3261C127.648 74.6852 127.047 74.8648 126.329 74.8648C125.757 74.8648 125.244 74.7365 124.789 74.48C124.342 74.2235 123.99 73.8606 123.734 73.3915C123.477 72.9151 123.349 72.3653 123.349 71.7423C123.349 71.1192 123.474 70.5731 123.723 70.104C123.972 69.6349 124.32 69.2757 124.767 69.0265C125.222 68.77 125.742 68.6417 126.329 68.6417C126.9 68.6417 127.406 68.7663 127.846 69.0155C128.286 69.2647 128.623 69.6092 128.858 70.049C129.099 70.4815 129.22 70.9726 129.22 71.5224ZM128.187 71.3135C128.187 70.9323 128.103 70.6061 127.934 70.3349C127.765 70.0564 127.534 69.8475 127.241 69.7082C126.955 69.5616 126.637 69.4883 126.285 69.4883C125.779 69.4883 125.347 69.6496 124.987 69.9721C124.635 70.2946 124.434 70.7417 124.383 71.3135H128.187ZM138.429 68.6307C139.162 68.6307 139.756 68.8543 140.211 69.3014C140.665 69.7412 140.892 70.3789 140.892 71.2145V74.7659H139.903V71.3574C139.903 70.7564 139.752 70.2983 139.452 69.9831C139.151 69.6606 138.741 69.4993 138.221 69.4993C137.693 69.4993 137.271 69.6642 136.956 69.9941C136.648 70.3239 136.494 70.804 136.494 71.4344V74.7659H135.494V68.7406H136.494V69.5982C136.692 69.2904 136.96 69.0522 137.297 68.8836C137.641 68.715 138.019 68.6307 138.429 68.6307ZM145.089 74.8648C144.524 74.8648 144.011 74.7365 143.549 74.48C143.095 74.2235 142.736 73.8606 142.472 73.3915C142.215 72.9151 142.087 72.3653 142.087 71.7423C142.087 71.1265 142.219 70.5841 142.483 70.115C142.754 69.6386 143.12 69.2757 143.582 69.0265C144.044 68.77 144.561 68.6417 145.132 68.6417C145.704 68.6417 146.221 68.77 146.683 69.0265C147.145 69.2757 147.507 69.6349 147.771 70.104C148.042 70.5731 148.178 71.1192 148.178 71.7423C148.178 72.3653 148.039 72.9151 147.76 73.3915C147.489 73.8606 147.119 74.2235 146.65 74.48C146.181 74.7365 145.66 74.8648 145.089 74.8648ZM145.089 73.9852C145.448 73.9852 145.785 73.9009 146.1 73.7323C146.415 73.5638 146.668 73.3109 146.859 72.9737C147.057 72.6365 147.156 72.226 147.156 71.7423C147.156 71.2585 147.06 70.848 146.87 70.5108C146.679 70.1736 146.43 69.9244 146.122 69.7632C145.814 69.5946 145.481 69.5103 145.121 69.5103C144.755 69.5103 144.418 69.5946 144.11 69.7632C143.809 69.9244 143.568 70.1736 143.384 70.5108C143.201 70.848 143.109 71.2585 143.109 71.7423C143.109 72.2334 143.197 72.6475 143.373 72.9847C143.557 73.3219 143.798 73.5748 144.099 73.7433C144.399 73.9046 144.729 73.9852 145.089 73.9852ZM150.648 69.5653V73.1166C150.648 73.4098 150.71 73.6187 150.835 73.7433C150.96 73.8606 151.176 73.9193 151.484 73.9193H152.22V74.7659H151.319C150.762 74.7659 150.344 74.6376 150.065 74.381C149.787 74.1245 149.648 73.703 149.648 73.1166V69.5653H148.867V68.7406H149.648V67.2233H150.648V68.7406H152.22V69.5653H150.648ZM153.883 67.7621C153.693 67.7621 153.532 67.6961 153.4 67.5642C153.268 67.4322 153.202 67.271 153.202 67.0804C153.202 66.8898 153.268 66.7286 153.4 66.5966C153.532 66.4647 153.693 66.3987 153.883 66.3987C154.067 66.3987 154.221 66.4647 154.345 66.5966C154.477 66.7286 154.543 66.8898 154.543 67.0804C154.543 67.271 154.477 67.4322 154.345 67.5642C154.221 67.6961 154.067 67.7621 153.883 67.7621ZM154.367 68.7406V74.7659H153.367V68.7406H154.367ZM155.633 71.7423C155.633 71.1192 155.757 70.5768 156.006 70.115C156.256 69.6459 156.6 69.2831 157.04 69.0265C157.487 68.77 157.997 68.6417 158.568 68.6417C159.309 68.6417 159.917 68.8213 160.393 69.1804C160.877 69.5396 161.196 70.038 161.35 70.6758H160.273C160.17 70.3093 159.968 70.0197 159.668 69.8071C159.375 69.5946 159.008 69.4883 158.568 69.4883C157.997 69.4883 157.535 69.6862 157.183 70.082C156.831 70.4705 156.655 71.0239 156.655 71.7423C156.655 72.4679 156.831 73.0287 157.183 73.4245C157.535 73.8203 157.997 74.0182 158.568 74.0182C159.008 74.0182 159.375 73.9156 159.668 73.7104C159.961 73.5051 160.163 73.2119 160.273 72.8308H161.35C161.189 73.4465 160.866 73.9412 160.382 74.3151C159.899 74.6816 159.294 74.8648 158.568 74.8648C157.997 74.8648 157.487 74.7365 157.04 74.48C156.6 74.2235 156.256 73.8606 156.006 73.3915C155.757 72.9224 155.633 72.3726 155.633 71.7423ZM168.117 71.5224C168.117 71.7129 168.106 71.9145 168.084 72.1271H163.268C163.304 72.7208 163.506 73.1863 163.873 73.5234C164.246 73.8533 164.697 74.0182 165.225 74.0182C165.657 74.0182 166.017 73.9193 166.302 73.7213C166.596 73.5161 166.801 73.2449 166.918 72.9077H167.996C167.834 73.4868 167.512 73.9596 167.028 74.3261C166.544 74.6852 165.943 74.8648 165.225 74.8648C164.653 74.8648 164.14 74.7365 163.686 74.48C163.238 74.2235 162.887 73.8606 162.63 73.3915C162.374 72.9151 162.245 72.3653 162.245 71.7423C162.245 71.1192 162.37 70.5731 162.619 70.104C162.868 69.6349 163.216 69.2757 163.664 69.0265C164.118 68.77 164.638 68.6417 165.225 68.6417C165.797 68.6417 166.302 68.7663 166.742 69.0155C167.182 69.2647 167.519 69.6092 167.754 70.049C167.996 70.4815 168.117 70.9726 168.117 71.5224ZM167.083 71.3135C167.083 70.9323 166.999 70.6061 166.83 70.3349C166.662 70.0564 166.431 69.8475 166.137 69.7082C165.852 69.5616 165.533 69.4883 165.181 69.4883C164.675 69.4883 164.243 69.6496 163.884 69.9721C163.532 70.2946 163.33 70.7417 163.279 71.3135H167.083ZM168.997 71.7313C168.997 71.1155 169.122 70.5768 169.371 70.115C169.62 69.6459 169.961 69.2831 170.394 69.0265C170.834 68.77 171.325 68.6417 171.867 68.6417C172.336 68.6417 172.772 68.7516 173.176 68.9715C173.579 69.1841 173.887 69.4663 174.099 69.8181V66.6296H175.111V74.7659H174.099V73.6334C173.901 73.9926 173.608 74.2894 173.219 74.524C172.831 74.7512 172.377 74.8648 171.856 74.8648C171.321 74.8648 170.834 74.7329 170.394 74.469C169.961 74.2051 169.62 73.835 169.371 73.3585C169.122 72.8821 168.997 72.3397 168.997 71.7313ZM174.099 71.7423C174.099 71.2878 174.007 70.892 173.824 70.5548C173.641 70.2176 173.392 69.9611 173.077 69.7852C172.769 69.6019 172.428 69.5103 172.054 69.5103C171.68 69.5103 171.339 69.5982 171.032 69.7742C170.724 69.9501 170.478 70.2066 170.295 70.5438C170.112 70.881 170.02 71.2768 170.02 71.7313C170.02 72.1931 170.112 72.5962 170.295 72.9407C170.478 73.2779 170.724 73.5381 171.032 73.7213C171.339 73.8973 171.68 73.9852 172.054 73.9852C172.428 73.9852 172.769 73.8973 173.077 73.7213C173.392 73.5381 173.641 73.2779 173.824 72.9407C174.007 72.5962 174.099 72.1967 174.099 71.7423ZM187.098 68.7406V74.7659H186.097V73.8753C185.907 74.1831 185.639 74.425 185.295 74.6009C184.957 74.7695 184.584 74.8538 184.173 74.8538C183.704 74.8538 183.282 74.7585 182.909 74.568C182.535 74.3701 182.238 74.0769 182.018 73.6884C181.805 73.2999 181.699 72.8271 181.699 72.27V68.7406H182.689V72.1381C182.689 72.7318 182.839 73.1899 183.14 73.5124C183.44 73.8276 183.851 73.9852 184.371 73.9852C184.906 73.9852 185.328 73.8203 185.635 73.4905C185.943 73.1606 186.097 72.6805 186.097 72.0501V68.7406H187.098ZM191.657 68.6307C192.39 68.6307 192.983 68.8543 193.438 69.3014C193.892 69.7412 194.12 70.3789 194.12 71.2145V74.7659H193.13V71.3574C193.13 70.7564 192.98 70.2983 192.679 69.9831C192.379 69.6606 191.968 69.4993 191.448 69.4993C190.92 69.4993 190.499 69.6642 190.183 69.9941C189.876 70.3239 189.722 70.804 189.722 71.4344V74.7659H188.721V68.7406H189.722V69.5982C189.92 69.2904 190.187 69.0522 190.524 68.8836C190.869 68.715 191.246 68.6307 191.657 68.6307ZM201.032 68.7406V74.7659H200.031V73.8753C199.84 74.1831 199.573 74.425 199.228 74.6009C198.891 74.7695 198.517 74.8538 198.107 74.8538C197.638 74.8538 197.216 74.7585 196.842 74.568C196.469 74.3701 196.172 74.0769 195.952 73.6884C195.739 73.2999 195.633 72.8271 195.633 72.27V68.7406H196.623V72.1381C196.623 72.7318 196.773 73.1899 197.073 73.5124C197.374 73.8276 197.784 73.9852 198.305 73.9852C198.84 73.9852 199.261 73.8203 199.569 73.4905C199.877 73.1606 200.031 72.6805 200.031 72.0501V68.7406H201.032ZM204.788 74.8648C204.326 74.8648 203.912 74.7879 203.546 74.6339C203.179 74.4727 202.89 74.2528 202.677 73.9742C202.464 73.6884 202.347 73.3622 202.325 72.9957H203.359C203.388 73.2962 203.527 73.5418 203.776 73.7323C204.033 73.9229 204.366 74.0182 204.777 74.0182C205.158 74.0182 205.459 73.9339 205.679 73.7653C205.898 73.5967 206.008 73.3842 206.008 73.1276C206.008 72.8637 205.891 72.6695 205.657 72.5449C205.422 72.413 205.059 72.2847 204.568 72.1601C204.121 72.0428 203.754 71.9255 203.469 71.8082C203.19 71.6836 202.948 71.504 202.743 71.2695C202.545 71.0276 202.446 70.7124 202.446 70.3239C202.446 70.0161 202.538 69.7339 202.721 69.4773C202.904 69.2208 203.164 69.0192 203.502 68.8726C203.839 68.7187 204.224 68.6417 204.656 68.6417C205.323 68.6417 205.862 68.8103 206.272 69.1475C206.683 69.4846 206.903 69.9464 206.932 70.5328H205.931C205.909 70.2176 205.781 69.9647 205.547 69.7742C205.319 69.5836 205.012 69.4883 204.623 69.4883C204.264 69.4883 203.978 69.5653 203.765 69.7192C203.553 69.8731 203.447 70.0747 203.447 70.3239C203.447 70.5218 203.509 70.6867 203.634 70.8187C203.765 70.9433 203.927 71.0459 204.117 71.1265C204.315 71.1998 204.586 71.2841 204.931 71.3794C205.363 71.4967 205.715 71.614 205.986 71.7313C206.258 71.8412 206.489 72.0098 206.679 72.237C206.877 72.4643 206.98 72.7611 206.987 73.1276C206.987 73.4575 206.895 73.7543 206.712 74.0182C206.529 74.2821 206.269 74.491 205.931 74.6449C205.602 74.7915 205.22 74.8648 204.788 74.8648ZM213.677 68.7406V74.7659H212.676V73.8753C212.486 74.1831 212.218 74.425 211.874 74.6009C211.537 74.7695 211.163 74.8538 210.752 74.8538C210.283 74.8538 209.862 74.7585 209.488 74.568C209.114 74.3701 208.817 74.0769 208.597 73.6884C208.385 73.2999 208.278 72.8271 208.278 72.27V68.7406H209.268V72.1381C209.268 72.7318 209.418 73.1899 209.719 73.5124C210.019 73.8276 210.43 73.9852 210.95 73.9852C211.485 73.9852 211.907 73.8203 212.215 73.4905C212.522 73.1606 212.676 72.6805 212.676 72.0501V68.7406H213.677ZM214.927 71.7313C214.927 71.1155 215.051 70.5768 215.3 70.115C215.55 69.6459 215.89 69.2831 216.323 69.0265C216.763 68.77 217.25 68.6417 217.785 68.6417C218.313 68.6417 218.771 68.7553 219.16 68.9825C219.548 69.2098 219.838 69.4956 220.028 69.8401V68.7406H221.04V74.7659H220.028V73.6444C219.83 73.9962 219.533 74.2894 219.138 74.524C218.749 74.7512 218.295 74.8648 217.774 74.8648C217.239 74.8648 216.755 74.7329 216.323 74.469C215.89 74.2051 215.55 73.835 215.3 73.3585C215.051 72.8821 214.927 72.3397 214.927 71.7313ZM220.028 71.7423C220.028 71.2878 219.937 70.892 219.753 70.5548C219.57 70.2176 219.321 69.9611 219.006 69.7852C218.698 69.6019 218.357 69.5103 217.983 69.5103C217.609 69.5103 217.268 69.5982 216.961 69.7742C216.653 69.9501 216.407 70.2066 216.224 70.5438C216.041 70.881 215.949 71.2768 215.949 71.7313C215.949 72.1931 216.041 72.5962 216.224 72.9407C216.407 73.2779 216.653 73.5381 216.961 73.7213C217.268 73.8973 217.609 73.9852 217.983 73.9852C218.357 73.9852 218.698 73.8973 219.006 73.7213C219.321 73.5381 219.57 73.2779 219.753 72.9407C219.937 72.5962 220.028 72.1967 220.028 71.7423ZM223.665 66.6296V74.7659H222.665V66.6296H223.665ZM231.543 69.5653V73.1166C231.543 73.4098 231.606 73.6187 231.73 73.7433C231.855 73.8606 232.071 73.9193 232.379 73.9193H233.116V74.7659H232.214C231.657 74.7659 231.239 74.6376 230.961 74.381C230.682 74.1245 230.543 73.703 230.543 73.1166V69.5653H229.762V68.7406H230.543V67.2233H231.543V68.7406H233.116V69.5653H231.543ZM235.263 69.7192C235.439 69.3747 235.688 69.1071 236.01 68.9166C236.34 68.726 236.74 68.6307 237.209 68.6307V69.6642H236.945C235.823 69.6642 235.263 70.2726 235.263 71.4894V74.7659H234.262V68.7406H235.263V69.7192ZM237.924 71.7313C237.924 71.1155 238.049 70.5768 238.298 70.115C238.547 69.6459 238.888 69.2831 239.32 69.0265C239.76 68.77 240.247 68.6417 240.783 68.6417C241.31 68.6417 241.768 68.7553 242.157 68.9825C242.545 69.2098 242.835 69.4956 243.026 69.8401V68.7406H244.037V74.7659H243.026V73.6444C242.828 73.9962 242.531 74.2894 242.135 74.524C241.746 74.7512 241.292 74.8648 240.772 74.8648C240.237 74.8648 239.753 74.7329 239.32 74.469C238.888 74.2051 238.547 73.835 238.298 73.3585C238.049 72.8821 237.924 72.3397 237.924 71.7313ZM243.026 71.7423C243.026 71.2878 242.934 70.892 242.751 70.5548C242.567 70.2176 242.318 69.9611 242.003 69.7852C241.695 69.6019 241.354 69.5103 240.98 69.5103C240.607 69.5103 240.266 69.5982 239.958 69.7742C239.65 69.9501 239.405 70.2066 239.221 70.5438C239.038 70.881 238.946 71.2768 238.946 71.7313C238.946 72.1931 239.038 72.5962 239.221 72.9407C239.405 73.2779 239.65 73.5381 239.958 73.7213C240.266 73.8973 240.607 73.9852 240.98 73.9852C241.354 73.9852 241.695 73.8973 242.003 73.7213C242.318 73.5381 242.567 73.2779 242.751 72.9407C242.934 72.5962 243.026 72.1967 243.026 71.7423ZM248.598 68.6307C249.331 68.6307 249.924 68.8543 250.379 69.3014C250.833 69.7412 251.06 70.3789 251.06 71.2145V74.7659H250.071V71.3574C250.071 70.7564 249.921 70.2983 249.62 69.9831C249.32 69.6606 248.909 69.4993 248.389 69.4993C247.861 69.4993 247.439 69.6642 247.124 69.9941C246.816 70.3239 246.662 70.804 246.662 71.4344V74.7659H245.662V68.7406H246.662V69.5982C246.86 69.2904 247.128 69.0522 247.465 68.8836C247.81 68.715 248.187 68.6307 248.598 68.6307ZM254.762 74.8648C254.3 74.8648 253.886 74.7879 253.519 74.6339C253.153 74.4727 252.863 74.2528 252.651 73.9742C252.438 73.6884 252.321 73.3622 252.299 72.9957H253.333C253.362 73.2962 253.501 73.5418 253.75 73.7323C254.007 73.9229 254.34 74.0182 254.751 74.0182C255.132 74.0182 255.433 73.9339 255.652 73.7653C255.872 73.5967 255.982 73.3842 255.982 73.1276C255.982 72.8637 255.865 72.6695 255.63 72.5449C255.396 72.413 255.033 72.2847 254.542 72.1601C254.095 72.0428 253.728 71.9255 253.442 71.8082C253.164 71.6836 252.922 71.504 252.717 71.2695C252.519 71.0276 252.42 70.7124 252.42 70.3239C252.42 70.0161 252.512 69.7339 252.695 69.4773C252.878 69.2208 253.138 69.0192 253.475 68.8726C253.813 68.7187 254.197 68.6417 254.63 68.6417C255.297 68.6417 255.836 68.8103 256.246 69.1475C256.657 69.4846 256.877 69.9464 256.906 70.5328H255.905C255.883 70.2176 255.755 69.9647 255.521 69.7742C255.293 69.5836 254.985 69.4883 254.597 69.4883C254.238 69.4883 253.952 69.5653 253.739 69.7192C253.527 69.8731 253.42 70.0747 253.42 70.3239C253.42 70.5218 253.483 70.6867 253.607 70.8187C253.739 70.9433 253.901 71.0459 254.091 71.1265C254.289 71.1998 254.56 71.2841 254.905 71.3794C255.337 71.4967 255.689 71.614 255.96 71.7313C256.232 71.8412 256.462 72.0098 256.653 72.237C256.851 72.4643 256.954 72.7611 256.961 73.1276C256.961 73.4575 256.869 73.7543 256.686 74.0182C256.503 74.2821 256.243 74.491 255.905 74.6449C255.575 74.7915 255.194 74.8648 254.762 74.8648ZM257.933 71.7313C257.933 71.1155 258.058 70.5768 258.307 70.115C258.557 69.6459 258.897 69.2831 259.33 69.0265C259.77 68.77 260.257 68.6417 260.792 68.6417C261.32 68.6417 261.778 68.7553 262.167 68.9825C262.555 69.2098 262.845 69.4956 263.035 69.8401V68.7406H264.047V74.7659H263.035V73.6444C262.837 73.9962 262.54 74.2894 262.145 74.524C261.756 74.7512 261.302 74.8648 260.781 74.8648C260.246 74.8648 259.762 74.7329 259.33 74.469C258.897 74.2051 258.557 73.835 258.307 73.3585C258.058 72.8821 257.933 72.3397 257.933 71.7313ZM263.035 71.7423C263.035 71.2878 262.944 70.892 262.76 70.5548C262.577 70.2176 262.328 69.9611 262.013 69.7852C261.705 69.6019 261.364 69.5103 260.99 69.5103C260.616 69.5103 260.275 69.5982 259.968 69.7742C259.66 69.9501 259.414 70.2066 259.231 70.5438C259.048 70.881 258.956 71.2768 258.956 71.7313C258.956 72.1931 259.048 72.5962 259.231 72.9407C259.414 73.2779 259.66 73.5381 259.968 73.7213C260.275 73.8973 260.616 73.9852 260.99 73.9852C261.364 73.9852 261.705 73.8973 262.013 73.7213C262.328 73.5381 262.577 73.2779 262.76 72.9407C262.944 72.5962 263.035 72.1967 263.035 71.7423ZM265.298 71.7423C265.298 71.1192 265.422 70.5768 265.672 70.115C265.921 69.6459 266.265 69.2831 266.705 69.0265C267.152 68.77 267.662 68.6417 268.233 68.6417C268.974 68.6417 269.582 68.8213 270.059 69.1804C270.542 69.5396 270.861 70.038 271.015 70.6758H269.938C269.835 70.3093 269.633 70.0197 269.333 69.8071C269.04 69.5946 268.673 69.4883 268.233 69.4883C267.662 69.4883 267.2 69.6862 266.848 70.082C266.496 70.4705 266.32 71.0239 266.32 71.7423C266.32 72.4679 266.496 73.0287 266.848 73.4245C267.2 73.8203 267.662 74.0182 268.233 74.0182C268.673 74.0182 269.04 73.9156 269.333 73.7104C269.626 73.5051 269.828 73.2119 269.938 72.8308H271.015C270.854 73.4465 270.531 73.9412 270.048 74.3151C269.564 74.6816 268.959 74.8648 268.233 74.8648C267.662 74.8648 267.152 74.7365 266.705 74.48C266.265 74.2235 265.921 73.8606 265.672 73.3915C265.422 72.9224 265.298 72.3726 265.298 71.7423ZM273.505 69.5653V73.1166C273.505 73.4098 273.567 73.6187 273.691 73.7433C273.816 73.8606 274.032 73.9193 274.34 73.9193H275.077V74.7659H274.175C273.618 74.7659 273.2 74.6376 272.922 74.381C272.643 74.1245 272.504 73.703 272.504 73.1166V69.5653H271.723V68.7406H272.504V67.2233H273.505V68.7406H275.077V69.5653H273.505ZM276.74 67.7621C276.549 67.7621 276.388 67.6961 276.256 67.5642C276.124 67.4322 276.058 67.271 276.058 67.0804C276.058 66.8898 276.124 66.7286 276.256 66.5966C276.388 66.4647 276.549 66.3987 276.74 66.3987C276.923 66.3987 277.077 66.4647 277.202 66.5966C277.334 66.7286 277.4 66.8898 277.4 67.0804C277.4 67.271 277.334 67.4322 277.202 67.5642C277.077 67.6961 276.923 67.7621 276.74 67.7621ZM277.224 68.7406V74.7659H276.223V68.7406H277.224ZM281.491 74.8648C280.926 74.8648 280.413 74.7365 279.951 74.48C279.497 74.2235 279.138 73.8606 278.874 73.3915C278.617 72.9151 278.489 72.3653 278.489 71.7423C278.489 71.1265 278.621 70.5841 278.885 70.115C279.156 69.6386 279.523 69.2757 279.984 69.0265C280.446 68.77 280.963 68.6417 281.535 68.6417C282.106 68.6417 282.623 68.77 283.085 69.0265C283.547 69.2757 283.91 69.6349 284.174 70.104C284.445 70.5731 284.58 71.1192 284.58 71.7423C284.58 72.3653 284.441 72.9151 284.163 73.3915C283.891 73.8606 283.521 74.2235 283.052 74.48C282.583 74.7365 282.062 74.8648 281.491 74.8648ZM281.491 73.9852C281.85 73.9852 282.187 73.9009 282.502 73.7323C282.817 73.5638 283.07 73.3109 283.261 72.9737C283.459 72.6365 283.558 72.226 283.558 71.7423C283.558 71.2585 283.463 70.848 283.272 70.5108C283.081 70.1736 282.832 69.9244 282.524 69.7632C282.216 69.5946 281.883 69.5103 281.524 69.5103C281.157 69.5103 280.82 69.5946 280.512 69.7632C280.212 69.9244 279.97 70.1736 279.787 70.5108C279.603 70.848 279.512 71.2585 279.512 71.7423C279.512 72.2334 279.6 72.6475 279.776 72.9847C279.959 73.3219 280.201 73.5748 280.501 73.7433C280.802 73.9046 281.132 73.9852 281.491 73.9852ZM288.766 68.6307C289.499 68.6307 290.092 68.8543 290.547 69.3014C291.001 69.7412 291.228 70.3789 291.228 71.2145V74.7659H290.239V71.3574C290.239 70.7564 290.089 70.2983 289.788 69.9831C289.488 69.6606 289.077 69.4993 288.557 69.4993C288.029 69.4993 287.607 69.6642 287.292 69.9941C286.984 70.3239 286.83 70.804 286.83 71.4344V74.7659H285.83V68.7406H286.83V69.5982C287.028 69.2904 287.296 69.0522 287.633 68.8836C287.978 68.715 288.355 68.6307 288.766 68.6307ZM294.93 74.8648C294.468 74.8648 294.054 74.7879 293.687 74.6339C293.321 74.4727 293.031 74.2528 292.819 73.9742C292.606 73.6884 292.489 73.3622 292.467 72.9957H293.5C293.53 73.2962 293.669 73.5418 293.918 73.7323C294.175 73.9229 294.508 74.0182 294.919 74.0182C295.3 74.0182 295.601 73.9339 295.82 73.7653C296.04 73.5967 296.15 73.3842 296.15 73.1276C296.15 72.8637 296.033 72.6695 295.798 72.5449C295.564 72.413 295.201 72.2847 294.71 72.1601C294.263 72.0428 293.896 71.9255 293.61 71.8082C293.332 71.6836 293.09 71.504 292.885 71.2695C292.687 71.0276 292.588 70.7124 292.588 70.3239C292.588 70.0161 292.68 69.7339 292.863 69.4773C293.046 69.2208 293.306 69.0192 293.643 68.8726C293.981 68.7187 294.365 68.6417 294.798 68.6417C295.465 68.6417 296.004 68.8103 296.414 69.1475C296.825 69.4846 297.045 69.9464 297.074 70.5328H296.073C296.051 70.2176 295.923 69.9647 295.688 69.7742C295.461 69.5836 295.153 69.4883 294.765 69.4883C294.406 69.4883 294.12 69.5653 293.907 69.7192C293.695 69.8731 293.588 70.0747 293.588 70.3239C293.588 70.5218 293.651 70.6867 293.775 70.8187C293.907 70.9433 294.069 71.0459 294.259 71.1265C294.457 71.1998 294.728 71.2841 295.073 71.3794C295.505 71.4967 295.857 71.614 296.128 71.7313C296.399 71.8412 296.63 72.0098 296.821 72.237C297.019 72.4643 297.121 72.7611 297.129 73.1276C297.129 73.4575 297.037 73.7543 296.854 74.0182C296.671 74.2821 296.41 74.491 296.073 74.6449C295.743 74.7915 295.362 74.8648 294.93 74.8648ZM304.011 67.7621C303.82 67.7621 303.659 67.6961 303.527 67.5642C303.395 67.4322 303.329 67.271 303.329 67.0804C303.329 66.8898 303.395 66.7286 303.527 66.5966C303.659 66.4647 303.82 66.3987 304.011 66.3987C304.194 66.3987 304.348 66.4647 304.473 66.5966C304.604 66.7286 304.67 66.8898 304.67 67.0804C304.67 67.271 304.604 67.4322 304.473 67.5642C304.348 67.6961 304.194 67.7621 304.011 67.7621ZM304.495 68.7406V74.7659H303.494V68.7406H304.495ZM309.069 68.6307C309.802 68.6307 310.396 68.8543 310.851 69.3014C311.305 69.7412 311.532 70.3789 311.532 71.2145V74.7659H310.543V71.3574C310.543 70.7564 310.393 70.2983 310.092 69.9831C309.791 69.6606 309.381 69.4993 308.861 69.4993C308.333 69.4993 307.911 69.6642 307.596 69.9941C307.288 70.3239 307.134 70.804 307.134 71.4344V74.7659H306.134V68.7406H307.134V69.5982C307.332 69.2904 307.6 69.0522 307.937 68.8836C308.281 68.715 308.659 68.6307 309.069 68.6307ZM317.746 71.7313C317.746 71.1155 317.87 70.5768 318.119 70.115C318.369 69.6459 318.709 69.2831 319.142 69.0265C319.582 68.77 320.069 68.6417 320.604 68.6417C321.132 68.6417 321.59 68.7553 321.979 68.9825C322.367 69.2098 322.657 69.4956 322.847 69.8401V68.7406H323.859V74.7659H322.847V73.6444C322.649 73.9962 322.352 74.2894 321.957 74.524C321.568 74.7512 321.114 74.8648 320.593 74.8648C320.058 74.8648 319.574 74.7329 319.142 74.469C318.709 74.2051 318.369 73.835 318.119 73.3585C317.87 72.8821 317.746 72.3397 317.746 71.7313ZM322.847 71.7423C322.847 71.2878 322.756 70.892 322.572 70.5548C322.389 70.2176 322.14 69.9611 321.825 69.7852C321.517 69.6019 321.176 69.5103 320.802 69.5103C320.428 69.5103 320.088 69.5982 319.78 69.7742C319.472 69.9501 319.226 70.2066 319.043 70.5438C318.86 70.881 318.768 71.2768 318.768 71.7313C318.768 72.1931 318.86 72.5962 319.043 72.9407C319.226 73.2779 319.472 73.5381 319.78 73.7213C320.088 73.8973 320.428 73.9852 320.802 73.9852C321.176 73.9852 321.517 73.8973 321.825 73.7213C322.14 73.5381 322.389 73.2779 322.572 72.9407C322.756 72.5962 322.847 72.1967 322.847 71.7423ZM330.128 71.7423C330.128 71.1192 330.253 70.5768 330.502 70.115C330.752 69.6459 331.096 69.2831 331.536 69.0265C331.983 68.77 332.492 68.6417 333.064 68.6417C333.804 68.6417 334.413 68.8213 334.889 69.1804C335.373 69.5396 335.692 70.038 335.846 70.6758H334.768C334.666 70.3093 334.464 70.0197 334.164 69.8071C333.87 69.5946 333.504 69.4883 333.064 69.4883C332.492 69.4883 332.031 69.6862 331.679 70.082C331.327 70.4705 331.151 71.0239 331.151 71.7423C331.151 72.4679 331.327 73.0287 331.679 73.4245C332.031 73.8203 332.492 74.0182 333.064 74.0182C333.504 74.0182 333.87 73.9156 334.164 73.7104C334.457 73.5051 334.658 73.2119 334.768 72.8308H335.846C335.685 73.4465 335.362 73.9412 334.878 74.3151C334.395 74.6816 333.79 74.8648 333.064 74.8648C332.492 74.8648 331.983 74.7365 331.536 74.48C331.096 74.2235 330.752 73.8606 330.502 73.3915C330.253 72.9224 330.128 72.3726 330.128 71.7423ZM338.115 66.6296V74.7659H337.115V66.6296H338.115ZM340.271 67.7621C340.081 67.7621 339.92 67.6961 339.788 67.5642C339.656 67.4322 339.59 67.271 339.59 67.0804C339.59 66.8898 339.656 66.7286 339.788 66.5966C339.92 66.4647 340.081 66.3987 340.271 66.3987C340.455 66.3987 340.609 66.4647 340.733 66.5966C340.865 66.7286 340.931 66.8898 340.931 67.0804C340.931 67.271 340.865 67.4322 340.733 67.5642C340.609 67.6961 340.455 67.7621 340.271 67.7621ZM340.755 68.7406V74.7659H339.755V68.7406H340.755ZM347.892 71.5224C347.892 71.7129 347.881 71.9145 347.859 72.1271H343.043C343.08 72.7208 343.281 73.1863 343.648 73.5234C344.022 73.8533 344.473 74.0182 345 74.0182C345.433 74.0182 345.792 73.9193 346.078 73.7213C346.371 73.5161 346.576 73.2449 346.694 72.9077H347.771C347.61 73.4868 347.287 73.9596 346.804 74.3261C346.32 74.6852 345.719 74.8648 345 74.8648C344.429 74.8648 343.916 74.7365 343.461 74.48C343.014 74.2235 342.662 73.8606 342.406 73.3915C342.149 72.9151 342.021 72.3653 342.021 71.7423C342.021 71.1192 342.145 70.5731 342.395 70.104C342.644 69.6349 342.992 69.2757 343.439 69.0265C343.894 68.77 344.414 68.6417 345 68.6417C345.572 68.6417 346.078 68.7663 346.518 69.0155C346.957 69.2647 347.295 69.6092 347.529 70.049C347.771 70.4815 347.892 70.9726 347.892 71.5224ZM346.858 71.3135C346.858 70.9323 346.774 70.6061 346.606 70.3349C346.437 70.0564 346.206 69.8475 345.913 69.7082C345.627 69.5616 345.308 69.4883 344.956 69.4883C344.451 69.4883 344.018 69.6496 343.659 69.9721C343.307 70.2946 343.106 70.7417 343.054 71.3135H346.858ZM352.082 68.6307C352.815 68.6307 353.409 68.8543 353.864 69.3014C354.318 69.7412 354.545 70.3789 354.545 71.2145V74.7659H353.556V71.3574C353.556 70.7564 353.405 70.2983 353.105 69.9831C352.804 69.6606 352.394 69.4993 351.873 69.4993C351.346 69.4993 350.924 69.6642 350.609 69.9941C350.301 70.3239 350.147 70.804 350.147 71.4344V74.7659H349.147V68.7406H350.147V69.5982C350.345 69.2904 350.613 69.0522 350.95 68.8836C351.294 68.715 351.672 68.6307 352.082 68.6307ZM357.334 69.5653V73.1166C357.334 73.4098 357.396 73.6187 357.521 73.7433C357.646 73.8606 357.862 73.9193 358.17 73.9193H358.906V74.7659H358.005C357.448 74.7659 357.03 74.6376 356.751 74.381C356.473 74.1245 356.334 73.703 356.334 73.1166V69.5653H355.553V68.7406H356.334V67.2233H357.334V68.7406H358.906V69.5653H357.334ZM372.317 68.6307C372.786 68.6307 373.204 68.7296 373.57 68.9276C373.937 69.1181 374.226 69.4077 374.439 69.7962C374.652 70.1846 374.758 70.6574 374.758 71.2145V74.7659H373.768V71.3574C373.768 70.7564 373.618 70.2983 373.318 69.9831C373.024 69.6606 372.625 69.4993 372.119 69.4993C371.599 69.4993 371.185 69.6679 370.877 70.0051C370.569 70.3349 370.415 70.815 370.415 71.4454V74.7659H369.425V71.3574C369.425 70.7564 369.275 70.2983 368.975 69.9831C368.681 69.6606 368.282 69.4993 367.776 69.4993C367.256 69.4993 366.842 69.6679 366.534 70.0051C366.226 70.3349 366.072 70.815 366.072 71.4454V74.7659H365.071V68.7406H366.072V69.6092C366.27 69.2941 366.534 69.0522 366.864 68.8836C367.201 68.715 367.571 68.6307 367.974 68.6307C368.48 68.6307 368.927 68.7443 369.315 68.9715C369.704 69.1988 369.993 69.5323 370.184 69.9721C370.353 69.5469 370.631 69.2171 371.02 68.9825C371.408 68.748 371.841 68.6307 372.317 68.6307ZM375.959 71.7313C375.959 71.1155 376.084 70.5768 376.333 70.115C376.582 69.6459 376.923 69.2831 377.356 69.0265C377.796 68.77 378.283 68.6417 378.818 68.6417C379.346 68.6417 379.804 68.7553 380.192 68.9825C380.581 69.2098 380.87 69.4956 381.061 69.8401V68.7406H382.073V74.7659H381.061V73.6444C380.863 73.9962 380.566 74.2894 380.17 74.524C379.782 74.7512 379.327 74.8648 378.807 74.8648C378.272 74.8648 377.788 74.7329 377.356 74.469C376.923 74.2051 376.582 73.835 376.333 73.3585C376.084 72.8821 375.959 72.3397 375.959 71.7313ZM381.061 71.7423C381.061 71.2878 380.969 70.892 380.786 70.5548C380.603 70.2176 380.354 69.9611 380.038 69.7852C379.731 69.6019 379.39 69.5103 379.016 69.5103C378.642 69.5103 378.301 69.5982 377.993 69.7742C377.686 69.9501 377.44 70.2066 377.257 70.5438C377.074 70.881 376.982 71.2768 376.982 71.7313C376.982 72.1931 377.074 72.5962 377.257 72.9407C377.44 73.2779 377.686 73.5381 377.993 73.7213C378.301 73.8973 378.642 73.9852 379.016 73.9852C379.39 73.9852 379.731 73.8973 380.038 73.7213C380.354 73.5381 380.603 73.2779 380.786 72.9407C380.969 72.5962 381.061 72.1967 381.061 71.7423ZM384.918 69.5653V73.1166C384.918 73.4098 384.98 73.6187 385.105 73.7433C385.229 73.8606 385.446 73.9193 385.753 73.9193H386.49V74.7659H385.589C385.031 74.7659 384.614 74.6376 384.335 74.381C384.057 74.1245 383.917 73.703 383.917 73.1166V69.5653H383.137V68.7406H383.917V67.2233H384.918V68.7406H386.49V69.5653H384.918ZM388.857 69.5653V73.1166C388.857 73.4098 388.919 73.6187 389.044 73.7433C389.168 73.8606 389.385 73.9193 389.692 73.9193H390.429V74.7659H389.528C388.97 74.7659 388.553 74.6376 388.274 74.381C387.996 74.1245 387.856 73.703 387.856 73.1166V69.5653H387.076V68.7406H387.856V67.2233H388.857V68.7406H390.429V69.5653H388.857ZM397.073 71.5224C397.073 71.7129 397.062 71.9145 397.04 72.1271H392.224C392.261 72.7208 392.462 73.1863 392.829 73.5234C393.203 73.8533 393.654 74.0182 394.181 74.0182C394.614 74.0182 394.973 73.9193 395.259 73.7213C395.552 73.5161 395.757 73.2449 395.874 72.9077H396.952C396.791 73.4868 396.468 73.9596 395.984 74.3261C395.501 74.6852 394.9 74.8648 394.181 74.8648C393.61 74.8648 393.096 74.7365 392.642 74.48C392.195 74.2235 391.843 73.8606 391.586 73.3915C391.33 72.9151 391.202 72.3653 391.202 71.7423C391.202 71.1192 391.326 70.5731 391.575 70.104C391.825 69.6349 392.173 69.2757 392.62 69.0265C393.074 68.77 393.595 68.6417 394.181 68.6417C394.753 68.6417 395.259 68.7663 395.699 69.0155C396.138 69.2647 396.476 69.6092 396.71 70.049C396.952 70.4815 397.073 70.9726 397.073 71.5224ZM396.039 71.3135C396.039 70.9323 395.955 70.6061 395.787 70.3349C395.618 70.0564 395.387 69.8475 395.094 69.7082C394.808 69.5616 394.489 69.4883 394.137 69.4883C393.632 69.4883 393.199 69.6496 392.84 69.9721C392.488 70.2946 392.286 70.7417 392.235 71.3135H396.039ZM399.328 69.7192C399.504 69.3747 399.753 69.1071 400.076 68.9166C400.406 68.726 400.805 68.6307 401.274 68.6307V69.6642H401.01C399.889 69.6642 399.328 70.2726 399.328 71.4894V74.7659H398.328V68.7406H399.328V69.7192ZM415.408 68.7406L413.528 74.7659H412.495L411.043 69.9831L409.592 74.7659H408.558L406.667 68.7406H407.69L409.075 73.7983L410.571 68.7406H411.593L413.055 73.8093L414.419 68.7406H415.408ZM419.326 68.6307C419.78 68.6307 420.191 68.7296 420.557 68.9276C420.924 69.1181 421.21 69.4077 421.415 69.7962C421.628 70.1846 421.734 70.6574 421.734 71.2145V74.7659H420.744V71.3574C420.744 70.7564 420.594 70.2983 420.293 69.9831C419.993 69.6606 419.582 69.4993 419.062 69.4993C418.534 69.4993 418.113 69.6642 417.798 69.9941C417.49 70.3239 417.336 70.804 417.336 71.4344V74.7659H416.335V66.6296H417.336V69.5982C417.534 69.2904 417.805 69.0522 418.149 68.8836C418.501 68.715 418.893 68.6307 419.326 68.6307ZM428.8 71.5224C428.8 71.7129 428.789 71.9145 428.767 72.1271H423.951C423.988 72.7208 424.189 73.1863 424.556 73.5234C424.929 73.8533 425.38 74.0182 425.908 74.0182C426.34 74.0182 426.7 73.9193 426.986 73.7213C427.279 73.5161 427.484 73.2449 427.601 72.9077H428.679C428.517 73.4868 428.195 73.9596 427.711 74.3261C427.227 74.6852 426.626 74.8648 425.908 74.8648C425.336 74.8648 424.823 74.7365 424.369 74.48C423.922 74.2235 423.57 73.8606 423.313 73.3915C423.057 72.9151 422.928 72.3653 422.928 71.7423C422.928 71.1192 423.053 70.5731 423.302 70.104C423.551 69.6349 423.9 69.2757 424.347 69.0265C424.801 68.77 425.322 68.6417 425.908 68.6417C426.48 68.6417 426.986 68.7663 427.425 69.0155C427.865 69.2647 428.202 69.6092 428.437 70.049C428.679 70.4815 428.8 70.9726 428.8 71.5224ZM427.766 71.3135C427.766 70.9323 427.682 70.6061 427.513 70.3349C427.345 70.0564 427.114 69.8475 426.821 69.7082C426.535 69.5616 426.216 69.4883 425.864 69.4883C425.358 69.4883 424.926 69.6496 424.567 69.9721C424.215 70.2946 424.013 70.7417 423.962 71.3135H427.766ZM431.055 69.7192C431.231 69.3747 431.48 69.1071 431.803 68.9166C432.132 68.726 432.532 68.6307 433.001 68.6307V69.6642H432.737C431.616 69.6642 431.055 70.2726 431.055 71.4894V74.7659H430.054V68.7406H431.055V69.7192ZM439.588 71.5224C439.588 71.7129 439.577 71.9145 439.555 72.1271H434.739C434.775 72.7208 434.977 73.1863 435.344 73.5234C435.717 73.8533 436.168 74.0182 436.696 74.0182C437.128 74.0182 437.488 73.9193 437.773 73.7213C438.067 73.5161 438.272 73.2449 438.389 72.9077H439.467C439.305 73.4868 438.983 73.9596 438.499 74.3261C438.015 74.6852 437.414 74.8648 436.696 74.8648C436.124 74.8648 435.611 74.7365 435.157 74.48C434.709 74.2235 434.358 73.8606 434.101 73.3915C433.845 72.9151 433.716 72.3653 433.716 71.7423C433.716 71.1192 433.841 70.5731 434.09 70.104C434.339 69.6349 434.687 69.2757 435.135 69.0265C435.589 68.77 436.109 68.6417 436.696 68.6417C437.268 68.6417 437.773 68.7663 438.213 69.0155C438.653 69.2647 438.99 69.6092 439.225 70.049C439.467 70.4815 439.588 70.9726 439.588 71.5224ZM438.554 71.3135C438.554 70.9323 438.47 70.6061 438.301 70.3349C438.133 70.0564 437.902 69.8475 437.608 69.7082C437.323 69.5616 437.004 69.4883 436.652 69.4883C436.146 69.4883 435.714 69.6496 435.354 69.9721C435.003 70.2946 434.801 70.7417 434.75 71.3135H438.554ZM448.313 69.5653H447.048V74.7659H446.048V69.5653H445.267V68.7406H446.048V68.3118C446.048 67.6375 446.22 67.1464 446.565 66.8385C446.916 66.5233 447.477 66.3657 448.247 66.3657V67.2013C447.807 67.2013 447.496 67.2893 447.312 67.4652C447.136 67.6338 447.048 67.916 447.048 68.3118V68.7406H448.313V69.5653ZM454.757 68.7406V74.7659H453.756V73.8753C453.566 74.1831 453.298 74.425 452.954 74.6009C452.617 74.7695 452.243 74.8538 451.832 74.8538C451.363 74.8538 450.942 74.7585 450.568 74.568C450.194 74.3701 449.897 74.0769 449.677 73.6884C449.465 73.2999 449.358 72.8271 449.358 72.27V68.7406H450.348V72.1381C450.348 72.7318 450.498 73.1899 450.799 73.5124C451.099 73.8276 451.51 73.9852 452.03 73.9852C452.565 73.9852 452.987 73.8203 453.295 73.4905C453.602 73.1606 453.756 72.6805 453.756 72.0501V68.7406H454.757ZM459.316 68.6307C460.049 68.6307 460.643 68.8543 461.097 69.3014C461.552 69.7412 461.779 70.3789 461.779 71.2145V74.7659H460.789V71.3574C460.789 70.7564 460.639 70.2983 460.339 69.9831C460.038 69.6606 459.628 69.4993 459.107 69.4993C458.579 69.4993 458.158 69.6642 457.843 69.9941C457.535 70.3239 457.381 70.804 457.381 71.4344V74.7659H456.38V68.7406H457.381V69.5982C457.579 69.2904 457.846 69.0522 458.184 68.8836C458.528 68.715 458.906 68.6307 459.316 68.6307ZM462.973 71.7313C462.973 71.1155 463.098 70.5768 463.347 70.115C463.597 69.6459 463.937 69.2831 464.37 69.0265C464.81 68.77 465.301 68.6417 465.843 68.6417C466.312 68.6417 466.748 68.7516 467.152 68.9715C467.555 69.1841 467.863 69.4663 468.075 69.8181V66.6296H469.087V74.7659H468.075V73.6334C467.877 73.9926 467.584 74.2894 467.196 74.524C466.807 74.7512 466.353 74.8648 465.832 74.8648C465.297 74.8648 464.81 74.7329 464.37 74.469C463.937 74.2051 463.597 73.835 463.347 73.3585C463.098 72.8821 462.973 72.3397 462.973 71.7313ZM468.075 71.7423C468.075 71.2878 467.983 70.892 467.8 70.5548C467.617 70.2176 467.368 69.9611 467.053 69.7852C466.745 69.6019 466.404 69.5103 466.03 69.5103C465.656 69.5103 465.315 69.5982 465.008 69.7742C464.7 69.9501 464.454 70.2066 464.271 70.5438C464.088 70.881 463.996 71.2768 463.996 71.7313C463.996 72.1931 464.088 72.5962 464.271 72.9407C464.454 73.2779 464.7 73.5381 465.008 73.7213C465.315 73.8973 465.656 73.9852 466.03 73.9852C466.404 73.9852 466.745 73.8973 467.053 73.7213C467.368 73.5381 467.617 73.2779 467.8 72.9407C467.983 72.5962 468.075 72.1967 468.075 71.7423ZM472.844 74.8648C472.383 74.8648 471.969 74.7879 471.602 74.6339C471.236 74.4727 470.946 74.2528 470.733 73.9742C470.521 73.6884 470.404 73.3622 470.382 72.9957H471.415C471.444 73.2962 471.584 73.5418 471.833 73.7323C472.09 73.9229 472.423 74.0182 472.834 74.0182C473.215 74.0182 473.515 73.9339 473.735 73.7653C473.955 73.5967 474.065 73.3842 474.065 73.1276C474.065 72.8637 473.948 72.6695 473.713 72.5449C473.479 72.413 473.116 72.2847 472.625 72.1601C472.177 72.0428 471.811 71.9255 471.525 71.8082C471.247 71.6836 471.005 71.504 470.799 71.2695C470.602 71.0276 470.503 70.7124 470.503 70.3239C470.503 70.0161 470.594 69.7339 470.777 69.4773C470.961 69.2208 471.221 69.0192 471.558 68.8726C471.895 68.7187 472.28 68.6417 472.713 68.6417C473.38 68.6417 473.918 68.8103 474.329 69.1475C474.739 69.4846 474.959 69.9464 474.989 70.5328H473.988C473.966 70.2176 473.838 69.9647 473.603 69.7742C473.376 69.5836 473.068 69.4883 472.68 69.4883C472.32 69.4883 472.035 69.5653 471.822 69.7192C471.609 69.8731 471.503 70.0747 471.503 70.3239C471.503 70.5218 471.565 70.6867 471.69 70.8187C471.822 70.9433 471.983 71.0459 472.174 71.1265C472.372 71.1998 472.643 71.2841 472.987 71.3794C473.42 71.4967 473.772 71.614 474.043 71.7313C474.314 71.8412 474.545 72.0098 474.736 72.237C474.934 72.4643 475.036 72.7611 475.043 73.1276C475.043 73.4575 474.952 73.7543 474.769 74.0182C474.585 74.2821 474.325 74.491 473.988 74.6449C473.658 74.7915 473.277 74.8648 472.844 74.8648ZM112.928 86.7313C112.928 86.1155 113.052 85.5768 113.302 85.115C113.551 84.6459 113.892 84.2831 114.324 84.0265C114.764 83.77 115.251 83.6417 115.787 83.6417C116.314 83.6417 116.772 83.7553 117.161 83.9825C117.549 84.2098 117.839 84.4956 118.03 84.8401V83.7406H119.041V89.7659H118.03V88.6444C117.832 88.9962 117.535 89.2894 117.139 89.524C116.75 89.7512 116.296 89.8648 115.776 89.8648C115.24 89.8648 114.757 89.7329 114.324 89.469C113.892 89.2051 113.551 88.835 113.302 88.3585C113.052 87.8821 112.928 87.3397 112.928 86.7313ZM118.03 86.7423C118.03 86.2878 117.938 85.892 117.755 85.5548C117.571 85.2176 117.322 84.9611 117.007 84.7852C116.699 84.6019 116.358 84.5103 115.984 84.5103C115.611 84.5103 115.27 84.5982 114.962 84.7742C114.654 84.9501 114.409 85.2066 114.225 85.5438C114.042 85.881 113.95 86.2768 113.95 86.7313C113.95 87.1931 114.042 87.5962 114.225 87.9407C114.409 88.2779 114.654 88.5381 114.962 88.7213C115.27 88.8973 115.611 88.9852 115.984 88.9852C116.358 88.9852 116.699 88.8973 117.007 88.7213C117.322 88.5381 117.571 88.2779 117.755 87.9407C117.938 87.5962 118.03 87.1967 118.03 86.7423ZM121.666 84.7192C121.842 84.3747 122.092 84.1071 122.414 83.9166C122.744 83.726 123.143 83.6307 123.613 83.6307V84.6642H123.349C122.227 84.6642 121.666 85.2726 121.666 86.4894V89.7659H120.666V83.7406H121.666V84.7192ZM130.199 86.5224C130.199 86.7129 130.188 86.9145 130.166 87.1271H125.35C125.387 87.7208 125.588 88.1863 125.955 88.5234C126.329 88.8533 126.78 89.0182 127.307 89.0182C127.74 89.0182 128.099 88.9193 128.385 88.7213C128.678 88.5161 128.883 88.2449 129.001 87.9077H130.078C129.917 88.4868 129.594 88.9596 129.111 89.3261C128.627 89.6852 128.026 89.8648 127.307 89.8648C126.736 89.8648 126.223 89.7365 125.768 89.48C125.321 89.2235 124.969 88.8606 124.713 88.3915C124.456 87.9151 124.328 87.3653 124.328 86.7423C124.328 86.1192 124.452 85.5731 124.702 85.104C124.951 84.6349 125.299 84.2757 125.746 84.0265C126.201 83.77 126.721 83.6417 127.307 83.6417C127.879 83.6417 128.385 83.7663 128.825 84.0155C129.264 84.2647 129.602 84.6092 129.836 85.049C130.078 85.4815 130.199 85.9726 130.199 86.5224ZM129.166 86.3135C129.166 85.9323 129.081 85.6061 128.913 85.3349C128.744 85.0564 128.513 84.8475 128.22 84.7082C127.934 84.5616 127.615 84.4883 127.263 84.4883C126.758 84.4883 126.325 84.6496 125.966 84.9721C125.614 85.2946 125.413 85.7417 125.361 86.3135H129.166ZM135.851 84.8621C136.056 84.503 136.356 84.2098 136.752 83.9825C137.148 83.7553 137.599 83.6417 138.105 83.6417C138.647 83.6417 139.134 83.77 139.567 84.0265C139.999 84.2831 140.34 84.6459 140.589 85.115C140.839 85.5768 140.963 86.1155 140.963 86.7313C140.963 87.3397 140.839 87.8821 140.589 88.3585C140.34 88.835 139.996 89.2051 139.556 89.469C139.123 89.7329 138.64 89.8648 138.105 89.8648C137.584 89.8648 137.126 89.7512 136.73 89.524C136.342 89.2968 136.049 89.0072 135.851 88.6554V89.7659H134.85V81.6296H135.851V84.8621ZM139.941 86.7313C139.941 86.2768 139.849 85.881 139.666 85.5438C139.483 85.2066 139.233 84.9501 138.918 84.7742C138.61 84.5982 138.27 84.5103 137.896 84.5103C137.529 84.5103 137.188 84.6019 136.873 84.7852C136.565 84.9611 136.316 85.2213 136.125 85.5658C135.942 85.903 135.851 86.2951 135.851 86.7423C135.851 87.1967 135.942 87.5962 136.125 87.9407C136.316 88.2779 136.565 88.5381 136.873 88.7213C137.188 88.8973 137.529 88.9852 137.896 88.9852C138.27 88.9852 138.61 88.8973 138.918 88.7213C139.233 88.5381 139.483 88.2779 139.666 87.9407C139.849 87.5962 139.941 87.1931 139.941 86.7313ZM147.712 86.5224C147.712 86.7129 147.701 86.9145 147.679 87.1271H142.863C142.9 87.7208 143.101 88.1863 143.468 88.5234C143.842 88.8533 144.292 89.0182 144.82 89.0182C145.253 89.0182 145.612 88.9193 145.898 88.7213C146.191 88.5161 146.396 88.2449 146.513 87.9077H147.591C147.43 88.4868 147.107 88.9596 146.623 89.3261C146.139 89.6852 145.538 89.8648 144.82 89.8648C144.248 89.8648 143.735 89.7365 143.281 89.48C142.834 89.2235 142.482 88.8606 142.225 88.3915C141.969 87.9151 141.84 87.3653 141.84 86.7423C141.84 86.1192 141.965 85.5731 142.214 85.104C142.464 84.6349 142.812 84.2757 143.259 84.0265C143.713 83.77 144.234 83.6417 144.82 83.6417C145.392 83.6417 145.898 83.7663 146.337 84.0155C146.777 84.2647 147.114 84.6092 147.349 85.049C147.591 85.4815 147.712 85.9726 147.712 86.5224ZM146.678 86.3135C146.678 85.9323 146.594 85.6061 146.425 85.3349C146.257 85.0564 146.026 84.8475 145.733 84.7082C145.447 84.5616 145.128 84.4883 144.776 84.4883C144.27 84.4883 143.838 84.6496 143.479 84.9721C143.127 85.2946 142.925 85.7417 142.874 86.3135H146.678ZM149.483 82.7621C149.293 82.7621 149.131 82.6961 148.999 82.5642C148.868 82.4322 148.802 82.271 148.802 82.0804C148.802 81.8898 148.868 81.7286 148.999 81.5966C149.131 81.4647 149.293 81.3987 149.483 81.3987C149.666 81.3987 149.82 81.4647 149.945 81.5966C150.077 81.7286 150.143 81.8898 150.143 82.0804C150.143 82.271 150.077 82.4322 149.945 82.5642C149.82 82.6961 149.666 82.7621 149.483 82.7621ZM149.967 83.7406V89.7659H148.966V83.7406H149.967ZM154.542 83.6307C155.275 83.6307 155.869 83.8543 156.323 84.3014C156.778 84.7412 157.005 85.3789 157.005 86.2145V89.7659H156.015V86.3574C156.015 85.7564 155.865 85.2983 155.564 84.9831C155.264 84.6606 154.853 84.4993 154.333 84.4993C153.805 84.4993 153.384 84.6642 153.069 84.9941C152.761 85.3239 152.607 85.804 152.607 86.4344V89.7659H151.606V83.7406H152.607V84.5982C152.805 84.2904 153.072 84.0522 153.409 83.8836C153.754 83.715 154.131 83.6307 154.542 83.6307ZM161.058 83.6417C161.578 83.6417 162.033 83.7553 162.421 83.9825C162.817 84.2098 163.11 84.4956 163.301 84.8401V83.7406H164.313V89.8978C164.313 90.4476 164.195 90.935 163.961 91.3601C163.726 91.7926 163.389 92.1298 162.949 92.3717C162.517 92.6136 162.011 92.7345 161.432 92.7345C160.64 92.7345 159.981 92.5476 159.453 92.1738C158.925 91.7999 158.614 91.2905 158.518 90.6455H159.508C159.618 91.012 159.845 91.3052 160.189 91.5251C160.534 91.7523 160.948 91.8659 161.432 91.8659C161.982 91.8659 162.429 91.6936 162.773 91.3491C163.125 91.0046 163.301 90.5209 163.301 89.8978V88.6334C163.103 88.9852 162.81 89.2784 162.421 89.513C162.033 89.7475 161.578 89.8648 161.058 89.8648C160.523 89.8648 160.036 89.7329 159.596 89.469C159.163 89.2051 158.822 88.835 158.573 88.3585C158.324 87.8821 158.199 87.3397 158.199 86.7313C158.199 86.1155 158.324 85.5768 158.573 85.115C158.822 84.6459 159.163 84.2831 159.596 84.0265C160.036 83.77 160.523 83.6417 161.058 83.6417ZM163.301 86.7423C163.301 86.2878 163.209 85.892 163.026 85.5548C162.843 85.2176 162.594 84.9611 162.279 84.7852C161.971 84.6019 161.63 84.5103 161.256 84.5103C160.882 84.5103 160.541 84.5982 160.233 84.7742C159.926 84.9501 159.68 85.2066 159.497 85.5438C159.314 85.881 159.222 86.2768 159.222 86.7313C159.222 87.1931 159.314 87.5962 159.497 87.9407C159.68 88.2779 159.926 88.5381 160.233 88.7213C160.541 88.8973 160.882 88.9852 161.256 88.9852C161.63 88.9852 161.971 88.8973 162.279 88.7213C162.594 88.5381 162.843 88.2779 163.026 87.9407C163.209 87.5962 163.301 87.1967 163.301 86.7423ZM176.579 83.6307C177.049 83.6307 177.466 83.7296 177.833 83.9276C178.199 84.1181 178.489 84.4077 178.701 84.7962C178.914 85.1846 179.02 85.6574 179.02 86.2145V89.7659H178.031V86.3574C178.031 85.7564 177.881 85.2983 177.58 84.9831C177.287 84.6606 176.887 84.4993 176.382 84.4993C175.861 84.4993 175.447 84.6679 175.139 85.0051C174.831 85.3349 174.677 85.815 174.677 86.4454V89.7659H173.688V86.3574C173.688 85.7564 173.537 85.2983 173.237 84.9831C172.944 84.6606 172.544 84.4993 172.039 84.4993C171.518 84.4993 171.104 84.6679 170.796 85.0051C170.488 85.3349 170.334 85.815 170.334 86.4454V89.7659H169.334V83.7406H170.334V84.6092C170.532 84.2941 170.796 84.0522 171.126 83.8836C171.463 83.715 171.833 83.6307 172.236 83.6307C172.742 83.6307 173.189 83.7443 173.578 83.9715C173.966 84.1988 174.256 84.5323 174.446 84.9721C174.615 84.5469 174.894 84.2171 175.282 83.9825C175.671 83.748 176.103 83.6307 176.579 83.6307ZM183.223 89.8648C182.659 89.8648 182.146 89.7365 181.684 89.48C181.23 89.2235 180.87 88.8606 180.607 88.3915C180.35 87.9151 180.222 87.3653 180.222 86.7423C180.222 86.1265 180.354 85.5841 180.618 85.115C180.889 84.6386 181.255 84.2757 181.717 84.0265C182.179 83.77 182.696 83.6417 183.267 83.6417C183.839 83.6417 184.356 83.77 184.818 84.0265C185.279 84.2757 185.642 84.6349 185.906 85.104C186.177 85.5731 186.313 86.1192 186.313 86.7423C186.313 87.3653 186.174 87.9151 185.895 88.3915C185.624 88.8606 185.254 89.2235 184.785 89.48C184.316 89.7365 183.795 89.8648 183.223 89.8648ZM183.223 88.9852C183.583 88.9852 183.92 88.9009 184.235 88.7323C184.55 88.5638 184.803 88.3109 184.994 87.9737C185.191 87.6365 185.29 87.226 185.29 86.7423C185.29 86.2585 185.195 85.848 185.005 85.5108C184.814 85.1736 184.565 84.9244 184.257 84.7632C183.949 84.5946 183.616 84.5103 183.256 84.5103C182.89 84.5103 182.553 84.5946 182.245 84.7632C181.944 84.9244 181.702 85.1736 181.519 85.5108C181.336 85.848 181.244 86.2585 181.244 86.7423C181.244 87.2334 181.332 87.6475 181.508 87.9847C181.691 88.3219 181.933 88.5748 182.234 88.7433C182.534 88.9046 182.864 88.9852 183.223 88.9852ZM189.805 88.8423L191.675 83.7406H192.741L190.377 89.7659H189.212L186.848 83.7406H187.925L189.805 88.8423ZM199.157 86.5224C199.157 86.7129 199.146 86.9145 199.124 87.1271H194.308C194.345 87.7208 194.547 88.1863 194.913 88.5234C195.287 88.8533 195.738 89.0182 196.266 89.0182C196.698 89.0182 197.057 88.9193 197.343 88.7213C197.636 88.5161 197.841 88.2449 197.959 87.9077H199.036C198.875 88.4868 198.552 88.9596 198.069 89.3261C197.585 89.6852 196.984 89.8648 196.266 89.8648C195.694 89.8648 195.181 89.7365 194.726 89.48C194.279 89.2235 193.927 88.8606 193.671 88.3915C193.414 87.9151 193.286 87.3653 193.286 86.7423C193.286 86.1192 193.411 85.5731 193.66 85.104C193.909 84.6349 194.257 84.2757 194.704 84.0265C195.159 83.77 195.679 83.6417 196.266 83.6417C196.837 83.6417 197.343 83.7663 197.783 84.0155C198.223 84.2647 198.56 84.6092 198.794 85.049C199.036 85.4815 199.157 85.9726 199.157 86.5224ZM198.124 86.3135C198.124 85.9323 198.039 85.6061 197.871 85.3349C197.702 85.0564 197.471 84.8475 197.178 84.7082C196.892 84.5616 196.573 84.4883 196.222 84.4883C195.716 84.4883 195.283 84.6496 194.924 84.9721C194.572 85.2946 194.371 85.7417 194.319 86.3135H198.124ZM200.038 86.7313C200.038 86.1155 200.163 85.5768 200.412 85.115C200.661 84.6459 201.002 84.2831 201.434 84.0265C201.874 83.77 202.365 83.6417 202.908 83.6417C203.377 83.6417 203.813 83.7516 204.216 83.9715C204.619 84.1841 204.927 84.4663 205.14 84.8181V81.6296H206.151V89.7659H205.14V88.6334C204.942 88.9926 204.649 89.2894 204.26 89.524C203.872 89.7512 203.417 89.8648 202.897 89.8648C202.362 89.8648 201.874 89.7329 201.434 89.469C201.002 89.2051 200.661 88.835 200.412 88.3585C200.163 87.8821 200.038 87.3397 200.038 86.7313ZM205.14 86.7423C205.14 86.2878 205.048 85.892 204.865 85.5548C204.682 85.2176 204.432 84.9611 204.117 84.7852C203.809 84.6019 203.469 84.5103 203.095 84.5103C202.721 84.5103 202.38 84.5982 202.072 84.7742C201.764 84.9501 201.519 85.2066 201.335 85.5438C201.152 85.881 201.061 86.2768 201.061 86.7313C201.061 87.1931 201.152 87.5962 201.335 87.9407C201.519 88.2779 201.764 88.5381 202.072 88.7213C202.38 88.8973 202.721 88.9852 203.095 88.9852C203.469 88.9852 203.809 88.8973 204.117 88.7213C204.432 88.5381 204.682 88.2779 204.865 87.9407C205.048 87.5962 205.14 87.1967 205.14 86.7423ZM212.393 84.5653V88.1166C212.393 88.4098 212.455 88.6187 212.58 88.7433C212.704 88.8606 212.921 88.9193 213.229 88.9193H213.965V89.7659H213.064C212.507 89.7659 212.089 89.6376 211.81 89.381C211.532 89.1245 211.392 88.703 211.392 88.1166V84.5653H210.612V83.7406H211.392V82.2233H212.393V83.7406H213.965V84.5653H212.393ZM218.102 83.6307C218.557 83.6307 218.967 83.7296 219.334 83.9276C219.7 84.1181 219.986 84.4077 220.191 84.7962C220.404 85.1846 220.51 85.6574 220.51 86.2145V89.7659H219.52V86.3574C219.52 85.7564 219.37 85.2983 219.07 84.9831C218.769 84.6606 218.359 84.4993 217.838 84.4993C217.31 84.4993 216.889 84.6642 216.574 84.9941C216.266 85.3239 216.112 85.804 216.112 86.4344V89.7659H215.111V81.6296H216.112V84.5982C216.31 84.2904 216.581 84.0522 216.926 83.8836C217.277 83.715 217.67 83.6307 218.102 83.6307ZM223.079 84.7192C223.255 84.3747 223.504 84.1071 223.827 83.9166C224.156 83.726 224.556 83.6307 225.025 83.6307V84.6642H224.761C223.64 84.6642 223.079 85.2726 223.079 86.4894V89.7659H222.078V83.7406H223.079V84.7192ZM228.742 89.8648C228.177 89.8648 227.664 89.7365 227.203 89.48C226.748 89.2235 226.389 88.8606 226.125 88.3915C225.869 87.9151 225.74 87.3653 225.74 86.7423C225.74 86.1265 225.872 85.5841 226.136 85.115C226.407 84.6386 226.774 84.2757 227.236 84.0265C227.697 83.77 228.214 83.6417 228.786 83.6417C229.358 83.6417 229.874 83.77 230.336 84.0265C230.798 84.2757 231.161 84.6349 231.425 85.104C231.696 85.5731 231.831 86.1192 231.831 86.7423C231.831 87.3653 231.692 87.9151 231.414 88.3915C231.142 88.8606 230.772 89.2235 230.303 89.48C229.834 89.7365 229.314 89.8648 228.742 89.8648ZM228.742 88.9852C229.101 88.9852 229.438 88.9009 229.753 88.7323C230.069 88.5638 230.321 88.3109 230.512 87.9737C230.71 87.6365 230.809 87.226 230.809 86.7423C230.809 86.2585 230.714 85.848 230.523 85.5108C230.332 85.1736 230.083 84.9244 229.775 84.7632C229.468 84.5946 229.134 84.5103 228.775 84.5103C228.408 84.5103 228.071 84.5946 227.763 84.7632C227.463 84.9244 227.221 85.1736 227.038 85.5108C226.854 85.848 226.763 86.2585 226.763 86.7423C226.763 87.2334 226.851 87.6475 227.027 87.9847C227.21 88.3219 227.452 88.5748 227.752 88.7433C228.053 88.9046 228.383 88.9852 228.742 88.9852ZM238.425 83.7406V89.7659H237.424V88.8753C237.233 89.1831 236.966 89.425 236.621 89.6009C236.284 89.7695 235.91 89.8538 235.5 89.8538C235.031 89.8538 234.609 89.7585 234.235 89.568C233.862 89.3701 233.565 89.0769 233.345 88.6884C233.132 88.2999 233.026 87.8271 233.026 87.27V83.7406H234.016V87.1381C234.016 87.7318 234.166 88.1899 234.466 88.5124C234.767 88.8276 235.177 88.9852 235.698 88.9852C236.233 88.9852 236.654 88.8203 236.962 88.4905C237.27 88.1606 237.424 87.6805 237.424 87.0501V83.7406H238.425ZM242.533 83.6417C243.053 83.6417 243.508 83.7553 243.896 83.9825C244.292 84.2098 244.585 84.4956 244.776 84.8401V83.7406H245.787V89.8978C245.787 90.4476 245.67 90.935 245.435 91.3601C245.201 91.7926 244.864 92.1298 244.424 92.3717C243.991 92.6136 243.486 92.7345 242.907 92.7345C242.115 92.7345 241.455 92.5476 240.928 92.1738C240.4 91.7999 240.088 91.2905 239.993 90.6455H240.983C241.092 91.012 241.32 91.3052 241.664 91.5251C242.009 91.7523 242.423 91.8659 242.907 91.8659C243.456 91.8659 243.903 91.6936 244.248 91.3491C244.6 91.0046 244.776 90.5209 244.776 89.8978V88.6334C244.578 88.9852 244.285 89.2784 243.896 89.513C243.508 89.7475 243.053 89.8648 242.533 89.8648C241.998 89.8648 241.51 89.7329 241.07 89.469C240.638 89.2051 240.297 88.835 240.048 88.3585C239.799 87.8821 239.674 87.3397 239.674 86.7313C239.674 86.1155 239.799 85.5768 240.048 85.115C240.297 84.6459 240.638 84.2831 241.07 84.0265C241.51 83.77 241.998 83.6417 242.533 83.6417ZM244.776 86.7423C244.776 86.2878 244.684 85.892 244.501 85.5548C244.318 85.2176 244.068 84.9611 243.753 84.7852C243.445 84.6019 243.105 84.5103 242.731 84.5103C242.357 84.5103 242.016 84.5982 241.708 84.7742C241.4 84.9501 241.155 85.2066 240.972 85.5438C240.788 85.881 240.697 86.2768 240.697 86.7313C240.697 87.1931 240.788 87.5962 240.972 87.9407C241.155 88.2779 241.4 88.5381 241.708 88.7213C242.016 88.8973 242.357 88.9852 242.731 88.9852C243.105 88.9852 243.445 88.8973 243.753 88.7213C244.068 88.5381 244.318 88.2779 244.501 87.9407C244.684 87.5962 244.776 87.1967 244.776 86.7423ZM250.403 83.6307C250.857 83.6307 251.268 83.7296 251.634 83.9276C252.001 84.1181 252.287 84.4077 252.492 84.7962C252.704 85.1846 252.811 85.6574 252.811 86.2145V89.7659H251.821V86.3574C251.821 85.7564 251.671 85.2983 251.37 84.9831C251.07 84.6606 250.659 84.4993 250.139 84.4993C249.611 84.4993 249.19 84.6642 248.874 84.9941C248.567 85.3239 248.413 85.804 248.413 86.4344V89.7659H247.412V81.6296H248.413V84.5982C248.611 84.2904 248.882 84.0522 249.226 83.8836C249.578 83.715 249.97 83.6307 250.403 83.6307ZM265.021 83.6307C265.49 83.6307 265.908 83.7296 266.275 83.9276C266.641 84.1181 266.931 84.4077 267.143 84.7962C267.356 85.1846 267.462 85.6574 267.462 86.2145V89.7659H266.472V86.3574C266.472 85.7564 266.322 85.2983 266.022 84.9831C265.728 84.6606 265.329 84.4993 264.823 84.4993C264.303 84.4993 263.889 84.6679 263.581 85.0051C263.273 85.3349 263.119 85.815 263.119 86.4454V89.7659H262.129V86.3574C262.129 85.7564 261.979 85.2983 261.679 84.9831C261.385 84.6606 260.986 84.4993 260.48 84.4993C259.96 84.4993 259.546 84.6679 259.238 85.0051C258.93 85.3349 258.776 85.815 258.776 86.4454V89.7659H257.775V83.7406H258.776V84.6092C258.974 84.2941 259.238 84.0522 259.568 83.8836C259.905 83.715 260.275 83.6307 260.678 83.6307C261.184 83.6307 261.631 83.7443 262.019 83.9715C262.408 84.1988 262.697 84.5323 262.888 84.9721C263.057 84.5469 263.335 84.2171 263.724 83.9825C264.112 83.748 264.545 83.6307 265.021 83.6307ZM274.381 83.7406V89.7659H273.38V88.8753C273.19 89.1831 272.922 89.425 272.578 89.6009C272.24 89.7695 271.867 89.8538 271.456 89.8538C270.987 89.8538 270.566 89.7585 270.192 89.568C269.818 89.3701 269.521 89.0769 269.301 88.6884C269.089 88.2999 268.982 87.8271 268.982 87.27V83.7406H269.972V87.1381C269.972 87.7318 270.122 88.1899 270.423 88.5124C270.723 88.8276 271.134 88.9852 271.654 88.9852C272.189 88.9852 272.611 88.8203 272.918 88.4905C273.226 88.1606 273.38 87.6805 273.38 87.0501V83.7406H274.381ZM277.005 81.6296V89.7659H276.004V81.6296H277.005ZM279.864 84.5653V88.1166C279.864 88.4098 279.927 88.6187 280.051 88.7433C280.176 88.8606 280.392 88.9193 280.7 88.9193H281.437V89.7659H280.535C279.978 89.7659 279.56 89.6376 279.282 89.381C279.003 89.1245 278.864 88.703 278.864 88.1166V84.5653H278.083V83.7406H278.864V82.2233H279.864V83.7406H281.437V84.5653H279.864ZM283.1 82.7621C282.909 82.7621 282.748 82.6961 282.616 82.5642C282.484 82.4322 282.418 82.271 282.418 82.0804C282.418 81.8898 282.484 81.7286 282.616 81.5966C282.748 81.4647 282.909 81.3987 283.1 81.3987C283.283 81.3987 283.437 81.4647 283.562 81.5966C283.694 81.7286 283.759 81.8898 283.759 82.0804C283.759 82.271 283.694 82.4322 283.562 82.5642C283.437 82.6961 283.283 82.7621 283.1 82.7621ZM283.584 83.7406V89.7659H282.583V83.7406H283.584ZM286.223 84.8511C286.421 84.5066 286.714 84.2208 287.103 83.9935C287.499 83.759 287.957 83.6417 288.477 83.6417C289.012 83.6417 289.496 83.77 289.929 84.0265C290.368 84.2831 290.713 84.6459 290.962 85.115C291.211 85.5768 291.336 86.1155 291.336 86.7313C291.336 87.3397 291.211 87.8821 290.962 88.3585C290.713 88.835 290.368 89.2051 289.929 89.469C289.496 89.7329 289.012 89.8648 288.477 89.8648C287.964 89.8648 287.51 89.7512 287.114 89.524C286.725 89.2894 286.429 88.9999 286.223 88.6554V92.6246H285.223V83.7406H286.223V84.8511ZM290.313 86.7313C290.313 86.2768 290.222 85.881 290.039 85.5438C289.855 85.2066 289.606 84.9501 289.291 84.7742C288.983 84.5982 288.642 84.5103 288.268 84.5103C287.902 84.5103 287.561 84.6019 287.246 84.7852C286.938 84.9611 286.689 85.2213 286.498 85.5658C286.315 85.903 286.223 86.2951 286.223 86.7423C286.223 87.1967 286.315 87.5962 286.498 87.9407C286.689 88.2779 286.938 88.5381 287.246 88.7213C287.561 88.8973 287.902 88.9852 288.268 88.9852C288.642 88.9852 288.983 88.8973 289.291 88.7213C289.606 88.5381 289.855 88.2779 290.039 87.9407C290.222 87.5962 290.313 87.1931 290.313 86.7313ZM293.588 81.6296V89.7659H292.587V81.6296H293.588ZM300.724 86.5224C300.724 86.7129 300.713 86.9145 300.691 87.1271H295.876C295.912 87.7208 296.114 88.1863 296.48 88.5234C296.854 88.8533 297.305 89.0182 297.833 89.0182C298.265 89.0182 298.624 88.9193 298.91 88.7213C299.203 88.5161 299.409 88.2449 299.526 87.9077H300.603C300.442 88.4868 300.12 88.9596 299.636 89.3261C299.152 89.6852 298.551 89.8648 297.833 89.8648C297.261 89.8648 296.748 89.7365 296.293 89.48C295.846 89.2235 295.494 88.8606 295.238 88.3915C294.981 87.9151 294.853 87.3653 294.853 86.7423C294.853 86.1192 294.978 85.5731 295.227 85.104C295.476 84.6349 295.824 84.2757 296.271 84.0265C296.726 83.77 297.246 83.6417 297.833 83.6417C298.404 83.6417 298.91 83.7663 299.35 84.0155C299.79 84.2647 300.127 84.6092 300.361 85.049C300.603 85.4815 300.724 85.9726 300.724 86.5224ZM299.691 86.3135C299.691 85.9323 299.606 85.6061 299.438 85.3349C299.269 85.0564 299.038 84.8475 298.745 84.7082C298.459 84.5616 298.141 84.4883 297.789 84.4883C297.283 84.4883 296.85 84.6496 296.491 84.9721C296.139 85.2946 295.938 85.7417 295.887 86.3135H299.691ZM306.376 84.8621C306.581 84.503 306.882 84.2098 307.277 83.9825C307.673 83.7553 308.124 83.6417 308.63 83.6417C309.172 83.6417 309.66 83.77 310.092 84.0265C310.525 84.2831 310.866 84.6459 311.115 85.115C311.364 85.5768 311.489 86.1155 311.489 86.7313C311.489 87.3397 311.364 87.8821 311.115 88.3585C310.866 88.835 310.521 89.2051 310.081 89.469C309.649 89.7329 309.165 89.8648 308.63 89.8648C308.109 89.8648 307.651 89.7512 307.256 89.524C306.867 89.2968 306.574 89.0072 306.376 88.6554V89.7659H305.375V81.6296H306.376V84.8621ZM310.466 86.7313C310.466 86.2768 310.374 85.881 310.191 85.5438C310.008 85.2066 309.759 84.9501 309.444 84.7742C309.136 84.5982 308.795 84.5103 308.421 84.5103C308.054 84.5103 307.714 84.6019 307.398 84.7852C307.091 84.9611 306.841 85.2213 306.651 85.5658C306.468 85.903 306.376 86.2951 306.376 86.7423C306.376 87.1967 306.468 87.5962 306.651 87.9407C306.841 88.2779 307.091 88.5381 307.398 88.7213C307.714 88.8973 308.054 88.9852 308.421 88.9852C308.795 88.9852 309.136 88.8973 309.444 88.7213C309.759 88.5381 310.008 88.2779 310.191 87.9407C310.374 87.5962 310.466 87.1931 310.466 86.7313ZM318.083 83.7406V89.7659H317.083V88.8753C316.892 89.1831 316.624 89.425 316.28 89.6009C315.943 89.7695 315.569 89.8538 315.158 89.8538C314.689 89.8538 314.268 89.7585 313.894 89.568C313.52 89.3701 313.223 89.0769 313.003 88.6884C312.791 88.2999 312.685 87.8271 312.685 87.27V83.7406H313.674V87.1381C313.674 87.7318 313.824 88.1899 314.125 88.5124C314.425 88.8276 314.836 88.9852 315.356 88.9852C315.891 88.9852 316.313 88.8203 316.621 88.4905C316.929 88.1606 317.083 87.6805 317.083 87.0501V83.7406H318.083ZM321.84 89.8648C321.378 89.8648 320.964 89.7879 320.597 89.6339C320.231 89.4727 319.941 89.2528 319.728 88.9742C319.516 88.6884 319.399 88.3622 319.377 87.9957H320.41C320.44 88.2962 320.579 88.5418 320.828 88.7323C321.085 88.9229 321.418 89.0182 321.829 89.0182C322.21 89.0182 322.51 88.9339 322.73 88.7653C322.95 88.5967 323.06 88.3842 323.06 88.1276C323.06 87.8637 322.943 87.6695 322.708 87.5449C322.474 87.413 322.111 87.2847 321.62 87.1601C321.172 87.0428 320.806 86.9255 320.52 86.8082C320.242 86.6836 320 86.504 319.794 86.2695C319.597 86.0276 319.498 85.7124 319.498 85.3239C319.498 85.0161 319.589 84.7339 319.772 84.4773C319.956 84.2208 320.216 84.0192 320.553 83.8726C320.89 83.7187 321.275 83.6417 321.708 83.6417C322.375 83.6417 322.913 83.8103 323.324 84.1475C323.734 84.4846 323.954 84.9464 323.984 85.5328H322.983C322.961 85.2176 322.833 84.9647 322.598 84.7742C322.371 84.5836 322.063 84.4883 321.675 84.4883C321.315 84.4883 321.03 84.5653 320.817 84.7192C320.604 84.8731 320.498 85.0747 320.498 85.3239C320.498 85.5218 320.56 85.6867 320.685 85.8187C320.817 85.9433 320.978 86.0459 321.169 86.1265C321.367 86.1998 321.638 86.2841 321.982 86.3794C322.415 86.4967 322.767 86.614 323.038 86.7313C323.309 86.8412 323.54 87.0098 323.731 87.237C323.929 87.4643 324.031 87.7611 324.039 88.1276C324.039 88.4575 323.947 88.7543 323.764 89.0182C323.58 89.2821 323.32 89.491 322.983 89.6449C322.653 89.7915 322.272 89.8648 321.84 89.8648ZM325.902 82.7621C325.711 82.7621 325.55 82.6961 325.418 82.5642C325.286 82.4322 325.22 82.271 325.22 82.0804C325.22 81.8898 325.286 81.7286 325.418 81.5966C325.55 81.4647 325.711 81.3987 325.902 81.3987C326.085 81.3987 326.239 81.4647 326.364 81.5966C326.495 81.7286 326.561 81.8898 326.561 82.0804C326.561 82.271 326.495 82.4322 326.364 82.5642C326.239 82.6961 326.085 82.7621 325.902 82.7621ZM326.385 83.7406V89.7659H325.385V83.7406H326.385ZM330.96 83.6307C331.693 83.6307 332.287 83.8543 332.742 84.3014C333.196 84.7412 333.423 85.3789 333.423 86.2145V89.7659H332.434V86.3574C332.434 85.7564 332.283 85.2983 331.983 84.9831C331.682 84.6606 331.272 84.4993 330.752 84.4993C330.224 84.4993 329.802 84.6642 329.487 84.9941C329.179 85.3239 329.025 85.804 329.025 86.4344V89.7659H328.025V83.7406H329.025V84.5982C329.223 84.2904 329.491 84.0522 329.828 83.8836C330.172 83.715 330.55 83.6307 330.96 83.6307ZM340.489 86.5224C340.489 86.7129 340.478 86.9145 340.456 87.1271H335.64C335.677 87.7208 335.879 88.1863 336.245 88.5234C336.619 88.8533 337.07 89.0182 337.598 89.0182C338.03 89.0182 338.389 88.9193 338.675 88.7213C338.968 88.5161 339.173 88.2449 339.291 87.9077H340.368C340.207 88.4868 339.884 88.9596 339.401 89.3261C338.917 89.6852 338.316 89.8648 337.598 89.8648C337.026 89.8648 336.513 89.7365 336.058 89.48C335.611 89.2235 335.259 88.8606 335.003 88.3915C334.746 87.9151 334.618 87.3653 334.618 86.7423C334.618 86.1192 334.742 85.5731 334.992 85.104C335.241 84.6349 335.589 84.2757 336.036 84.0265C336.491 83.77 337.011 83.6417 337.598 83.6417C338.169 83.6417 338.675 83.7663 339.115 84.0155C339.555 84.2647 339.892 84.6092 340.126 85.049C340.368 85.4815 340.489 85.9726 340.489 86.5224ZM339.456 86.3135C339.456 85.9323 339.371 85.6061 339.203 85.3349C339.034 85.0564 338.803 84.8475 338.51 84.7082C338.224 84.5616 337.905 84.4883 337.554 84.4883C337.048 84.4883 336.615 84.6496 336.256 84.9721C335.904 85.2946 335.703 85.7417 335.651 86.3135H339.456ZM343.877 89.8648C343.415 89.8648 343.001 89.7879 342.634 89.6339C342.268 89.4727 341.978 89.2528 341.766 88.9742C341.553 88.6884 341.436 88.3622 341.414 87.9957H342.448C342.477 88.2962 342.616 88.5418 342.865 88.7323C343.122 88.9229 343.455 89.0182 343.866 89.0182C344.247 89.0182 344.548 88.9339 344.767 88.7653C344.987 88.5967 345.097 88.3842 345.097 88.1276C345.097 87.8637 344.98 87.6695 344.746 87.5449C344.511 87.413 344.148 87.2847 343.657 87.1601C343.21 87.0428 342.843 86.9255 342.558 86.8082C342.279 86.6836 342.037 86.504 341.832 86.2695C341.634 86.0276 341.535 85.7124 341.535 85.3239C341.535 85.0161 341.627 84.7339 341.81 84.4773C341.993 84.2208 342.253 84.0192 342.59 83.8726C342.928 83.7187 343.313 83.6417 343.745 83.6417C344.412 83.6417 344.951 83.8103 345.361 84.1475C345.772 84.4846 345.992 84.9464 346.021 85.5328H345.02C344.998 85.2176 344.87 84.9647 344.636 84.7742C344.408 84.5836 344.1 84.4883 343.712 84.4883C343.353 84.4883 343.067 84.5653 342.854 84.7192C342.642 84.8731 342.536 85.0747 342.536 85.3239C342.536 85.5218 342.598 85.6867 342.722 85.8187C342.854 85.9433 343.016 86.0459 343.206 86.1265C343.404 86.1998 343.675 86.2841 344.02 86.3794C344.452 86.4967 344.804 86.614 345.075 86.7313C345.347 86.8412 345.577 87.0098 345.768 87.237C345.966 87.4643 346.069 87.7611 346.076 88.1276C346.076 88.4575 345.984 88.7543 345.801 89.0182C345.618 89.2821 345.358 89.491 345.02 89.6449C344.691 89.7915 344.309 89.8648 343.877 89.8648ZM349.555 89.8648C349.094 89.8648 348.679 89.7879 348.313 89.6339C347.946 89.4727 347.657 89.2528 347.444 88.9742C347.232 88.6884 347.114 88.3622 347.093 87.9957H348.126C348.155 88.2962 348.295 88.5418 348.544 88.7323C348.8 88.9229 349.134 89.0182 349.544 89.0182C349.926 89.0182 350.226 88.9339 350.446 88.7653C350.666 88.5967 350.776 88.3842 350.776 88.1276C350.776 87.8637 350.659 87.6695 350.424 87.5449C350.189 87.413 349.827 87.2847 349.335 87.1601C348.888 87.0428 348.522 86.9255 348.236 86.8082C347.957 86.6836 347.716 86.504 347.51 86.2695C347.312 86.0276 347.213 85.7124 347.213 85.3239C347.213 85.0161 347.305 84.7339 347.488 84.4773C347.672 84.2208 347.932 84.0192 348.269 83.8726C348.606 83.7187 348.991 83.6417 349.423 83.6417C350.09 83.6417 350.629 83.8103 351.04 84.1475C351.45 84.4846 351.67 84.9464 351.699 85.5328H350.699C350.677 85.2176 350.549 84.9647 350.314 84.7742C350.087 84.5836 349.779 84.4883 349.39 84.4883C349.031 84.4883 348.745 84.5653 348.533 84.7192C348.32 84.8731 348.214 85.0747 348.214 85.3239C348.214 85.5218 348.276 85.6867 348.401 85.8187C348.533 85.9433 348.694 86.0459 348.885 86.1265C349.083 86.1998 349.354 86.2841 349.698 86.3794C350.131 86.4967 350.483 86.614 350.754 86.7313C351.025 86.8412 351.256 87.0098 351.447 87.237C351.644 87.4643 351.747 87.7611 351.754 88.1276C351.754 88.4575 351.663 88.7543 351.479 89.0182C351.296 89.2821 351.036 89.491 350.699 89.6449C350.369 89.7915 349.988 89.8648 349.555 89.8648ZM361.995 86.5224C361.995 86.7129 361.984 86.9145 361.962 87.1271H357.146C357.183 87.7208 357.384 88.1863 357.751 88.5234C358.124 88.8533 358.575 89.0182 359.103 89.0182C359.535 89.0182 359.895 88.9193 360.18 88.7213C360.474 88.5161 360.679 88.2449 360.796 87.9077H361.874C361.712 88.4868 361.39 88.9596 360.906 89.3261C360.422 89.6852 359.821 89.8648 359.103 89.8648C358.531 89.8648 358.018 89.7365 357.564 89.48C357.117 89.2235 356.765 88.8606 356.508 88.3915C356.252 87.9151 356.123 87.3653 356.123 86.7423C356.123 86.1192 356.248 85.5731 356.497 85.104C356.746 84.6349 357.095 84.2757 357.542 84.0265C357.996 83.77 358.517 83.6417 359.103 83.6417C359.675 83.6417 360.18 83.7663 360.62 84.0155C361.06 84.2647 361.397 84.6092 361.632 85.049C361.874 85.4815 361.995 85.9726 361.995 86.5224ZM360.961 86.3135C360.961 85.9323 360.877 85.6061 360.708 85.3349C360.54 85.0564 360.309 84.8475 360.016 84.7082C359.73 84.5616 359.411 84.4883 359.059 84.4883C358.553 84.4883 358.121 84.6496 357.762 84.9721C357.41 85.2946 357.208 85.7417 357.157 86.3135H360.961ZM366.185 83.6307C366.918 83.6307 367.512 83.8543 367.966 84.3014C368.421 84.7412 368.648 85.3789 368.648 86.2145V89.7659H367.658V86.3574C367.658 85.7564 367.508 85.2983 367.208 84.9831C366.907 84.6606 366.497 84.4993 365.976 84.4993C365.448 84.4993 365.027 84.6642 364.712 84.9941C364.404 85.3239 364.25 85.804 364.25 86.4344V89.7659H363.249V83.7406H364.25V84.5982C364.448 84.2904 364.715 84.0522 365.053 83.8836C365.397 83.715 365.775 83.6307 366.185 83.6307ZM371.437 84.5653V88.1166C371.437 88.4098 371.499 88.6187 371.624 88.7433C371.748 88.8606 371.964 88.9193 372.272 88.9193H373.009V89.7659H372.107C371.55 89.7659 371.133 89.6376 370.854 89.381C370.575 89.1245 370.436 88.703 370.436 88.1166V84.5653H369.656V83.7406H370.436V82.2233H371.437V83.7406H373.009V84.5653H371.437ZM374.672 82.7621C374.481 82.7621 374.32 82.6961 374.188 82.5642C374.056 82.4322 373.99 82.271 373.99 82.0804C373.99 81.8898 374.056 81.7286 374.188 81.5966C374.32 81.4647 374.481 81.3987 374.672 81.3987C374.855 81.3987 375.009 81.4647 375.134 81.5966C375.266 81.7286 375.332 81.8898 375.332 82.0804C375.332 82.271 375.266 82.4322 375.134 82.5642C375.009 82.6961 374.855 82.7621 374.672 82.7621ZM375.156 83.7406V89.7659H374.155V83.7406H375.156ZM378.016 84.5653V88.1166C378.016 88.4098 378.078 88.6187 378.202 88.7433C378.327 88.8606 378.543 88.9193 378.851 88.9193H379.588V89.7659H378.686C378.129 89.7659 377.711 89.6376 377.433 89.381C377.154 89.1245 377.015 88.703 377.015 88.1166V84.5653H376.234V83.7406H377.015V82.2233H378.016V83.7406H379.588V84.5653H378.016ZM381.251 82.7621C381.06 82.7621 380.899 82.6961 380.767 82.5642C380.635 82.4322 380.569 82.271 380.569 82.0804C380.569 81.8898 380.635 81.7286 380.767 81.5966C380.899 81.4647 381.06 81.3987 381.251 81.3987C381.434 81.3987 381.588 81.4647 381.713 81.5966C381.845 81.7286 381.911 81.8898 381.911 82.0804C381.911 82.271 381.845 82.4322 381.713 82.5642C381.588 82.6961 381.434 82.7621 381.251 82.7621ZM381.735 83.7406V89.7659H380.734V83.7406H381.735ZM388.871 86.5224C388.871 86.7129 388.86 86.9145 388.838 87.1271H384.023C384.059 87.7208 384.261 88.1863 384.627 88.5234C385.001 88.8533 385.452 89.0182 385.98 89.0182C386.412 89.0182 386.771 88.9193 387.057 88.7213C387.35 88.5161 387.556 88.2449 387.673 87.9077H388.75C388.589 88.4868 388.267 88.9596 387.783 89.3261C387.299 89.6852 386.698 89.8648 385.98 89.8648C385.408 89.8648 384.895 89.7365 384.44 89.48C383.993 89.2235 383.641 88.8606 383.385 88.3915C383.128 87.9151 383 87.3653 383 86.7423C383 86.1192 383.125 85.5731 383.374 85.104C383.623 84.6349 383.971 84.2757 384.418 84.0265C384.873 83.77 385.393 83.6417 385.98 83.6417C386.551 83.6417 387.057 83.7663 387.497 84.0155C387.937 84.2647 388.274 84.6092 388.509 85.049C388.75 85.4815 388.871 85.9726 388.871 86.5224ZM387.838 86.3135C387.838 85.9323 387.754 85.6061 387.585 85.3349C387.416 85.0564 387.186 84.8475 386.892 84.7082C386.606 84.5616 386.288 84.4883 385.936 84.4883C385.43 84.4883 384.998 84.6496 384.638 84.9721C384.287 85.2946 384.085 85.7417 384.034 86.3135H387.838ZM392.259 89.8648C391.797 89.8648 391.383 89.7879 391.017 89.6339C390.65 89.4727 390.361 89.2528 390.148 88.9742C389.936 88.6884 389.818 88.3622 389.796 87.9957H390.83C390.859 88.2962 390.998 88.5418 391.248 88.7323C391.504 88.9229 391.838 89.0182 392.248 89.0182C392.629 89.0182 392.93 88.9339 393.15 88.7653C393.37 88.5967 393.48 88.3842 393.48 88.1276C393.48 87.8637 393.362 87.6695 393.128 87.5449C392.893 87.413 392.53 87.2847 392.039 87.1601C391.592 87.0428 391.226 86.9255 390.94 86.8082C390.661 86.6836 390.419 86.504 390.214 86.2695C390.016 86.0276 389.917 85.7124 389.917 85.3239C389.917 85.0161 390.009 84.7339 390.192 84.4773C390.375 84.2208 390.636 84.0192 390.973 83.8726C391.31 83.7187 391.695 83.6417 392.127 83.6417C392.794 83.6417 393.333 83.8103 393.743 84.1475C394.154 84.4846 394.374 84.9464 394.403 85.5328H393.403C393.381 85.2176 393.252 84.9647 393.018 84.7742C392.791 84.5836 392.483 84.4883 392.094 84.4883C391.735 84.4883 391.449 84.5653 391.237 84.7192C391.024 84.8731 390.918 85.0747 390.918 85.3239C390.918 85.5218 390.98 85.6867 391.105 85.8187C391.237 85.9433 391.398 86.0459 391.588 86.1265C391.786 86.1998 392.058 86.2841 392.402 86.3794C392.835 86.4967 393.186 86.614 393.458 86.7313C393.729 86.8412 393.96 87.0098 394.15 87.237C394.348 87.4643 394.451 87.7611 394.458 88.1276C394.458 88.4575 394.367 88.7543 394.183 89.0182C394 89.2821 393.74 89.491 393.403 89.6449C393.073 89.7915 392.692 89.8648 392.259 89.8648ZM396.123 89.8318C395.933 89.8318 395.772 89.7659 395.64 89.6339C395.508 89.502 395.442 89.3407 395.442 89.1502C395.442 88.9596 395.508 88.7983 395.64 88.6664C395.772 88.5344 395.933 88.4685 396.123 88.4685C396.307 88.4685 396.461 88.5344 396.585 88.6664C396.717 88.7983 396.783 88.9596 396.783 89.1502C396.783 89.3407 396.717 89.502 396.585 89.6339C396.461 89.7659 396.307 89.8318 396.123 89.8318ZM411.075 82.1024L408.854 89.7659H407.733L405.951 83.5977L404.104 89.7659L402.994 89.7769L400.85 82.1024H401.916L403.587 88.6004L405.435 82.1024H406.556L408.315 88.5784L409.998 82.1024H411.075ZM415.095 83.6307C415.549 83.6307 415.96 83.7296 416.326 83.9276C416.693 84.1181 416.978 84.4077 417.184 84.7962C417.396 85.1846 417.503 85.6574 417.503 86.2145V89.7659H416.513V86.3574C416.513 85.7564 416.363 85.2983 416.062 84.9831C415.762 84.6606 415.351 84.4993 414.831 84.4993C414.303 84.4993 413.882 84.6642 413.566 84.9941C413.258 85.3239 413.105 85.804 413.105 86.4344V89.7659H412.104V81.6296H413.105V84.5982C413.302 84.2904 413.574 84.0522 413.918 83.8836C414.27 83.715 414.662 83.6307 415.095 83.6307ZM418.697 86.7313C418.697 86.1155 418.822 85.5768 419.071 85.115C419.32 84.6459 419.661 84.2831 420.093 84.0265C420.533 83.77 421.021 83.6417 421.556 83.6417C422.084 83.6417 422.542 83.7553 422.93 83.9825C423.319 84.2098 423.608 84.4956 423.799 84.8401V83.7406H424.81V89.7659H423.799V88.6444C423.601 88.9962 423.304 89.2894 422.908 89.524C422.52 89.7512 422.065 89.8648 421.545 89.8648C421.01 89.8648 420.526 89.7329 420.093 89.469C419.661 89.2051 419.32 88.835 419.071 88.3585C418.822 87.8821 418.697 87.3397 418.697 86.7313ZM423.799 86.7423C423.799 86.2878 423.707 85.892 423.524 85.5548C423.341 85.2176 423.091 84.9611 422.776 84.7852C422.468 84.6019 422.128 84.5103 421.754 84.5103C421.38 84.5103 421.039 84.5982 420.731 84.7742C420.423 84.9501 420.178 85.2066 419.995 85.5438C419.811 85.881 419.72 86.2768 419.72 86.7313C419.72 87.1931 419.811 87.5962 419.995 87.9407C420.178 88.2779 420.423 88.5381 420.731 88.7213C421.039 88.8973 421.38 88.9852 421.754 88.9852C422.128 88.9852 422.468 88.8973 422.776 88.7213C423.091 88.5381 423.341 88.2779 423.524 87.9407C423.707 87.5962 423.799 87.1967 423.799 86.7423ZM427.656 84.5653V88.1166C427.656 88.4098 427.718 88.6187 427.843 88.7433C427.967 88.8606 428.183 88.9193 428.491 88.9193H429.228V89.7659H428.326C427.769 89.7659 427.351 89.6376 427.073 89.381C426.794 89.1245 426.655 88.703 426.655 88.1166V84.5653H425.874V83.7406H426.655V82.2233H427.656V83.7406H429.228V84.5653H427.656ZM435.904 89.8648C435.442 89.8648 435.028 89.7879 434.661 89.6339C434.295 89.4727 434.005 89.2528 433.793 88.9742C433.58 88.6884 433.463 88.3622 433.441 87.9957H434.474C434.504 88.2962 434.643 88.5418 434.892 88.7323C435.149 88.9229 435.482 89.0182 435.893 89.0182C436.274 89.0182 436.574 88.9339 436.794 88.7653C437.014 88.5967 437.124 88.3842 437.124 88.1276C437.124 87.8637 437.007 87.6695 436.772 87.5449C436.538 87.413 436.175 87.2847 435.684 87.1601C435.237 87.0428 434.87 86.9255 434.584 86.8082C434.306 86.6836 434.064 86.504 433.858 86.2695C433.661 86.0276 433.562 85.7124 433.562 85.3239C433.562 85.0161 433.653 84.7339 433.836 84.4773C434.02 84.2208 434.28 84.0192 434.617 83.8726C434.954 83.7187 435.339 83.6417 435.772 83.6417C436.439 83.6417 436.977 83.8103 437.388 84.1475C437.798 84.4846 438.018 84.9464 438.048 85.5328H437.047C437.025 85.2176 436.897 84.9647 436.662 84.7742C436.435 84.5836 436.127 84.4883 435.739 84.4883C435.379 84.4883 435.094 84.5653 434.881 84.7192C434.668 84.8731 434.562 85.0747 434.562 85.3239C434.562 85.5218 434.624 85.6867 434.749 85.8187C434.881 85.9433 435.042 86.0459 435.233 86.1265C435.431 86.1998 435.702 86.2841 436.046 86.3794C436.479 86.4967 436.831 86.614 437.102 86.7313C437.373 86.8412 437.604 87.0098 437.795 87.237C437.993 87.4643 438.095 87.7611 438.103 88.1276C438.103 88.4575 438.011 88.7543 437.828 89.0182C437.644 89.2821 437.384 89.491 437.047 89.6449C436.717 89.7915 436.336 89.8648 435.904 89.8648ZM442.44 83.6307C442.894 83.6307 443.305 83.7296 443.671 83.9276C444.038 84.1181 444.323 84.4077 444.529 84.7962C444.741 85.1846 444.847 85.6574 444.847 86.2145V89.7659H443.858V86.3574C443.858 85.7564 443.708 85.2983 443.407 84.9831C443.107 84.6606 442.696 84.4993 442.176 84.4993C441.648 84.4993 441.226 84.6642 440.911 84.9941C440.603 85.3239 440.45 85.804 440.45 86.4344V89.7659H439.449V81.6296H440.45V84.5982C440.647 84.2904 440.919 84.0522 441.263 83.8836C441.615 83.715 442.007 83.6307 442.44 83.6307ZM449.044 89.8648C448.479 89.8648 447.966 89.7365 447.504 89.48C447.05 89.2235 446.691 88.8606 446.427 88.3915C446.17 87.9151 446.042 87.3653 446.042 86.7423C446.042 86.1265 446.174 85.5841 446.438 85.115C446.709 84.6386 447.076 84.2757 447.537 84.0265C447.999 83.77 448.516 83.6417 449.088 83.6417C449.659 83.6417 450.176 83.77 450.638 84.0265C451.1 84.2757 451.463 84.6349 451.726 85.104C451.998 85.5731 452.133 86.1192 452.133 86.7423C452.133 87.3653 451.994 87.9151 451.715 88.3915C451.444 88.8606 451.074 89.2235 450.605 89.48C450.136 89.7365 449.615 89.8648 449.044 89.8648ZM449.044 88.9852C449.403 88.9852 449.74 88.9009 450.055 88.7323C450.37 88.5638 450.623 88.3109 450.814 87.9737C451.012 87.6365 451.111 87.226 451.111 86.7423C451.111 86.2585 451.015 85.848 450.825 85.5108C450.634 85.1736 450.385 84.9244 450.077 84.7632C449.769 84.5946 449.436 84.5103 449.077 84.5103C448.71 84.5103 448.373 84.5946 448.065 84.7632C447.765 84.9244 447.523 85.1736 447.339 85.5108C447.156 85.848 447.065 86.2585 447.065 86.7423C447.065 87.2334 447.153 87.6475 447.328 87.9847C447.512 88.3219 447.754 88.5748 448.054 88.7433C448.355 88.9046 448.685 88.9852 449.044 88.9852ZM458.726 83.7406V89.7659H457.726V88.8753C457.535 89.1831 457.268 89.425 456.923 89.6009C456.586 89.7695 456.212 89.8538 455.802 89.8538C455.333 89.8538 454.911 89.7585 454.537 89.568C454.163 89.3701 453.867 89.0769 453.647 88.6884C453.434 88.2999 453.328 87.8271 453.328 87.27V83.7406H454.317V87.1381C454.317 87.7318 454.468 88.1899 454.768 88.5124C455.069 88.8276 455.479 88.9852 456 88.9852C456.535 88.9852 456.956 88.8203 457.264 88.4905C457.572 88.1606 457.726 87.6805 457.726 87.0501V83.7406H458.726ZM461.35 81.6296V89.7659H460.35V81.6296H461.35ZM462.616 86.7313C462.616 86.1155 462.74 85.5768 462.99 85.115C463.239 84.6459 463.58 84.2831 464.012 84.0265C464.452 83.77 464.943 83.6417 465.485 83.6417C465.955 83.6417 466.391 83.7516 466.794 83.9715C467.197 84.1841 467.505 84.4663 467.717 84.8181V81.6296H468.729V89.7659H467.717V88.6334C467.52 88.9926 467.226 89.2894 466.838 89.524C466.449 89.7512 465.995 89.8648 465.474 89.8648C464.939 89.8648 464.452 89.7329 464.012 89.469C463.58 89.2051 463.239 88.835 462.99 88.3585C462.74 87.8821 462.616 87.3397 462.616 86.7313ZM467.717 86.7423C467.717 86.2878 467.626 85.892 467.443 85.5548C467.259 85.2176 467.01 84.9611 466.695 84.7852C466.387 84.6019 466.046 84.5103 465.672 84.5103C465.299 84.5103 464.958 84.5982 464.65 84.7742C464.342 84.9501 464.096 85.2066 463.913 85.5438C463.73 85.881 463.638 86.2768 463.638 86.7313C463.638 87.1931 463.73 87.5962 463.913 87.9407C464.096 88.2779 464.342 88.5381 464.65 88.7213C464.958 88.8973 465.299 88.9852 465.672 88.9852C466.046 88.9852 466.387 88.8973 466.695 88.7213C467.01 88.5381 467.259 88.2779 467.443 87.9407C467.626 87.5962 467.717 87.1967 467.717 86.7423ZM474.751 82.1024V89.7659H473.75V82.1024H474.751ZM112.928 100.731C112.928 100.116 113.052 99.5768 113.302 99.115C113.551 98.6459 113.892 98.2831 114.324 98.0265C114.764 97.77 115.255 97.6417 115.798 97.6417C116.267 97.6417 116.703 97.7516 117.106 97.9715C117.509 98.1841 117.817 98.4663 118.03 98.8181V95.6296H119.041V103.766H118.03V102.633C117.832 102.993 117.538 103.289 117.15 103.524C116.761 103.751 116.307 103.865 115.787 103.865C115.251 103.865 114.764 103.733 114.324 103.469C113.892 103.205 113.551 102.835 113.302 102.359C113.052 101.882 112.928 101.34 112.928 100.731ZM118.03 100.742C118.03 100.288 117.938 99.892 117.755 99.5548C117.571 99.2176 117.322 98.9611 117.007 98.7852C116.699 98.6019 116.358 98.5103 115.984 98.5103C115.611 98.5103 115.27 98.5982 114.962 98.7742C114.654 98.9501 114.409 99.2066 114.225 99.5438C114.042 99.881 113.95 100.277 113.95 100.731C113.95 101.193 114.042 101.596 114.225 101.941C114.409 102.278 114.654 102.538 114.962 102.721C115.27 102.897 115.611 102.985 115.984 102.985C116.358 102.985 116.699 102.897 117.007 102.721C117.322 102.538 117.571 102.278 117.755 101.941C117.938 101.596 118.03 101.197 118.03 100.742ZM123.294 103.865C122.729 103.865 122.216 103.737 121.754 103.48C121.3 103.223 120.941 102.861 120.677 102.392C120.42 101.915 120.292 101.365 120.292 100.742C120.292 100.127 120.424 99.5841 120.688 99.115C120.959 98.6386 121.326 98.2757 121.787 98.0265C122.249 97.77 122.766 97.6417 123.338 97.6417C123.909 97.6417 124.426 97.77 124.888 98.0265C125.35 98.2757 125.713 98.6349 125.976 99.104C126.248 99.5731 126.383 100.119 126.383 100.742C126.383 101.365 126.244 101.915 125.965 102.392C125.694 102.861 125.324 103.223 124.855 103.48C124.386 103.737 123.865 103.865 123.294 103.865ZM123.294 102.985C123.653 102.985 123.99 102.901 124.305 102.732C124.62 102.564 124.873 102.311 125.064 101.974C125.262 101.637 125.361 101.226 125.361 100.742C125.361 100.258 125.265 99.848 125.075 99.5108C124.884 99.1736 124.635 98.9244 124.327 98.7632C124.019 98.5946 123.686 98.5103 123.327 98.5103C122.96 98.5103 122.623 98.5946 122.315 98.7632C122.015 98.9244 121.773 99.1736 121.589 99.5108C121.406 99.848 121.315 100.258 121.315 100.742C121.315 101.233 121.403 101.648 121.578 101.985C121.762 102.322 122.004 102.575 122.304 102.743C122.605 102.905 122.935 102.985 123.294 102.985ZM129.59 96.0034C130.316 96.0034 130.902 96.2087 131.349 96.6192C131.796 97.0296 132.02 97.5794 132.02 98.2684C132.02 99.038 131.782 99.6098 131.305 99.9836C130.829 100.35 130.184 100.533 129.37 100.533L129.337 101.578H128.468L128.424 99.8407H128.743C129.469 99.8407 130.037 99.7307 130.448 99.5108C130.858 99.2909 131.063 98.8768 131.063 98.2684C131.063 97.8286 130.931 97.4804 130.667 97.2239C130.404 96.9673 130.048 96.8391 129.601 96.8391C129.146 96.8391 128.787 96.9637 128.523 97.2129C128.267 97.4548 128.139 97.7883 128.139 98.2134H127.193C127.193 97.7736 127.292 97.3888 127.49 97.059C127.688 96.7218 127.966 96.4616 128.326 96.2783C128.692 96.0951 129.113 96.0034 129.59 96.0034ZM128.897 103.832C128.707 103.832 128.545 103.766 128.413 103.634C128.282 103.502 128.216 103.341 128.216 103.15C128.216 102.96 128.282 102.798 128.413 102.666C128.545 102.534 128.707 102.468 128.897 102.468C129.08 102.468 129.234 102.534 129.359 102.666C129.491 102.798 129.557 102.96 129.557 103.15C129.557 103.341 129.491 103.502 129.359 103.634C129.234 103.766 129.08 103.832 128.897 103.832Z" fill="black"/>
</g>
</g>
</g>
</g>
<defs>
<filter id="filter0_d_975_2631" x="-1.19936" y="115.876" width="456.106" height="441.395" filterUnits="userSpaceOnUse" color-interpolation-filters="sRGB">
<feFlood flood-opacity="0" result="BackgroundImageFix"/>
<feColorMatrix in="SourceAlpha" type="matrix" values="0 0 0 0 0 0 0 0 0 0 0 0 0 0 0 0 0 0 127 0" result="hardAlpha"/>
<feOffset dy="1.49464"/>
<feGaussianBlur stdDeviation="3.8487"/>
<feComposite in2="hardAlpha" operator="out"/>
<feColorMatrix type="matrix" values="0 0 0 0 0 0 0 0 0 0 0 0 0 0 0 0 0 0 0.1 0"/>
<feBlend mode="normal" in2="BackgroundImageFix" result="effect1_dropShadow_975_2631"/>
<feBlend mode="normal" in="SourceGraphic" in2="effect1_dropShadow_975_2631" result="shape"/>
</filter>
<filter id="filter1_d_975_2631" x="81.4501" y="40.0902" width="425.1" height="94.2836" filterUnits="userSpaceOnUse" color-interpolation-filters="sRGB">
<feFlood flood-opacity="0" result="BackgroundImageFix"/>
<feColorMatrix in="SourceAlpha" type="matrix" values="0 0 0 0 0 0 0 0 0 0 0 0 0 0 0 0 0 0 127 0" result="hardAlpha"/>
<feOffset dy="1.46599"/>
<feGaussianBlur stdDeviation="3.77493"/>
<feComposite in2="hardAlpha" operator="out"/>
<feColorMatrix type="matrix" values="0 0 0 0 0 0 0 0 0 0 0 0 0 0 0 0 0 0 0.1 0"/>
<feBlend mode="normal" in2="BackgroundImageFix" result="effect1_dropShadow_975_2631"/>
<feBlend mode="normal" in="SourceGraphic" in2="effect1_dropShadow_975_2631" result="shape"/>
</filter>
<linearGradient id="paint0_linear_975_2631" x1="39.4779" y1="139.824" x2="39.4779" y2="157.341" gradientUnits="userSpaceOnUse">
<stop stop-color="#0A58EB"/>
</linearGradient>
<linearGradient id="paint1_linear_975_2631" x1="42.9418" y1="140.078" x2="42.9418" y2="157.596" gradientUnits="userSpaceOnUse">
<stop stop-color="#0A58EB"/>
</linearGradient>
<radialGradient id="paint2_radial_975_2631" cx="0" cy="0" r="1" gradientUnits="userSpaceOnUse" gradientTransform="translate(143.5 204) rotate(118.608) scale(152.46 19.7583)">
<stop stop-color="white"/>
<stop offset="1" stop-color="#E4E4E4" stop-opacity="0"/>
</radialGradient>
<radialGradient id="paint3_radial_975_2631" cx="0" cy="0" r="1" gradientUnits="userSpaceOnUse" gradientTransform="translate(407.5 263) rotate(116.12) scale(86.9102 17.8169)">
<stop stop-color="white"/>
<stop offset="1" stop-color="#E4E4E4" stop-opacity="0"/>
</radialGradient>
<clipPath id="clip0_975_2631">
<rect x="16.9395" y="16.8552" width="485" height="369" rx="8.295" fill="white"/>
</clipPath>
<clipPath id="clip1_975_2631">
<rect width="637.001" height="413.713" fill="white" transform="translate(-133.84 17.2715)"/>
</clipPath>
<clipPath id="clip2_975_2631">
<rect width="509.348" height="413.713" fill="white" transform="translate(-6.1875 17.2715)"/>
</clipPath>
</defs>
</svg>
