<svg width="482" height="601" viewBox="0 0 482 601" fill="none" xmlns="http://www.w3.org/2000/svg">
<g clip-path="url(#clip0_2012_1748)">
<path d="M605.435 300.753H539.48C536.49 300.753 534.061 303.181 534.061 306.169C531.072 412.246 440.64 496.66 331.898 489.376C232.124 482.466 153.65 395.812 156.079 296.084C156.452 278.343 159.442 261.348 164.3 245.1C172.334 219.141 185.787 195.61 203.35 175.814C238.103 136.595 288.55 111.943 344.977 111.943C401.403 111.943 437.09 130.059 470.348 159.566C476.14 164.608 481.559 170.024 486.603 175.814L541.161 121.281C535.93 115.678 530.511 110.263 524.906 105.033C477.448 61.5193 414.295 35 344.79 35C275.284 35 197.184 68.2425 148.418 121.281C130.855 140.517 116.094 162.181 104.697 185.899C85.8257 225.117 76.4836 269.565 79.0994 316.627C86.5731 448.664 193.26 556.795 325.171 566.32C479.13 577.151 607.491 457.254 610.667 306.729C610.667 303.555 608.051 300.94 605.062 300.94L605.435 300.753Z" fill="url(#paint0_linear_2012_1748)" fill-opacity="0.05"/>
<path d="M687.772 62.5C692.626 62.5 695.239 68.4687 691.692 72.0126L584.73 178.888L525.368 238.015L398.992 364.289L389.098 374.174C364.831 398.609 325.256 398.609 300.803 374.174L290.722 364.103L200 273.454L206.16 267.299C232.667 240.813 275.602 240.813 301.923 267.299L344.857 310.198L486.354 168.816L591.076 64.1787C592.196 63.0596 593.503 62.5 594.997 62.5H687.586H687.772Z" fill="url(#paint1_linear_2012_1748)" fill-opacity="0.05"/>
</g>
<defs>
<linearGradient id="paint0_linear_2012_1748" x1="345.163" y1="29.3973" x2="345.163" y2="544.096" gradientUnits="userSpaceOnUse">
<stop stop-color="#0A58EB"/>
</linearGradient>
<linearGradient id="paint1_linear_2012_1748" x1="446.78" y1="30.0456" x2="446.78" y2="544.094" gradientUnits="userSpaceOnUse">
<stop stop-color="#0A58EB"/>
</linearGradient>
<clipPath id="clip0_2012_1748">
<rect width="600" height="600" fill="white" transform="translate(0 0.5)"/>
</clipPath>
</defs>
</svg>
