<svg width="1440" height="648" viewBox="0 0 1440 648" fill="none" xmlns="http://www.w3.org/2000/svg">
<path fill-rule="evenodd" clip-rule="evenodd" d="M-191.328 543.431L-191.328 720.287H-189.328L-189.328 543.431H-76.9728V720.287H-74.9728V543.431H37.3825V720.287H39.3825V543.431H151.738V720.287H153.738V543.431H264.361V720.287H266.361V543.431H378.716V720.287H380.716V543.431H493.071V720.287H495.071V543.431H607.427V720.287H609.427V543.431H720.05V720.287H722.05V543.431H834.405V720.287H836.405V543.431H948.761V720.287H950.761V543.431H1061.38V720.287H1063.38V543.431H1175.74V720.287H1177.74V543.431H1290.09V720.287H1292.09V543.431H1404.45V720.287H1406.45V543.431H1517.07V720.287H1519.07V543.431H1631.43V720.287H1633.43V543.431H1790.83V541.431H1633.43V428.61H1790.83V426.61H1633.43V313.79H1790.83V311.79H1633.43V198.97H1790.83V196.97H1633.43V84.1498H1790.83V82.1498H1633.43V-30.6704H1790.83V-32.6704H1633.43V-145.491H1790.83V-147.491H1633.43V-260.312H1790.83V-262.312H1633.43V-425H1631.43V-262.312H1519.07V-425H1517.07V-262.312H1406.45V-425H1404.45V-262.312H1292.09V-425H1290.09V-262.312H1177.74V-425H1175.74V-262.312H1063.38V-425H1061.38V-262.312H950.761V-425H948.761V-262.312H836.405V-425H834.405V-262.312H722.05V-425H720.05V-262.312H609.427V-425H607.427V-262.312H495.071V-425H493.071V-262.312H380.716V-425H378.716V-262.312H266.361V-425H264.361V-262.312H153.738V-425H151.738V-262.312H39.3826V-425H37.3826V-262.312H-74.9728V-425H-76.9728V-262.312H-189.328L-189.328 -425H-191.328L-191.328 -262.312H-349V-260.312H-191.328V-147.491H-349V-145.491H-191.328V-32.6704H-349V-30.6704H-191.328L-191.328 82.1498H-349V84.1498H-191.328V196.97H-349V198.97H-191.328L-191.328 311.79H-349V313.79H-191.328V426.61H-349V428.61H-191.328V541.431H-349V543.431H-191.328ZM1631.43 -260.312H1519.07V-147.491H1631.43V-260.312ZM1631.43 -145.491H1519.07V-32.6704H1631.43V-145.491ZM1631.43 -30.6704H1519.07V82.1498H1631.43V-30.6704ZM1631.43 84.1498H1519.07V196.97H1631.43V84.1498ZM1631.43 198.97H1519.07V311.79H1631.43V198.97ZM1631.43 313.79H1519.07V426.61H1631.43V313.79ZM1631.43 428.61H1519.07V541.431H1631.43V428.61ZM1517.07 428.61V541.431H1406.45V428.61H1517.07ZM1517.07 313.79V426.61H1406.45V313.79H1517.07ZM1517.07 198.97V311.79H1406.45V198.97H1517.07ZM1517.07 84.1498V196.97H1406.45V84.1498H1517.07ZM1517.07 -30.6704V82.1498H1406.45V-30.6704H1517.07ZM1517.07 -145.491V-32.6704H1406.45V-145.491H1517.07ZM1517.07 -260.312V-147.491H1406.45V-260.312H1517.07ZM1404.45 -260.312H1292.09V-147.491H1404.45V-260.312ZM1404.45 -145.491H1292.09V-32.6704H1404.45V-145.491ZM1404.45 -30.6704H1292.09V82.1498H1404.45V-30.6704ZM1404.45 84.1498H1292.09V196.97H1404.45V84.1498ZM1404.45 198.97H1292.09V311.79H1404.45V198.97ZM1404.45 313.79H1292.09V426.61H1404.45V313.79ZM1404.45 428.61H1292.09V541.431H1404.45V428.61ZM1290.09 428.61V541.431H1177.74V428.61H1290.09ZM1290.09 313.79V426.61H1177.74V313.79H1290.09ZM1290.09 198.97V311.79H1177.74V198.97H1290.09ZM1290.09 84.1498V196.97H1177.74V84.1498H1290.09ZM1290.09 -30.6704V82.1498H1177.74V-30.6704H1290.09ZM1290.09 -145.491V-32.6704H1177.74V-145.491H1290.09ZM1290.09 -260.312V-147.491H1177.74V-260.312H1290.09ZM1175.74 -260.312H1063.38V-147.491H1175.74V-260.312ZM1175.74 -145.491H1063.38V-32.6704H1175.74V-145.491ZM1175.74 -30.6704H1063.38V82.1498H1175.74V-30.6704ZM1175.74 84.1498H1063.38V196.97H1175.74V84.1498ZM1175.74 198.97H1063.38V311.79H1175.74V198.97ZM1175.74 313.79H1063.38V426.61H1175.74V313.79ZM1175.74 428.61H1063.38V541.431H1175.74V428.61ZM1061.38 428.61V541.431H950.761V428.61H1061.38ZM1061.38 313.79V426.61H950.761V313.79H1061.38ZM1061.38 198.97V311.79H950.761V198.97H1061.38ZM1061.38 84.1498V196.97H950.761V84.1498H1061.38ZM1061.38 -30.6704V82.1498H950.761V-30.6704H1061.38ZM1061.38 -145.491V-32.6704H950.761V-145.491H1061.38ZM1061.38 -260.312V-147.491H950.761V-260.312H1061.38ZM948.761 -260.312H836.405V-147.491H948.761V-260.312ZM948.761 -145.491H836.405V-32.6704H948.761V-145.491ZM948.761 -30.6704H836.405V82.1498H948.761V-30.6704ZM948.761 84.1498H836.405V196.97H948.761V84.1498ZM948.761 198.97H836.405V311.79H948.761V198.97ZM948.761 313.79H836.405V426.61H948.761V313.79ZM948.761 428.61H836.405V541.431H948.761V428.61ZM834.405 428.61V541.431H722.05V428.61H834.405ZM834.405 313.79V426.61H722.05V313.79H834.405ZM834.405 198.97V311.79H722.05V198.97H834.405ZM834.405 84.1498V196.97H722.05V84.1498H834.405ZM834.405 -30.6704V82.1498H722.05V-30.6704H834.405ZM834.405 -145.491V-32.6704H722.05V-145.491H834.405ZM834.405 -260.312V-147.491H722.05V-260.312H834.405ZM720.05 -260.312H609.427V-147.491H720.05V-260.312ZM720.05 -145.491H609.427V-32.6704H720.05V-145.491ZM720.05 -30.6704H609.427V82.1498H720.05V-30.6704ZM720.05 84.1498H609.427L609.427 196.97H720.05V84.1498ZM720.05 198.97H609.427V311.79H720.05V198.97ZM720.05 313.79H609.427V426.61H720.05V313.79ZM720.05 428.61H609.427V541.431H720.05V428.61ZM607.427 428.61V541.431H495.071V428.61H607.427ZM607.427 313.79V426.61H495.071V313.79H607.427ZM607.427 198.97V311.79H495.071V198.97H607.427ZM607.427 84.1498L607.427 196.97H495.071L495.071 84.1498H607.427ZM607.427 -30.6704V82.1498H495.071V-30.6704H607.427ZM607.427 -145.491V-32.6704H495.071V-145.491H607.427ZM607.427 -260.312V-147.491H495.071V-260.312H607.427ZM493.071 -260.312H380.716V-147.491H493.071V-260.312ZM493.071 -145.491H380.716V-32.6704H493.071V-145.491ZM493.071 -30.6704H380.716V82.1498H493.071V-30.6704ZM493.071 84.1498H380.716L380.716 196.97H493.071L493.071 84.1498ZM493.071 198.97H380.716V311.79H493.071V198.97ZM493.071 313.79H380.716V426.61H493.071V313.79ZM493.071 428.61H380.716V541.431H493.071V428.61ZM378.716 428.61V541.431H266.361V428.61H378.716ZM378.716 313.79V426.61H266.361V313.79H378.716ZM378.716 198.97V311.79H266.361V198.97H378.716ZM378.716 84.1498L378.716 196.97H266.361L266.361 84.1498H378.716ZM378.716 -30.6704V82.1498H266.361V-30.6704H378.716ZM378.716 -145.491V-32.6704H266.361V-145.491H378.716ZM378.716 -260.312V-147.491H266.361V-260.312H378.716ZM264.361 -260.312H153.738V-147.491H264.361V-260.312ZM264.361 -145.491H153.738L153.738 -32.6704H264.361V-145.491ZM264.361 -30.6704H153.738V82.1498H264.361V-30.6704ZM264.361 84.1498H153.738V196.97H264.361L264.361 84.1498ZM264.361 198.97H153.738V311.79H264.361V198.97ZM264.361 313.79H153.738V426.61H264.361V313.79ZM264.361 428.61H153.738L153.738 541.431H264.361V428.61ZM151.738 428.61L151.738 541.431H39.3825L39.3825 428.61H151.738ZM151.738 313.79V426.61H39.3825V313.79H151.738ZM151.738 198.97V311.79H39.3825V198.97H151.738ZM151.738 84.1498V196.97H39.3825V84.1498H151.738ZM151.738 -30.6704V82.1498H39.3825V-30.6704H151.738ZM151.738 -145.491L151.738 -32.6704H39.3825L39.3826 -145.491H151.738ZM151.738 -260.312V-147.491H39.3826V-260.312H151.738ZM37.3826 -260.312H-74.9728V-147.491H37.3826V-260.312ZM37.3826 -145.491H-74.9728L-74.9728 -32.6704H37.3825L37.3826 -145.491ZM37.3825 -30.6704H-74.9728V82.1498H37.3825V-30.6704ZM37.3825 84.1498H-74.9728V196.97H37.3825V84.1498ZM37.3825 198.97H-74.9728V311.79H37.3825V198.97ZM37.3825 313.79H-74.9728V426.61H37.3825V313.79ZM37.3825 428.61H-74.9728L-74.9728 541.431H37.3825L37.3825 428.61ZM-76.9728 428.61L-76.9728 541.431H-189.328V428.61H-76.9728ZM-76.9728 313.79V426.61H-189.328V313.79H-76.9728ZM-76.9728 198.97V311.79H-189.328L-189.328 198.97H-76.9728ZM-76.9728 84.1498V196.97H-189.328V84.1498H-76.9728ZM-76.9728 -30.6704V82.1498H-189.328L-189.328 -30.6704H-76.9728ZM-76.9728 -145.491L-76.9728 -32.6704H-189.328V-145.491H-76.9728ZM-76.9728 -260.312V-147.491H-189.328V-260.312H-76.9728Z" fill="url(#paint0_radial_2012_1799)"/>
<defs>
<radialGradient id="paint0_radial_2012_1799" cx="0" cy="0" r="1" gradientUnits="userSpaceOnUse" gradientTransform="translate(715.548 1299.05) rotate(180) scale(1300.45 1234.17)">
<stop stop-color="#EDECF3"/>
<stop offset="1" stop-color="#E6E5F5" stop-opacity="0.01"/>
</radialGradient>
</defs>
</svg>
