<svg width="820" height="444" viewBox="0 0 820 444" fill="none" xmlns="http://www.w3.org/2000/svg">
<g clip-path="url(#clip0_1253_10379)">
<path fill-rule="evenodd" clip-rule="evenodd" d="M665.003 134.919C628.002 110.196 584.5 97 540 97V-128C629.001 -128 716.004 -101.608 790.007 -52.1613C864.009 -2.71483 921.685 67.5657 955.746 149.792C989.804 232.018 998.716 322.5 981.353 409.791C963.99 497.081 921.132 577.265 858.197 640.197C795.265 703.132 715.081 745.99 627.791 763.353C540.5 780.716 450.018 771.804 367.792 737.746C285.566 703.685 215.285 646.009 165.839 572.007C116.392 498.004 90 411.001 90 322H315C315 366.5 328.196 410.002 352.919 447.003C377.642 484.005 412.783 512.843 453.897 529.873C495.009 546.903 540.25 551.358 583.895 542.676C627.541 533.995 667.631 512.566 699.1 481.1C730.566 449.631 751.995 409.541 760.676 365.895C769.358 322.25 764.903 277.009 747.873 235.897C730.843 194.783 702.005 159.642 665.003 134.919Z" fill="#007DFC" fill-opacity="0.05"/>
<path fill-rule="evenodd" clip-rule="evenodd" d="M315 -128C315 -98.4525 309.18 -69.1944 297.873 -41.8962C286.566 -14.5979 269.992 10.2059 249.099 31.0992C228.206 51.9924 203.402 68.5657 176.104 79.8731C148.805 91.1802 119.547 97.0001 90 97.0001L90 322C149.095 322 207.611 310.361 262.208 287.746C316.804 265.131 366.412 231.984 408.197 190.197C449.984 148.413 483.131 98.8046 505.746 44.2077C528.361 -10.389 540 -68.9052 540 -128L315 -128Z" fill="#007DFC" fill-opacity="0.05"/>
</g>
<defs>
<clipPath id="clip0_1253_10379">
<rect width="900" height="900" fill="white" transform="translate(90 -128)"/>
</clipPath>
</defs>
</svg>
