<svg width="1440" height="1539" viewBox="0 0 1440 1539" fill="none" xmlns="http://www.w3.org/2000/svg">
<g clip-path="url(#clip0_1894_360)">
<path d="M50 1183V0" stroke="#C1C7CF" stroke-opacity="0.2"/>
<path d="M100 1183V0" stroke="#C1C7CF" stroke-opacity="0.2"/>
<path d="M150 1183V0" stroke="#C1C7CF" stroke-opacity="0.2"/>
<path d="M200 1183V0" stroke="#C1C7CF" stroke-opacity="0.2"/>
<path d="M250 1183V0" stroke="#C1C7CF" stroke-opacity="0.2"/>
<path d="M300 1183V0" stroke="#C1C7CF" stroke-opacity="0.2"/>
<path d="M350 1183V0" stroke="#C1C7CF" stroke-opacity="0.2"/>
<path d="M400 1183V0" stroke="#C1C7CF" stroke-opacity="0.2"/>
<path d="M450 1183V0" stroke="#C1C7CF" stroke-opacity="0.2"/>
<path d="M500 1183V0" stroke="#C1C7CF" stroke-opacity="0.2"/>
<path d="M550 1183V0" stroke="#C1C7CF" stroke-opacity="0.2"/>
<path d="M600 1183V0" stroke="#C1C7CF" stroke-opacity="0.2"/>
<path d="M650 1183V0" stroke="#C1C7CF" stroke-opacity="0.2"/>
<path d="M700 1183V0" stroke="#C1C7CF" stroke-opacity="0.2"/>
<path d="M750 1183V0" stroke="#C1C7CF" stroke-opacity="0.2"/>
<path d="M800 1183V0" stroke="#C1C7CF" stroke-opacity="0.2"/>
<path d="M850 1183V0" stroke="#C1C7CF" stroke-opacity="0.2"/>
<path d="M900 1183V0" stroke="#C1C7CF" stroke-opacity="0.2"/>
<path d="M950 1183V0" stroke="#C1C7CF" stroke-opacity="0.2"/>
<path d="M1000 1183V0" stroke="#C1C7CF" stroke-opacity="0.2"/>
<path d="M1050 1183V0" stroke="#C1C7CF" stroke-opacity="0.2"/>
<path d="M1100 1183V0" stroke="#C1C7CF" stroke-opacity="0.2"/>
<path d="M1150 1183V0" stroke="#C1C7CF" stroke-opacity="0.2"/>
<path d="M1200 1183V0" stroke="#C1C7CF" stroke-opacity="0.2"/>
<path d="M1250 1183V0" stroke="#C1C7CF" stroke-opacity="0.2"/>
<path d="M1300 1183V0" stroke="#C1C7CF" stroke-opacity="0.2"/>
<path d="M1350 1183V0" stroke="#C1C7CF" stroke-opacity="0.2"/>
<path d="M1400 1183V0" stroke="#C1C7CF" stroke-opacity="0.2"/>
<path d="M0 57.7637H1440" stroke="#C1C7CF" stroke-opacity="0.2"/>
<path d="M0 115.527H1440" stroke="#C1C7CF" stroke-opacity="0.2"/>
<path d="M0 173.291H1440" stroke="#C1C7CF" stroke-opacity="0.2"/>
<path d="M0 231.055H1440" stroke="#C1C7CF" stroke-opacity="0.2"/>
<path d="M0 288.818H1440" stroke="#C1C7CF" stroke-opacity="0.2"/>
<path d="M0 346.582H1440" stroke="#C1C7CF" stroke-opacity="0.2"/>
<path d="M0 404.346H1440" stroke="#C1C7CF" stroke-opacity="0.2"/>
<path d="M0 462.109H1440" stroke="#C1C7CF" stroke-opacity="0.2"/>
<path d="M0 519.873H1440" stroke="#C1C7CF" stroke-opacity="0.2"/>
<path d="M0 577.637H1440" stroke="#C1C7CF" stroke-opacity="0.2"/>
<path d="M0 635.4H1440" stroke="#C1C7CF" stroke-opacity="0.2"/>
<path d="M0 693.164H1440" stroke="#C1C7CF" stroke-opacity="0.2"/>
<path d="M0 750.928H1440" stroke="#C1C7CF" stroke-opacity="0.2"/>
<path d="M0 808.691H1440" stroke="#C1C7CF" stroke-opacity="0.2"/>
<path d="M0 866.455H1440" stroke="#C1C7CF" stroke-opacity="0.2"/>
<path d="M0 924.219H1440" stroke="#C1C7CF" stroke-opacity="0.2"/>
<path d="M0 981.982H1440" stroke="#C1C7CF" stroke-opacity="0.2"/>
<path d="M0 1039.75H1440" stroke="#C1C7CF" stroke-opacity="0.2"/>
<path d="M0 1097.51H1440" stroke="#C1C7CF" stroke-opacity="0.2"/>
<path d="M0 1155.27H1440" stroke="#C1C7CF" stroke-opacity="0.2"/>
<mask id="mask0_1894_360" style="mask-type:alpha" maskUnits="userSpaceOnUse" x="0" y="852" width="1440" height="679">
<rect y="852" width="1440" height="679" fill="#EDF8FF"/>
</mask>
<g mask="url(#mask0_1894_360)">
<rect y="852" width="1440" height="679" fill="url(#paint0_linear_1894_360)" fill-opacity="0.5"/>
</g>
<g opacity="0.5">
<g opacity="0.6" filter="url(#filter0_f_1894_360)">
<ellipse cx="123.507" cy="778" rx="684" ry="123.507" transform="rotate(90 123.507 778)" fill="#0A58EB"/>
</g>
<g opacity="0.6" filter="url(#filter1_f_1894_360)">
<ellipse cx="1316.49" cy="778" rx="684" ry="123.507" transform="rotate(90 1316.49 778)" fill="#0A58EB"/>
</g>
</g>
</g>
<defs>
<filter id="filter0_f_1894_360" x="-320" y="-226" width="887.014" height="2008" filterUnits="userSpaceOnUse" color-interpolation-filters="sRGB">
<feFlood flood-opacity="0" result="BackgroundImageFix"/>
<feBlend mode="normal" in="SourceGraphic" in2="BackgroundImageFix" result="shape"/>
<feGaussianBlur stdDeviation="160" result="effect1_foregroundBlur_1894_360"/>
</filter>
<filter id="filter1_f_1894_360" x="872.986" y="-226" width="887.014" height="2008" filterUnits="userSpaceOnUse" color-interpolation-filters="sRGB">
<feFlood flood-opacity="0" result="BackgroundImageFix"/>
<feBlend mode="normal" in="SourceGraphic" in2="BackgroundImageFix" result="shape"/>
<feGaussianBlur stdDeviation="160" result="effect1_foregroundBlur_1894_360"/>
</filter>
<linearGradient id="paint0_linear_1894_360" x1="720" y1="852" x2="720" y2="1531" gradientUnits="userSpaceOnUse">
<stop stop-color="#EDF8FF" stop-opacity="0"/>
<stop offset="1" stop-color="#EDF8FF"/>
</linearGradient>
<clipPath id="clip0_1894_360">
<rect width="1440" height="1555" fill="white"/>
</clipPath>
</defs>
</svg>
