<svg width="22" height="23" viewBox="0 0 22 23" fill="none" xmlns="http://www.w3.org/2000/svg">
<g clip-path="url(#clip0_518_1045)">
<path d="M8.9375 2.5625C8.9375 2.38016 8.86507 2.2053 8.73614 2.07636C8.60721 1.94743 8.43234 1.875 8.25 1.875C8.06766 1.875 7.8928 1.94743 7.76386 2.07636C7.63493 2.2053 7.5625 2.38016 7.5625 2.5625V3.25H4.8125C4.26549 3.25 3.74089 3.4673 3.35409 3.85409C2.9673 4.24089 2.75 4.76549 2.75 5.3125V9.4375C2.75 9.98451 2.9673 10.5091 3.35409 10.8959C3.74089 11.2827 4.26549 11.5 4.8125 11.5H8.371C8.42967 11.3423 8.5085 11.1934 8.6075 11.0531C8.84125 10.7231 9.17125 10.4756 9.55625 10.3368L10.2163 10.125H4.8125C4.63016 10.125 4.4553 10.0526 4.32636 9.92364C4.19743 9.79471 4.125 9.61984 4.125 9.4375V5.3125C4.125 5.13016 4.19743 4.9553 4.32636 4.82636C4.4553 4.69743 4.63016 4.625 4.8125 4.625H11.6875C11.8698 4.625 12.0447 4.69743 12.1736 4.82636C12.3026 4.9553 12.375 5.13016 12.375 5.3125V7.89338L12.5579 7.33375C12.7091 6.92125 12.9566 6.59125 13.2866 6.3575C13.4324 6.253 13.5868 6.17188 13.75 6.11413V5.3125C13.75 4.76549 13.5327 4.24089 13.1459 3.85409C12.7591 3.4673 12.2345 3.25 11.6875 3.25H8.9375V2.5625ZM3.4375 13.5625H8.81788C9.03201 13.7807 9.29501 13.9447 9.58513 14.041L11.0426 14.5223C11.2503 14.5924 11.4427 14.7024 11.6903 14.9224L11.704 14.9375H3.4375C3.25516 14.9375 3.0803 15.0099 2.95136 15.1389C2.82243 15.2678 2.75 15.4427 2.75 15.625V16.1063C2.75 17.4056 3.311 18.2719 4.23775 18.848C5.20575 19.4503 6.60688 19.75 8.25 19.75C9.90413 19.75 11.3053 19.4489 12.2691 18.848C12.6569 18.6074 12.98 18.3145 13.2248 17.9598L13.3004 18.0216C13.4929 18.1591 13.6991 18.2554 13.9191 18.3104C13.7602 18.6524 13.7135 19.036 13.7858 19.4063C13.5445 19.6361 13.28 19.8402 12.9965 20.0154C11.726 20.8088 10.0334 21.125 8.25 21.125C6.47625 21.125 4.78363 20.806 3.51175 20.0154C2.19862 19.2 1.375 17.9006 1.375 16.1063V15.625C1.375 15.078 1.5923 14.5534 1.97909 14.1666C2.36589 13.7798 2.89049 13.5625 3.4375 13.5625ZM7.21875 7.375C7.21875 7.64851 7.1101 7.91081 6.9167 8.1042C6.72331 8.2976 6.46101 8.40625 6.1875 8.40625C5.914 8.40625 5.65169 8.2976 5.4583 8.1042C5.2649 7.91081 5.15625 7.64851 5.15625 7.375C5.15625 7.1015 5.2649 6.83919 5.4583 6.6458C5.65169 6.4524 5.914 6.34375 6.1875 6.34375C6.46101 6.34375 6.72331 6.4524 6.9167 6.6458C7.1101 6.83919 7.21875 7.1015 7.21875 7.375ZM10.3125 8.40625C10.586 8.40625 10.8483 8.2976 11.0417 8.1042C11.2351 7.91081 11.3438 7.64851 11.3438 7.375C11.3438 7.1015 11.2351 6.83919 11.0417 6.6458C10.8483 6.4524 10.586 6.34375 10.3125 6.34375C10.039 6.34375 9.77669 6.4524 9.5833 6.6458C9.3899 6.83919 9.28125 7.1015 9.28125 7.375C9.28125 7.64851 9.3899 7.91081 9.5833 8.1042C9.77669 8.2976 10.039 8.40625 10.3125 8.40625ZM14.9573 7.76275L15.4358 9.23538C15.5841 9.68329 15.8353 10.0903 16.169 10.4238C16.5028 10.7574 16.91 11.0082 17.358 11.1563L18.832 11.6348L18.8609 11.643C18.9745 11.683 19.0728 11.7572 19.1424 11.8555C19.212 11.9538 19.2494 12.0712 19.2494 12.1916C19.2494 12.312 19.212 12.4295 19.1424 12.5278C19.0728 12.626 18.9745 12.7003 18.8609 12.7403L17.3883 13.2188C16.94 13.3666 16.5325 13.6174 16.1985 13.9509C15.8645 14.2845 15.6132 14.6916 15.4646 15.1396L14.9861 16.6109C14.9461 16.7245 14.8719 16.8228 14.7736 16.8924C14.6754 16.962 14.5579 16.9994 14.4375 16.9994C14.3171 16.9994 14.1996 16.962 14.1014 16.8924C14.0031 16.8228 13.9289 16.7245 13.8889 16.6109L13.4104 15.1396C13.2384 14.6187 12.9281 14.1543 12.5125 13.7963C12.212 13.5353 11.8629 13.3363 11.4854 13.2105L10.0114 12.732C9.8978 12.692 9.79942 12.6178 9.72984 12.5195C9.66025 12.4212 9.62288 12.3038 9.62288 12.1834C9.62288 12.063 9.66025 11.9455 9.72984 11.8473C9.79942 11.749 9.8978 11.6747 10.0114 11.6348L11.4854 11.1563C11.9281 11.0044 12.3295 10.7518 12.658 10.4185C12.9865 10.0852 13.2333 9.6802 13.3788 9.23538L13.8573 7.76413C13.8969 7.65007 13.9712 7.55119 14.0696 7.48123C14.168 7.41126 14.2858 7.37366 14.4066 7.37366C14.5273 7.37366 14.6451 7.41126 14.7435 7.48123C14.842 7.55119 14.9162 7.65007 14.9559 7.76413M21.7003 18.6693L20.6484 18.3283C20.3284 18.2219 20.0376 18.0425 19.799 17.8044C19.5603 17.5662 19.3804 17.2757 19.2734 16.956L18.9324 15.9041C18.9039 15.8229 18.8509 15.7525 18.7807 15.7028C18.7105 15.653 18.6266 15.6262 18.5405 15.6262C18.4544 15.6262 18.3705 15.653 18.3003 15.7028C18.2301 15.7525 18.1771 15.8229 18.1486 15.9041L17.8049 16.956C17.7003 17.2733 17.5239 17.5621 17.2895 17.8001C17.055 18.0381 16.7689 18.2188 16.4533 18.3283L15.4014 18.6693C15.3408 18.6908 15.2861 18.7261 15.2415 18.7723C15.1968 18.8185 15.1635 18.8744 15.1441 18.9357C15.1246 18.9969 15.1196 19.0618 15.1294 19.1254C15.1392 19.1889 15.1636 19.2492 15.2006 19.3018C15.2501 19.3705 15.3203 19.4255 15.4014 19.453L16.4533 19.7954C16.7738 19.9023 17.065 20.0825 17.3037 20.3216C17.5424 20.5608 17.722 20.8524 17.8283 21.1731L18.1693 22.2236C18.1977 22.3048 18.2507 22.3752 18.3209 22.425C18.3911 22.4748 18.4751 22.5015 18.5611 22.5015C18.6472 22.5015 18.7311 22.4748 18.8013 22.425C18.8715 22.3752 18.9245 22.3048 18.953 22.2236L19.2954 21.1731C19.402 20.8533 19.5817 20.5626 19.8201 20.3242C20.0585 20.0858 20.3491 19.9062 20.669 19.7995L21.7209 19.4585C21.8021 19.43 21.8725 19.377 21.9222 19.3068C21.972 19.2366 21.9988 19.1527 21.9988 19.0666C21.9988 18.9806 21.972 18.8966 21.9222 18.8264C21.8725 18.7562 21.8021 18.7032 21.7209 18.6748L21.7003 18.6693Z" fill="#0A58EB"/>
</g>
<defs>
<clipPath id="clip0_518_1045">
<rect width="22" height="22" fill="white" transform="translate(0 0.5)"/>
</clipPath>
</defs>
</svg>
