<svg width="19" height="19" viewBox="0 0 19 19" fill="none" xmlns="http://www.w3.org/2000/svg">
<g clip-path="url(#clip0_527_5195)">
<path d="M8.0625 2.1875C8.0625 2.03832 8.00324 1.89524 7.89775 1.78975C7.79226 1.68426 7.64919 1.625 7.5 1.625C7.35082 1.625 7.20774 1.68426 7.10225 1.78975C6.99676 1.89524 6.9375 2.03832 6.9375 2.1875V2.75H4.6875C4.23995 2.75 3.81073 2.92779 3.49426 3.24426C3.17779 3.56073 3 3.98995 3 4.4375V7.8125C3 8.26005 3.17779 8.68928 3.49426 9.00574C3.81073 9.32221 4.23995 9.5 4.6875 9.5H7.599C7.647 9.371 7.7115 9.24913 7.7925 9.13438C7.98375 8.86438 8.25375 8.66188 8.56875 8.54825L9.10875 8.375H4.6875C4.53832 8.375 4.39524 8.31574 4.28975 8.21025C4.18426 8.10476 4.125 7.96169 4.125 7.8125V4.4375C4.125 4.28832 4.18426 4.14524 4.28975 4.03975C4.39524 3.93426 4.53832 3.875 4.6875 3.875H10.3125C10.4617 3.875 10.6048 3.93426 10.7102 4.03975C10.8157 4.14524 10.875 4.28832 10.875 4.4375V6.54913L11.0246 6.09125C11.1484 5.75375 11.3509 5.48375 11.6209 5.2925C11.7401 5.207 11.8665 5.14063 12 5.09338V4.4375C12 3.98995 11.8222 3.56073 11.5057 3.24426C11.1893 2.92779 10.7601 2.75 10.3125 2.75H8.0625V2.1875ZM3.5625 11.1875H7.96463C8.13982 11.366 8.35501 11.5002 8.59238 11.579L9.78488 11.9728C9.95475 12.0301 10.1123 12.1201 10.3148 12.3001L10.326 12.3125H3.5625C3.41332 12.3125 3.27024 12.3718 3.16475 12.4773C3.05926 12.5827 3 12.7258 3 12.875V13.2688C3 14.3319 3.459 15.0406 4.21725 15.512C5.00925 16.0048 6.15563 16.25 7.5 16.25C8.85338 16.25 9.99975 16.0036 10.7884 15.512C11.1056 15.3151 11.37 15.0755 11.5703 14.7853L11.6321 14.8359C11.7896 14.9484 11.9584 15.0271 12.1384 15.0721C12.0083 15.352 11.9701 15.6658 12.0293 15.9688C11.8318 16.1568 11.6154 16.3238 11.3835 16.4671C10.344 17.1163 8.95913 17.375 7.5 17.375C6.04875 17.375 4.66388 17.114 3.62325 16.4671C2.54888 15.8 1.875 14.7369 1.875 13.2688V12.875C1.875 12.4274 2.05279 11.9982 2.36926 11.6818C2.68573 11.3653 3.11495 11.1875 3.5625 11.1875ZM6.65625 6.125C6.65625 6.34878 6.56736 6.56339 6.40912 6.72162C6.25089 6.87986 6.03628 6.96875 5.8125 6.96875C5.58872 6.96875 5.37411 6.87986 5.21588 6.72162C5.05765 6.56339 4.96875 6.34878 4.96875 6.125C4.96875 5.90122 5.05765 5.68661 5.21588 5.52838C5.37411 5.37015 5.58872 5.28125 5.8125 5.28125C6.03628 5.28125 6.25089 5.37015 6.40912 5.52838C6.56736 5.68661 6.65625 5.90122 6.65625 6.125ZM9.1875 6.96875C9.41128 6.96875 9.62589 6.87986 9.78412 6.72162C9.94236 6.56339 10.0313 6.34878 10.0313 6.125C10.0313 5.90122 9.94236 5.68661 9.78412 5.52838C9.62589 5.37015 9.41128 5.28125 9.1875 5.28125C8.96373 5.28125 8.74911 5.37015 8.59088 5.52838C8.43265 5.68661 8.34375 5.90122 8.34375 6.125C8.34375 6.34878 8.43265 6.56339 8.59088 6.72162C8.74911 6.87986 8.96373 6.96875 9.1875 6.96875ZM12.9878 6.44225L13.3793 7.64713C13.5007 8.0136 13.7061 8.3466 13.9792 8.61949C14.2523 8.89238 14.5854 9.0976 14.952 9.21875L16.158 9.61025L16.1816 9.617C16.2746 9.64971 16.355 9.71046 16.412 9.79086C16.4689 9.87127 16.4995 9.96736 16.4995 10.0659C16.4995 10.1644 16.4689 10.2605 16.412 10.3409C16.355 10.4213 16.2746 10.482 16.1816 10.5148L14.9768 10.9063C14.61 11.0273 14.2766 11.2324 14.0033 11.5053C13.73 11.7782 13.5244 12.1113 13.4029 12.4779L13.0114 13.6816C12.9787 13.7746 12.9179 13.855 12.8375 13.912C12.7571 13.9689 12.661 13.9995 12.5625 13.9995C12.464 13.9995 12.3679 13.9689 12.2875 13.912C12.2071 13.855 12.1463 13.7746 12.1136 13.6816L11.7221 12.4779C11.5814 12.0517 11.3275 11.6717 10.9875 11.3788C10.7416 11.1653 10.456 11.0024 10.1471 10.8995L8.94113 10.508C8.8482 10.4753 8.76771 10.4145 8.71078 10.3341C8.65384 10.2537 8.62326 10.1576 8.62326 10.0591C8.62326 9.96061 8.65384 9.86452 8.71078 9.78411C8.76771 9.70371 8.8482 9.64296 8.94113 9.61025L10.1471 9.21875C10.5093 9.09448 10.8377 8.88786 11.1065 8.61515C11.3754 8.34244 11.5772 8.01107 11.6963 7.64713L12.0878 6.44338C12.1202 6.35006 12.1809 6.26916 12.2615 6.21191C12.342 6.15466 12.4384 6.12391 12.5372 6.12391C12.636 6.12391 12.7324 6.15466 12.8129 6.21191C12.8934 6.26916 12.9542 6.35006 12.9866 6.44338M18.5048 15.3658L17.6441 15.0868C17.3823 14.9997 17.1444 14.853 16.9491 14.6581C16.7539 14.4633 16.6067 14.2256 16.5191 13.964L16.2401 13.1034C16.2168 13.0369 16.1735 12.9794 16.116 12.9386C16.0586 12.8979 15.9899 12.876 15.9195 12.876C15.8491 12.876 15.7804 12.8979 15.723 12.9386C15.6655 12.9794 15.6222 13.0369 15.5989 13.1034L15.3176 13.964C15.232 14.2236 15.0877 14.4599 14.8959 14.6546C14.7041 14.8494 14.47 14.9972 14.2118 15.0868L13.3511 15.3658C13.3016 15.3834 13.2568 15.4122 13.2203 15.4501C13.1838 15.4879 13.1565 15.5336 13.1406 15.5837C13.1247 15.6339 13.1206 15.687 13.1286 15.7389C13.1367 15.7909 13.1566 15.8403 13.1869 15.8833C13.2274 15.9395 13.2848 15.9845 13.3511 16.007L14.2118 16.2871C14.474 16.3746 14.7123 16.522 14.9076 16.7177C15.1029 16.9134 15.2498 17.1519 15.3368 17.4144L15.6158 18.2739C15.639 18.3403 15.6824 18.3979 15.7398 18.4386C15.7973 18.4794 15.866 18.5012 15.9364 18.5012C16.0068 18.5012 16.0755 18.4794 16.1329 18.4386C16.1903 18.3979 16.2337 18.3403 16.257 18.2739L16.5371 17.4144C16.6244 17.1527 16.7714 16.9149 16.9665 16.7198C17.1615 16.5248 17.3993 16.3778 17.661 16.2905L18.5216 16.0115C18.5881 15.9882 18.6457 15.9448 18.6864 15.8874C18.7271 15.83 18.749 15.7613 18.749 15.6909C18.749 15.6205 18.7271 15.5518 18.6864 15.4943C18.6457 15.4369 18.5881 15.3935 18.5216 15.3703L18.5048 15.3658Z" fill="white"/>
</g>
<defs>
<clipPath id="clip0_527_5195">
<rect width="18" height="18" fill="white" transform="translate(0.75 0.5)"/>
</clipPath>
</defs>
</svg>
