<svg width="26" height="25" viewBox="0 0 26 25" fill="none" xmlns="http://www.w3.org/2000/svg">
<path d="M15.9801 2.07859L7.46777 18.7534C6.0399 21.0495 4.85915 22.1704 4.44727 22.4439C4.67609 22.8083 5.43579 23.5646 6.644 23.674C7.8522 23.7833 8.88649 22.9906 9.25261 22.5805C11.2297 21.5964 18.0395 8.50254 21.1973 2.07859C21.8564 1.20386 21.4719 0.4386 21.06 0.16517C18.5887 -0.518237 16.4378 1.07628 15.9801 2.07859Z" fill="#FF7474"/>
<path d="M8.61214 2.10152L21.0041 18.9602C23.0827 21.2816 26.0834 21.9368 25.4012 22.6914C25.0681 23.0599 22.2739 23.3906 21.8861 24.5971C21.4864 25.8408 19.8874 23.9062 18.4058 22.8296C15.89 21.1425 5.61409 8.59632 1.01708 2.10152C0.0577049 1.21714 0.61734 0.443437 1.21695 0.166992C4.81461 -0.523954 7.9459 1.08815 8.61214 2.10152Z" fill="#FF7474"/>
</svg>
