<svg width="22" height="23" viewBox="0 0 22 23" fill="none" xmlns="http://www.w3.org/2000/svg">
<g clip-path="url(#clip0_518_1052)">
<path d="M18.3614 7.57609L13.5489 2.76359C13.485 2.69977 13.4092 2.64916 13.3257 2.61466C13.2423 2.58015 13.1528 2.56243 13.0625 2.5625H4.8125C4.44783 2.5625 4.09809 2.70737 3.84023 2.96523C3.58237 3.22309 3.4375 3.57283 3.4375 3.9375V19.0625C3.4375 19.4272 3.58237 19.7769 3.84023 20.0348C4.09809 20.2926 4.44783 20.4375 4.8125 20.4375H17.1875C17.5522 20.4375 17.9019 20.2926 18.1598 20.0348C18.4176 19.7769 18.5625 19.4272 18.5625 19.0625V8.0625C18.5626 7.97219 18.5448 7.88275 18.5103 7.79929C18.4758 7.71583 18.4252 7.63999 18.3614 7.57609ZM13.75 4.90945L16.2155 7.375H13.75V4.90945ZM17.1875 19.0625H4.8125V3.9375H12.375V8.0625C12.375 8.24484 12.4474 8.4197 12.5764 8.54864C12.7053 8.67757 12.8802 8.75 13.0625 8.75H17.1875V19.0625Z" fill="#A1A7B4"/>
<path d="M11.0964 14.5496C11.0964 14.6897 11.0548 14.8267 10.977 14.9432C10.8991 15.0597 10.7885 15.1504 10.6591 15.2041C10.5297 15.2577 10.3872 15.2717 10.2498 15.2444C10.1124 15.217 9.98622 15.1496 9.88715 15.0505C9.78809 14.9514 9.72063 14.8252 9.6933 14.6878C9.66597 14.5504 9.67999 14.408 9.73361 14.2786C9.78722 14.1491 9.87801 14.0385 9.99449 13.9607C10.111 13.8829 10.2479 13.8413 10.388 13.8413C10.5759 13.8413 10.756 13.9159 10.8889 14.0488C11.0217 14.1816 11.0964 14.3618 11.0964 14.5496ZM10.388 12.7788C10.482 12.7788 10.572 12.7415 10.6385 12.6751C10.7049 12.6087 10.7422 12.5186 10.7422 12.4246V7.82048C10.7422 7.72654 10.7049 7.63646 10.6385 7.57004C10.572 7.50362 10.482 7.46631 10.388 7.46631C10.2941 7.46631 10.204 7.50362 10.1376 7.57004C10.0712 7.63646 10.0339 7.72654 10.0339 7.82048V12.4246C10.0339 12.5186 10.0712 12.6087 10.1376 12.6751C10.204 12.7415 10.2941 12.7788 10.388 12.7788Z" fill="#A1A7B4"/>
<path d="M13.6816 14.2959L14.376 12.4082L14.4404 12.2676C14.5151 12.1325 14.6204 12.0159 14.748 11.9268L14.8818 11.8477C15.0204 11.7797 15.1734 11.7441 15.3291 11.7441C15.5368 11.7441 15.7398 11.8079 15.9102 11.9268L16.0293 12.0244C16.1412 12.131 16.2284 12.2619 16.2822 12.4082H16.2812L16.9805 14.2959L18.8691 14.9902H18.8682C19.0643 15.0618 19.2337 15.1925 19.3525 15.3643L19.4307 15.499C19.4974 15.6369 19.5319 15.7888 19.5312 15.9434L19.5205 16.0986C19.5052 16.2011 19.4743 16.3005 19.4287 16.3936L19.3506 16.5273C19.2312 16.6985 19.0614 16.8285 18.8652 16.8994L18.8643 16.8984L16.9805 17.5947L16.2861 19.4834C16.2144 19.678 16.0851 19.8461 15.915 19.9648C15.7447 20.0836 15.5416 20.1474 15.334 20.1475C15.1263 20.1475 14.9233 20.0837 14.7529 19.9648C14.5827 19.8461 14.4526 19.6781 14.3809 19.4834V19.4824L13.6816 17.5947L11.7939 16.9004C11.6478 16.8465 11.5167 16.7602 11.4102 16.6484L11.3125 16.5293C11.1937 16.359 11.1299 16.1559 11.1299 15.9482L11.1416 15.7939C11.1651 15.6413 11.2233 15.495 11.3125 15.3672L11.4102 15.2471C11.5167 15.1354 11.6479 15.0489 11.7939 14.9951L13.6816 14.2959Z" fill="#A1A7B4" stroke="white" stroke-width="0.763955"/>
<path d="M20.5039 19.7588H20.5049C20.5845 19.7878 20.653 19.8415 20.7012 19.9111L20.7334 19.9658C20.7604 20.0219 20.7739 20.0837 20.7734 20.1465L20.7695 20.21C20.7633 20.2513 20.7508 20.2915 20.7324 20.3291L20.7002 20.3828C20.664 20.4347 20.6165 20.4776 20.5615 20.5078L20.5039 20.5342L19.5195 20.8975L19.1572 21.8828C19.1281 21.9619 19.075 22.0299 19.0059 22.0781C18.9367 22.1263 18.8548 22.1523 18.7705 22.1523C18.6863 22.1523 18.6043 22.1263 18.5352 22.0781C18.4834 22.042 18.4405 21.9951 18.4102 21.9404L18.3838 21.8828L18.0186 20.8975L17.0332 20.5352C16.974 20.5133 16.9211 20.4779 16.8779 20.4326L16.8379 20.3838C16.7898 20.3147 16.7637 20.2326 16.7637 20.1484C16.7637 20.0643 16.7898 19.9822 16.8379 19.9131L16.8779 19.8643C16.9211 19.819 16.974 19.7836 17.0332 19.7617L18.0186 19.3965L18.3818 18.4111L18.4072 18.3545C18.4376 18.2996 18.4803 18.252 18.5322 18.2158L18.5869 18.1836C18.643 18.1561 18.7055 18.1416 18.7686 18.1416C18.8527 18.1417 18.9349 18.1677 19.0039 18.2158L19.0527 18.2559C19.0979 18.299 19.1325 18.3521 19.1543 18.4111L19.5195 19.3965L20.5039 19.7588Z" fill="#A1A7B4" stroke="white" stroke-width="0.190989"/>
</g>
<defs>
<clipPath id="clip0_518_1052">
<rect width="22" height="22" fill="white" transform="translate(0 0.5)"/>
</clipPath>
</defs>
</svg>
