<svg width="22" height="23" viewBox="0 0 22 23" fill="none" xmlns="http://www.w3.org/2000/svg">
<path d="M18.3614 6.20109L14.9239 2.76359C14.86 2.69977 14.7842 2.64916 14.7007 2.61466C14.6173 2.58015 14.5278 2.56243 14.4375 2.5625H7.5625C7.19783 2.5625 6.84809 2.70737 6.59023 2.96523C6.33237 3.22309 6.1875 3.57283 6.1875 3.9375V5.3125H4.8125C4.44783 5.3125 4.09809 5.45737 3.84023 5.71523C3.58237 5.97309 3.4375 6.32283 3.4375 6.6875V19.0625C3.4375 19.4272 3.58237 19.7769 3.84023 20.0348C4.09809 20.2926 4.44783 20.4375 4.8125 20.4375H14.4375C14.8022 20.4375 15.1519 20.2926 15.4098 20.0348C15.6676 19.7769 15.8125 19.4272 15.8125 19.0625V17.6875H17.1875C17.5522 17.6875 17.9019 17.5426 18.1598 17.2848C18.4176 17.0269 18.5625 16.6772 18.5625 16.3125V6.6875C18.5626 6.59719 18.5448 6.50775 18.5103 6.42429C18.4758 6.34083 18.4252 6.26499 18.3614 6.20109ZM14.4375 19.0625H4.8125V6.6875H11.403L14.4375 9.72195V16.9862C14.4375 16.9914 14.4375 16.9957 14.4375 17C14.4375 17.0043 14.4375 17.0086 14.4375 17.0138V19.0625ZM17.1875 16.3125H15.8125V9.4375C15.8126 9.34719 15.7948 9.25775 15.7603 9.17429C15.7258 9.09083 15.6752 9.01499 15.6114 8.95109L12.1739 5.51359C12.11 5.44977 12.0342 5.39916 11.9507 5.36466C11.8673 5.33015 11.7778 5.31243 11.6875 5.3125H7.5625V3.9375H14.153L17.1875 6.97195V16.3125ZM12.375 13.5625C12.375 13.7448 12.3026 13.9197 12.1736 14.0486C12.0447 14.1776 11.8698 14.25 11.6875 14.25H7.5625C7.38016 14.25 7.2053 14.1776 7.07636 14.0486C6.94743 13.9197 6.875 13.7448 6.875 13.5625C6.875 13.3802 6.94743 13.2053 7.07636 13.0764C7.2053 12.9474 7.38016 12.875 7.5625 12.875H11.6875C11.8698 12.875 12.0447 12.9474 12.1736 13.0764C12.3026 13.2053 12.375 13.3802 12.375 13.5625ZM12.375 16.3125C12.375 16.4948 12.3026 16.6697 12.1736 16.7986C12.0447 16.9276 11.8698 17 11.6875 17H7.5625C7.38016 17 7.2053 16.9276 7.07636 16.7986C6.94743 16.6697 6.875 16.4948 6.875 16.3125C6.875 16.1302 6.94743 15.9553 7.07636 15.8264C7.2053 15.6974 7.38016 15.625 7.5625 15.625H11.6875C11.8698 15.625 12.0447 15.6974 12.1736 15.8264C12.3026 15.9553 12.375 16.1302 12.375 16.3125Z" fill="#A1A7B4"/>
<path d="M13.9971 7C14.2689 7.00004 14.5339 7.08376 14.7568 7.23926C14.9798 7.39479 15.1502 7.61498 15.2441 7.87012H15.2432L16.1582 10.3398L18.6279 11.249H18.6289C18.8859 11.3427 19.107 11.5143 19.2627 11.7393C19.4168 11.962 19.4993 12.2264 19.498 12.4971L19.4941 12.5986C19.4797 12.8019 19.4187 12.9991 19.3154 13.1748L19.2607 13.2607C19.1051 13.4839 18.8836 13.6531 18.6279 13.7461L18.6289 13.7471L16.1592 14.6592L15.25 17.1299C15.1561 17.3849 14.9865 17.6052 14.7637 17.7607C14.5407 17.9163 14.2748 18 14.0029 18C13.7311 18 13.4661 17.9162 13.2432 17.7607C13.0202 17.6052 12.8498 17.385 12.7559 17.1299V17.1289L11.8408 14.6592L9.37012 13.75C9.14686 13.6678 8.94964 13.5279 8.7998 13.3447L8.73926 13.2637C8.58372 13.0407 8.5 12.7748 8.5 12.5029L8.50391 12.4014C8.52202 12.1655 8.6032 11.9382 8.73926 11.7432L8.7998 11.6621C8.92819 11.505 9.09095 11.3794 9.27539 11.2949L9.37012 11.2559L11.8398 10.3408L12.75 7.87012L12.7891 7.77539C12.8875 7.56056 13.0416 7.37521 13.2363 7.23926C13.4593 7.08372 13.7252 7 13.9971 7Z" stroke="#A1A7B4"/>
<path d="M18.498 15.375C18.6082 15.375 18.7162 15.4087 18.8066 15.4717C18.897 15.5347 18.9667 15.6241 19.0049 15.7275L19.4814 17.0176L20.7715 17.4922L20.8467 17.5264C20.9188 17.5661 20.981 17.6222 21.0283 17.6904C21.091 17.781 21.1247 17.8889 21.124 17.999L21.1182 18.082C21.11 18.1363 21.0935 18.189 21.0693 18.2383L21.0273 18.3086C20.964 18.3994 20.8746 18.4692 20.7705 18.5068L20.7695 18.5059L19.4814 18.9814L19.0078 20.2715C18.9697 20.375 18.901 20.4652 18.8105 20.5283C18.7201 20.5914 18.6122 20.6249 18.502 20.625C18.3918 20.625 18.2838 20.5913 18.1934 20.5283C18.103 20.4653 18.0333 20.3759 17.9951 20.2725L17.5176 18.9814L16.2285 18.5078C16.151 18.4793 16.081 18.4333 16.0244 18.374L15.9717 18.3105C15.9086 18.2201 15.8751 18.1122 15.875 18.002C15.875 17.8918 15.9087 17.7838 15.9717 17.6934L16.0244 17.6289C16.0809 17.5698 16.1502 17.5237 16.2275 17.4951L17.5176 17.0176L17.9922 15.7285L18.0264 15.6533C18.0661 15.5815 18.1216 15.519 18.1895 15.4717C18.2799 15.4086 18.3878 15.3751 18.498 15.375Z" fill="#A1A7B4" stroke="#A1A7B4" stroke-width="0.25"/>
</svg>
