<svg width="22" height="23" viewBox="0 0 22 23" fill="none" xmlns="http://www.w3.org/2000/svg">
<g clip-path="url(#clip0_518_1052)">
<path d="M18.3614 7.57609L13.5489 2.76359C13.485 2.69977 13.4092 2.64916 13.3257 2.61466C13.2423 2.58015 13.1528 2.56243 13.0625 2.5625H4.8125C4.44783 2.5625 4.09809 2.70737 3.84023 2.96523C3.58237 3.22309 3.4375 3.57283 3.4375 3.9375V19.0625C3.4375 19.4272 3.58237 19.7769 3.84023 20.0348C4.09809 20.2926 4.44783 20.4375 4.8125 20.4375H17.1875C17.5522 20.4375 17.9019 20.2926 18.1598 20.0348C18.4176 19.7769 18.5625 19.4272 18.5625 19.0625V8.0625C18.5626 7.97219 18.5448 7.88275 18.5103 7.79929C18.4758 7.71583 18.4252 7.63999 18.3614 7.57609ZM13.75 4.90945L16.2155 7.375H13.75V4.90945ZM17.1875 19.0625H4.8125V3.9375H12.375V8.0625C12.375 8.24484 12.4474 8.4197 12.5764 8.54864C12.7053 8.67757 12.8802 8.75 13.0625 8.75H17.1875V19.0625Z" fill="#0A58EB"/>
<path d="M11.0954 14.5496C11.0954 14.6897 11.0538 14.8267 10.976 14.9432C10.8982 15.0597 10.7875 15.1504 10.6581 15.2041C10.5287 15.2577 10.3863 15.2717 10.2489 15.2444C10.1115 15.217 9.98524 15.1496 9.88618 15.0505C9.78712 14.9514 9.71965 14.8252 9.69232 14.6878C9.66499 14.5504 9.67902 14.408 9.73263 14.2786C9.78624 14.1491 9.87703 14.0385 9.99352 13.9607C10.11 13.8829 10.2469 13.8413 10.387 13.8413C10.5749 13.8413 10.7551 13.9159 10.8879 14.0488C11.0207 14.1816 11.0954 14.3618 11.0954 14.5496ZM10.387 12.7788C10.481 12.7788 10.5711 12.7415 10.6375 12.6751C10.7039 12.6087 10.7412 12.5186 10.7412 12.4246V7.82048C10.7412 7.72654 10.7039 7.63646 10.6375 7.57004C10.5711 7.50362 10.481 7.46631 10.387 7.46631C10.2931 7.46631 10.203 7.50362 10.1366 7.57004C10.0702 7.63646 10.0329 7.72654 10.0329 7.82048V12.4246C10.0329 12.5186 10.0702 12.6087 10.1366 12.6751C10.203 12.7415 10.2931 12.7788 10.387 12.7788Z" fill="#0A58EB"/>
<path d="M13.6821 14.2957L14.3765 12.408L14.4409 12.2673C14.5156 12.1323 14.6209 12.0156 14.7485 11.9265L14.8823 11.8474C15.0209 11.7794 15.1739 11.7439 15.3296 11.7439C15.5373 11.7439 15.7403 11.8077 15.9106 11.9265L16.0298 12.0242C16.1416 12.1308 16.2289 12.2617 16.2827 12.408H16.2817L16.981 14.2957L18.8696 14.99H18.8687C19.0648 15.0616 19.2342 15.1923 19.353 15.364L19.4312 15.4988C19.4979 15.6367 19.5324 15.7886 19.5317 15.9431L19.521 16.0984C19.5057 16.2008 19.4747 16.3003 19.4292 16.3933L19.3511 16.5271C19.2317 16.6982 19.0619 16.8283 18.8657 16.8992L18.8647 16.8982L16.981 17.5945L16.2866 19.4832C16.2149 19.6777 16.0856 19.8459 15.9155 19.9646C15.7452 20.0834 15.5421 20.1472 15.3345 20.1472C15.1268 20.1472 14.9238 20.0834 14.7534 19.9646C14.5832 19.8458 14.4531 19.6779 14.3813 19.4832V19.4822L13.6821 17.5945L11.7944 16.9001C11.6483 16.8463 11.5172 16.76 11.4106 16.6482L11.313 16.5291C11.1942 16.3587 11.1304 16.1557 11.1304 15.948L11.1421 15.7937C11.1656 15.641 11.2238 15.4948 11.313 15.3669L11.4106 15.2468C11.5172 15.1352 11.6484 15.0487 11.7944 14.9949L13.6821 14.2957Z" fill="#0A58EB" stroke="white" stroke-width="0.763955"/>
<path d="M20.5044 19.7585H20.5054C20.5849 19.7876 20.6535 19.8412 20.7017 19.9109L20.7339 19.9656C20.7609 20.0216 20.7743 20.0835 20.7739 20.1462L20.77 20.2097C20.7638 20.2511 20.7513 20.2913 20.7329 20.3289L20.7007 20.3826C20.6645 20.4345 20.617 20.4774 20.562 20.5076L20.5044 20.5339L19.52 20.8972L19.1577 21.8826C19.1286 21.9617 19.0755 22.0296 19.0063 22.0779C18.9372 22.1261 18.8553 22.1521 18.771 22.1521C18.6867 22.1521 18.6048 22.1261 18.5356 22.0779C18.4839 22.0418 18.441 21.9948 18.4106 21.9402L18.3843 21.8826L18.019 20.8972L17.0337 20.5349C16.9745 20.5131 16.9216 20.4777 16.8784 20.4324L16.8384 20.3835C16.7903 20.3145 16.7642 20.2324 16.7642 20.1482C16.7642 20.064 16.7903 19.9819 16.8384 19.9128L16.8784 19.864C16.9216 19.8187 16.9745 19.7833 17.0337 19.7615L18.019 19.3962L18.3823 18.4109L18.4077 18.3542C18.4381 18.2993 18.4808 18.2518 18.5327 18.2156L18.5874 18.1833C18.6435 18.1559 18.706 18.1414 18.769 18.1414C18.8532 18.1415 18.9354 18.1674 19.0044 18.2156L19.0532 18.2556C19.0983 18.2987 19.133 18.3518 19.1548 18.4109L19.52 19.3962L20.5044 19.7585Z" fill="#0A58EB" stroke="white" stroke-width="0.190989"/>
</g>
<defs>
<clipPath id="clip0_518_1052">
<rect width="22" height="22" fill="white" transform="translate(0 0.5)"/>
</clipPath>
</defs>
</svg>
