<svg width="22" height="22" viewBox="0 0 22 22" fill="none" xmlns="http://www.w3.org/2000/svg">
<path d="M2.3375 10.8624C2.40973 10.9166 2.49192 10.956 2.57938 10.9784C2.66683 11.0008 2.75785 11.0058 2.84723 10.993C2.9366 10.9802 3.02259 10.95 3.10028 10.904C3.17796 10.858 3.24583 10.7971 3.3 10.7249C3.71625 10.1699 4.256 9.71944 4.87651 9.40918C5.49702 9.09893 6.18125 8.9374 6.875 8.9374C7.56875 8.9374 8.25297 9.09893 8.87349 9.40918C9.494 9.71944 10.0337 10.1699 10.45 10.7249C10.5595 10.8706 10.7225 10.9669 10.903 10.9925C11.0835 11.0182 11.2667 10.971 11.4125 10.8615C11.4645 10.8229 11.5105 10.7769 11.5491 10.7249C11.9654 10.1699 12.5051 9.71944 13.1257 9.40918C13.7462 9.09893 14.4304 8.9374 15.1241 8.9374C15.8179 8.9374 16.5021 9.09893 17.1226 9.40918C17.7431 9.71944 18.2829 10.1699 18.6991 10.7249C18.8087 10.8708 18.9716 10.9672 19.1522 10.9929C19.3328 11.0186 19.5162 10.9715 19.6621 10.862C19.8079 10.7525 19.9043 10.5895 19.93 10.4089C19.9557 10.2283 19.9087 10.0449 19.7991 9.89904C19.1906 9.08321 18.3791 8.44088 17.4453 8.03592C17.9572 7.56854 18.3159 6.95731 18.4742 6.28245C18.6325 5.60759 18.5831 4.90062 18.3325 4.25434C18.0818 3.60806 17.6417 3.05266 17.0697 2.66102C16.4978 2.26938 15.8208 2.05981 15.1276 2.05981C14.4344 2.05981 13.7574 2.26938 13.1855 2.66102C12.6135 3.05266 12.1733 3.60806 11.9227 4.25434C11.672 4.90062 11.6226 5.60759 11.7809 6.28245C11.9393 6.95731 12.2979 7.56854 12.8098 8.03592C12.1356 8.32746 11.5231 8.74483 11.0052 9.26568C10.4872 8.74483 9.8747 8.32746 9.20047 8.03592C9.71239 7.56854 10.071 6.95731 10.2294 6.28245C10.3877 5.60759 10.3383 4.90062 10.0876 4.25434C9.83699 3.60806 9.39681 3.05266 8.82486 2.66102C8.25291 2.26938 7.57592 2.05981 6.88273 2.05981C6.18955 2.05981 5.51256 2.26938 4.94061 2.66102C4.36866 3.05266 3.92848 3.60806 3.67783 4.25434C3.42718 4.90062 3.37777 5.60759 3.5361 6.28245C3.69442 6.95731 4.05308 7.56854 4.565 8.03592C3.62712 8.43956 2.81162 9.0823 2.2 9.8999C2.14583 9.97213 2.10642 10.0543 2.08401 10.1418C2.0616 10.2292 2.05664 10.3203 2.06941 10.4096C2.08218 10.499 2.11242 10.585 2.15842 10.6627C2.20442 10.7404 2.26527 10.8082 2.3375 10.8624ZM15.125 3.4374C15.5329 3.4374 15.9317 3.55837 16.2709 3.785C16.61 4.01163 16.8744 4.33375 17.0305 4.71062C17.1866 5.08749 17.2275 5.50219 17.1479 5.90228C17.0683 6.30236 16.8719 6.66987 16.5834 6.95831C16.295 7.24676 15.9275 7.44319 15.5274 7.52277C15.1273 7.60236 14.7126 7.56151 14.3357 7.40541C13.9588 7.2493 13.6367 6.98494 13.4101 6.64577C13.1835 6.30659 13.0625 5.90783 13.0625 5.4999C13.0625 4.95289 13.2798 4.42829 13.6666 4.0415C14.0534 3.6547 14.578 3.4374 15.125 3.4374ZM6.875 3.4374C7.28292 3.4374 7.68169 3.55837 8.02086 3.785C8.36004 4.01163 8.6244 4.33375 8.7805 4.71062C8.93661 5.08749 8.97745 5.50219 8.89787 5.90228C8.81829 6.30236 8.62185 6.66987 8.33341 6.95831C8.04496 7.24676 7.67746 7.44319 7.27737 7.52277C6.87729 7.60236 6.46259 7.56151 6.08572 7.40541C5.70884 7.2493 5.38672 6.98494 5.16009 6.64577C4.93346 6.30659 4.8125 5.90783 4.8125 5.4999C4.8125 4.95289 5.0298 4.42829 5.41659 4.0415C5.80339 3.6547 6.32799 3.4374 6.875 3.4374ZM17.4453 16.9734C17.9572 16.506 18.3159 15.8948 18.4742 15.2199C18.6325 14.5451 18.5831 13.8381 18.3325 13.1918C18.0818 12.5456 17.6417 11.9902 17.0697 11.5985C16.4978 11.2069 15.8208 10.9973 15.1276 10.9973C14.4344 10.9973 13.7574 11.2069 13.1855 11.5985C12.6135 11.9902 12.1733 12.5456 11.9227 13.1918C11.672 13.8381 11.6226 14.5451 11.7809 15.2199C11.9393 15.8948 12.2979 16.506 12.8098 16.9734C12.1356 17.265 11.5231 17.6823 11.0052 18.2032C10.4872 17.6823 9.8747 17.265 9.20047 16.9734C9.71239 16.506 10.071 15.8948 10.2294 15.2199C10.3877 14.5451 10.3383 13.8381 10.0876 13.1918C9.83699 12.5456 9.39681 11.9902 8.82486 11.5985C8.25291 11.2069 7.57592 10.9973 6.88273 10.9973C6.18955 10.9973 5.51256 11.2069 4.94061 11.5985C4.36866 11.9902 3.92848 12.5456 3.67783 13.1918C3.42718 13.8381 3.37777 14.5451 3.5361 15.2199C3.69442 15.8948 4.05308 16.506 4.565 16.9734C3.62712 17.3771 2.81162 18.0198 2.2 18.8374C2.14583 18.9096 2.10642 18.9918 2.08401 19.0793C2.0616 19.1667 2.05664 19.2578 2.06941 19.3471C2.08218 19.4365 2.11242 19.5225 2.15842 19.6002C2.20442 19.6779 2.26527 19.7457 2.3375 19.7999C2.40973 19.8541 2.49192 19.8935 2.57938 19.9159C2.66683 19.9383 2.75785 19.9433 2.84723 19.9305C2.9366 19.9177 3.02259 19.8875 3.10028 19.8415C3.17796 19.7955 3.24583 19.7346 3.3 19.6624C3.71625 19.1074 4.256 18.6569 4.87651 18.3467C5.49702 18.0364 6.18125 17.8749 6.875 17.8749C7.56875 17.8749 8.25297 18.0364 8.87349 18.3467C9.494 18.6569 10.0337 19.1074 10.45 19.6624C10.5595 19.8081 10.7225 19.9044 10.903 19.93C11.0835 19.9557 11.2667 19.9085 11.4125 19.799C11.4645 19.7604 11.5105 19.7144 11.5491 19.6624C11.9654 19.1074 12.5051 18.6569 13.1257 18.3467C13.7462 18.0364 14.4304 17.8749 15.1241 17.8749C15.8179 17.8749 16.5021 18.0364 17.1226 18.3467C17.7431 18.6569 18.2829 19.1074 18.6991 19.6624C18.8087 19.8083 18.9716 19.9047 19.1522 19.9304C19.3328 19.9561 19.5162 19.909 19.6621 19.7995C19.8079 19.69 19.9043 19.527 19.93 19.3464C19.9557 19.1658 19.9087 18.9824 19.7991 18.8365C19.1906 18.0207 18.3791 17.3784 17.4453 16.9734ZM6.875 12.3749C7.28292 12.3749 7.68169 12.4959 8.02086 12.7225C8.36004 12.9491 8.6244 13.2712 8.7805 13.6481C8.93661 14.025 8.97745 14.4397 8.89787 14.8398C8.81829 15.2399 8.62185 15.6074 8.33341 15.8958C8.04496 16.1843 7.67746 16.3807 7.27737 16.4603C6.87729 16.5399 6.46259 16.499 6.08572 16.3429C5.70884 16.1868 5.38672 15.9224 5.16009 15.5833C4.93346 15.2441 4.8125 14.8453 4.8125 14.4374C4.8125 13.8904 5.0298 13.3658 5.41659 12.979C5.80339 12.5922 6.32799 12.3749 6.875 12.3749ZM15.125 12.3749C15.5329 12.3749 15.9317 12.4959 16.2709 12.7225C16.61 12.9491 16.8744 13.2712 17.0305 13.6481C17.1866 14.025 17.2275 14.4397 17.1479 14.8398C17.0683 15.2399 16.8719 15.6074 16.5834 15.8958C16.295 16.1843 15.9275 16.3807 15.5274 16.4603C15.1273 16.5399 14.7126 16.499 14.3357 16.3429C13.9588 16.1868 13.6367 15.9224 13.4101 15.5833C13.1835 15.2441 13.0625 14.8453 13.0625 14.4374C13.0625 13.8904 13.2798 13.3658 13.6666 12.979C14.0534 12.5922 14.578 12.3749 15.125 12.3749Z" fill="#A1A7B4"/>
</svg>
