<svg width="517" height="153" viewBox="0 0 517 153" fill="none" xmlns="http://www.w3.org/2000/svg">
<circle cx="20" cy="20" r="18" fill="white"/>
<path d="M20 21.5625C22.2437 21.5625 24.0625 19.7437 24.0625 17.5C24.0625 15.2563 22.2437 13.4375 20 13.4375C17.7563 13.4375 15.9375 15.2563 15.9375 17.5C15.9375 19.7437 17.7563 21.5625 20 21.5625Z" stroke="#0A58EB" stroke-width="1.5" stroke-linecap="round" stroke-linejoin="round"/>
<path d="M13.4375 27.8125C13.4375 24.6875 15.9375 21.5625 20 21.5625C24.0625 21.5625 26.5625 24.6875 26.5625 27.8125" stroke="#0A58EB" stroke-width="1.5" stroke-linecap="round" stroke-linejoin="round"/>
<rect x="48" y="2" width="468.757" height="133.931" rx="17" fill="url(#paint0_linear_2128_262)"/>
<rect x="58.0449" y="15.3931" width="446.435" height="107.145" rx="8" fill="white"/>
<rect x="75.9023" y="32.1343" width="411.837" height="15.6252" rx="6" fill="url(#paint1_linear_2128_262)"/>
<rect x="75.9023" y="61.1528" width="166.297" height="15.6252" rx="6" fill="url(#paint2_linear_2128_262)"/>
<rect x="75.9023" y="90.1709" width="268.977" height="15.6252" rx="6" fill="url(#paint3_linear_2128_262)"/>
<g filter="url(#filter0_f_2128_262)">
<path d="M205.005 135.546C213.077 133.383 215.686 129.044 213.49 120.849C215.686 129.044 220.09 131.504 228.187 129.335C220.09 131.504 217.532 135.934 219.702 144.031C217.532 135.934 213.077 133.383 205.005 135.546Z" fill="#0A58EB" stroke="#0A58EB" stroke-width="1.5" stroke-linejoin="round"/>
</g>
<g filter="url(#filter1_f_2128_262)">
<path d="M390.306 29.3491C395.386 24.0888 395.387 19.6589 390.047 14.5021C395.387 19.6589 399.799 19.5192 404.894 14.243C399.799 19.5192 399.877 23.9947 405.153 29.0899C399.877 23.9947 395.386 24.0888 390.306 29.3491Z" fill="#0A58EB" stroke="#0A58EB" stroke-width="1.5" stroke-linejoin="round"/>
</g>
<defs>
<filter id="filter0_f_2128_262" x="196" y="111.844" width="41.1919" height="41.1919" filterUnits="userSpaceOnUse" color-interpolation-filters="sRGB">
<feFlood flood-opacity="0" result="BackgroundImageFix"/>
<feBlend mode="normal" in="SourceGraphic" in2="BackgroundImageFix" result="shape"/>
<feGaussianBlur stdDeviation="0.5" result="effect1_foregroundBlur_2128_262"/>
</filter>
<filter id="filter1_f_2128_262" x="376.804" y="1" width="41.5918" height="41.592" filterUnits="userSpaceOnUse" color-interpolation-filters="sRGB">
<feFlood flood-opacity="0" result="BackgroundImageFix"/>
<feBlend mode="normal" in="SourceGraphic" in2="BackgroundImageFix" result="shape"/>
<feGaussianBlur stdDeviation="0.5" result="effect1_foregroundBlur_2128_262"/>
</filter>
<linearGradient id="paint0_linear_2128_262" x1="516.757" y1="2.00001" x2="0.566232" y2="135.931" gradientUnits="userSpaceOnUse">
<stop stop-color="#F0F0F0" stop-opacity="0.8"/>
<stop offset="1" stop-color="#8A8A8A" stop-opacity="0"/>
</linearGradient>
<linearGradient id="paint1_linear_2128_262" x1="281.821" y1="32.1343" x2="281.821" y2="47.7595" gradientUnits="userSpaceOnUse">
<stop stop-color="#F9F9F9"/>
<stop offset="0.956667" stop-color="#F0F0F0"/>
</linearGradient>
<linearGradient id="paint2_linear_2128_262" x1="159.051" y1="61.1528" x2="159.051" y2="76.7781" gradientUnits="userSpaceOnUse">
<stop stop-color="#F9F9F9"/>
<stop offset="0.956667" stop-color="#F0F0F0"/>
</linearGradient>
<linearGradient id="paint3_linear_2128_262" x1="210.391" y1="90.1709" x2="210.391" y2="105.796" gradientUnits="userSpaceOnUse">
<stop stop-color="#F9F9F9"/>
<stop offset="0.956667" stop-color="#F0F0F0"/>
</linearGradient>
</defs>
</svg>
