<svg width="280" height="131" viewBox="0 0 280 131" fill="none" xmlns="http://www.w3.org/2000/svg">
<rect x="2" y="2.95166" width="276" height="136.845" rx="15" fill="url(#paint0_linear_1639_12360)" stroke="url(#paint1_linear_1639_12360)" stroke-width="4"/>
<rect x="31.6904" y="44.3792" width="234.742" height="11.7371" rx="5.86856" fill="url(#paint2_linear_1639_12360)"/>
<rect x="31.6904" y="65.5056" width="234.742" height="11.7371" rx="5.86856" fill="url(#paint3_linear_1639_12360)"/>
<rect x="31.6904" y="86.6326" width="234.742" height="11.7371" rx="5.86856" fill="url(#paint4_linear_1639_12360)"/>
<rect x="31.6904" y="107.76" width="234.742" height="11.7371" rx="5.86856" fill="url(#paint5_linear_1639_12360)"/>
<rect x="31.6904" y="23.2522" width="234.742" height="11.7371" rx="5.86856" fill="url(#paint6_linear_1639_12360)"/>
<path d="M17.4078 25.8059V33.0786H16.5271V26.7292H16.4845L14.7089 27.9082V27.0133L16.5271 25.8059H17.4078ZM19.6947 33.1354C19.5195 33.1354 19.3692 33.0727 19.2437 32.9472C19.1183 32.8217 19.0555 32.6714 19.0555 32.4962C19.0555 32.321 19.1183 32.1707 19.2437 32.0452C19.3692 31.9198 19.5195 31.857 19.6947 31.857C19.8699 31.857 20.0203 31.9198 20.1457 32.0452C20.2712 32.1707 20.3339 32.321 20.3339 32.4962C20.3339 32.6122 20.3043 32.7188 20.2452 32.8158C20.1883 32.9129 20.1114 32.991 20.0143 33.0502C19.9196 33.107 19.8131 33.1354 19.6947 33.1354Z" fill="#73726D"/>
<path d="M13.933 54.2053V53.5661L16.3336 50.9383C16.6153 50.6305 16.8473 50.363 17.0296 50.1357C17.2119 49.9061 17.3468 49.6906 17.4344 49.4894C17.5244 49.2858 17.5694 49.0727 17.5694 48.8502C17.5694 48.5945 17.5078 48.3732 17.3847 48.1861C17.264 47.9991 17.0983 47.8547 16.8876 47.7529C16.6769 47.6511 16.4401 47.6002 16.1773 47.6002C15.898 47.6002 15.6541 47.6582 15.4458 47.7742C15.2398 47.8879 15.08 48.0477 14.9664 48.2536C14.8551 48.4596 14.7995 48.7011 14.7995 48.978H13.9614C13.9614 48.5519 14.0597 48.1779 14.2562 47.8559C14.4527 47.5339 14.7202 47.283 15.0587 47.103C15.3996 46.9231 15.782 46.8332 16.2057 46.8332C16.6319 46.8332 17.0095 46.9231 17.3386 47.103C17.6676 47.283 17.9257 47.5256 18.1127 47.831C18.2997 48.1364 18.3932 48.4762 18.3932 48.8502C18.3932 49.1177 18.3447 49.3793 18.2476 49.635C18.153 49.8883 17.9872 50.1712 17.7505 50.4837C17.5161 50.7939 17.1906 51.1727 16.7739 51.6201L15.1404 53.3673V53.4241H18.5211V54.2053H13.933ZM20.6127 54.2621C20.4375 54.2621 20.2872 54.1994 20.1617 54.0739C20.0362 53.9485 19.9735 53.7981 19.9735 53.6229C19.9735 53.4477 20.0362 53.2974 20.1617 53.1719C20.2872 53.0465 20.4375 52.9837 20.6127 52.9837C20.7879 52.9837 20.9382 53.0465 21.0637 53.1719C21.1892 53.2974 21.2519 53.4477 21.2519 53.6229C21.2519 53.7389 21.2223 53.8455 21.1631 53.9425C21.1063 54.0396 21.0294 54.1177 20.9323 54.1769C20.8376 54.2337 20.7311 54.2621 20.6127 54.2621Z" fill="#73726D"/>
<path d="M16.3465 75.4317C15.8777 75.4317 15.4599 75.3512 15.0929 75.1902C14.7283 75.0292 14.4383 74.8055 14.2229 74.5191C14.0098 74.2302 13.8938 73.8952 13.8749 73.5141H14.7698C14.7887 73.7485 14.8692 73.9509 15.0112 74.1213C15.1533 74.2894 15.3391 74.4196 15.5688 74.512C15.7984 74.6043 16.0529 74.6505 16.3323 74.6505C16.6448 74.6505 16.9217 74.596 17.1632 74.4871C17.4047 74.3782 17.5941 74.2267 17.7314 74.0326C17.8687 73.8384 17.9374 73.6135 17.9374 73.3578C17.9374 73.0903 17.8711 72.8548 17.7385 72.6512C17.6059 72.4452 17.4118 72.2842 17.1561 72.1682C16.9004 72.0522 16.5879 71.9942 16.2186 71.9942H15.6362V71.213H16.2186C16.5074 71.213 16.7608 71.1609 16.9786 71.0567C17.1987 70.9525 17.3704 70.8058 17.4935 70.6164C17.6189 70.427 17.6817 70.2044 17.6817 69.9488C17.6817 69.7025 17.6272 69.4883 17.5183 69.306C17.4094 69.1237 17.2555 68.9817 17.0567 68.8799C16.8602 68.7781 16.6282 68.7272 16.3607 68.7272C16.1097 68.7272 15.873 68.7733 15.6504 68.8657C15.4303 68.9556 15.2503 69.087 15.1107 69.2598C14.971 69.4303 14.8952 69.6363 14.8834 69.8777H14.0311C14.0453 69.4966 14.1601 69.1628 14.3756 68.8763C14.591 68.5875 14.8727 68.3626 15.2207 68.2016C15.5711 68.0406 15.9558 67.9601 16.3749 67.9601C16.8247 67.9601 17.2106 68.0513 17.5325 68.2336C17.8545 68.4135 18.1019 68.6514 18.2747 68.9473C18.4475 69.2433 18.534 69.5629 18.534 69.9061C18.534 70.3157 18.4262 70.6649 18.2108 70.9537C17.9977 71.2425 17.7077 71.4426 17.3408 71.5539V71.6107C17.8001 71.6864 18.1587 71.8818 18.4168 72.1966C18.6748 72.5091 18.8038 72.8962 18.8038 73.3578C18.8038 73.7532 18.6961 74.1083 18.4807 74.4232C18.2676 74.7357 17.9764 74.9819 17.6071 75.1618C17.2378 75.3417 16.8176 75.4317 16.3465 75.4317ZM20.6566 75.3891C20.4815 75.3891 20.3311 75.3264 20.2057 75.2009C20.0802 75.0754 20.0174 74.9251 20.0174 74.7499C20.0174 74.5747 20.0802 74.4244 20.2057 74.2989C20.3311 74.1734 20.4815 74.1107 20.6566 74.1107C20.8318 74.1107 20.9822 74.1734 21.1076 74.2989C21.2331 74.4244 21.2959 74.5747 21.2959 74.7499C21.2959 74.8659 21.2663 74.9724 21.2071 75.0695C21.1503 75.1666 21.0733 75.2447 20.9763 75.3039C20.8816 75.3607 20.775 75.3891 20.6566 75.3891Z" fill="#73726D"/>
<path d="M13.7528 94.9675V94.2431L16.9488 89.1863H17.4744V90.3084H17.1193L14.7045 94.1294V94.1863H19.0085V94.9675H13.7528ZM17.1761 96.459V94.7473V94.41V89.1863H18.0142V96.459H17.1761ZM20.6225 96.5158C20.4473 96.5158 20.2969 96.4531 20.1715 96.3276C20.046 96.2021 19.9833 96.0518 19.9833 95.8766C19.9833 95.7014 20.046 95.5511 20.1715 95.4256C20.2969 95.3001 20.4473 95.2374 20.6225 95.2374C20.7977 95.2374 20.948 95.3001 21.0735 95.4256C21.1989 95.5511 21.2617 95.7014 21.2617 95.8766C21.2617 95.9926 21.2321 96.0991 21.1729 96.1962C21.1161 96.2933 21.0391 96.3714 20.9421 96.4306C20.8474 96.4874 20.7408 96.5158 20.6225 96.5158Z" fill="#73726D"/>
<path d="M16.4572 115.512C16.0405 115.512 15.6653 115.429 15.3315 115.263C14.9977 115.097 14.7301 114.87 14.5289 114.581C14.3277 114.292 14.2176 113.963 14.1987 113.594H15.0509C15.0841 113.923 15.2332 114.195 15.4984 114.411C15.7659 114.624 16.0855 114.73 16.4572 114.73C16.7555 114.73 17.0206 114.66 17.2526 114.521C17.487 114.381 17.6705 114.189 17.8031 113.945C17.938 113.699 18.0055 113.421 18.0055 113.111C18.0055 112.794 17.9356 112.511 17.796 112.262C17.6586 112.011 17.4692 111.814 17.2278 111.669C16.9863 111.525 16.7105 111.451 16.4004 111.449C16.1778 111.447 15.9494 111.481 15.715 111.552C15.4806 111.621 15.2877 111.709 15.1362 111.818L14.3123 111.719L14.7526 108.139H18.531V108.921H15.4913L15.2356 111.066H15.2782C15.4273 110.947 15.6144 110.849 15.8393 110.771C16.0642 110.693 16.2986 110.654 16.5424 110.654C16.9875 110.654 17.384 110.76 17.732 110.973C18.0824 111.184 18.357 111.473 18.5559 111.84C18.7571 112.207 18.8577 112.626 18.8577 113.097C18.8577 113.561 18.7536 113.975 18.5452 114.34C18.3393 114.702 18.0552 114.988 17.693 115.199C17.3308 115.407 16.9188 115.512 16.4572 115.512ZM20.62 115.469C20.4448 115.469 20.2945 115.406 20.169 115.281C20.0435 115.155 19.9808 115.005 19.9808 114.83C19.9808 114.655 20.0435 114.504 20.169 114.379C20.2945 114.253 20.4448 114.191 20.62 114.191C20.7952 114.191 20.9455 114.253 21.071 114.379C21.1965 114.504 21.2592 114.655 21.2592 114.83C21.2592 114.946 21.2296 115.052 21.1704 115.149C21.1136 115.246 21.0367 115.325 20.9396 115.384C20.8449 115.441 20.7384 115.469 20.62 115.469Z" fill="#73726D"/>
<defs>
<linearGradient id="paint0_linear_1639_12360" x1="280" y1="0.951669" x2="-42.0946" y2="48.4196" gradientUnits="userSpaceOnUse">
<stop stop-color="#F0F0F0" stop-opacity="0.8"/>
<stop offset="1" stop-color="#8A8A8A" stop-opacity="0"/>
</linearGradient>
<linearGradient id="paint1_linear_1639_12360" x1="140" y1="0.95166" x2="140" y2="141.797" gradientUnits="userSpaceOnUse">
<stop stop-color="#F9F9F9"/>
<stop offset="0.956667" stop-color="#F0F0F0"/>
</linearGradient>
<linearGradient id="paint2_linear_1639_12360" x1="149.062" y1="44.3792" x2="149.062" y2="56.1163" gradientUnits="userSpaceOnUse">
<stop stop-color="#F9F9F9"/>
<stop offset="0.956667" stop-color="#F0F0F0"/>
</linearGradient>
<linearGradient id="paint3_linear_1639_12360" x1="149.062" y1="65.5056" x2="149.062" y2="77.2427" gradientUnits="userSpaceOnUse">
<stop stop-color="#F9F9F9"/>
<stop offset="0.956667" stop-color="#F0F0F0"/>
</linearGradient>
<linearGradient id="paint4_linear_1639_12360" x1="149.062" y1="86.6326" x2="149.062" y2="98.3697" gradientUnits="userSpaceOnUse">
<stop stop-color="#F9F9F9"/>
<stop offset="0.956667" stop-color="#F0F0F0"/>
</linearGradient>
<linearGradient id="paint5_linear_1639_12360" x1="149.062" y1="107.76" x2="149.062" y2="119.497" gradientUnits="userSpaceOnUse">
<stop stop-color="#F9F9F9"/>
<stop offset="0.956667" stop-color="#F0F0F0"/>
</linearGradient>
<linearGradient id="paint6_linear_1639_12360" x1="149.062" y1="23.2522" x2="149.062" y2="34.9893" gradientUnits="userSpaceOnUse">
<stop stop-color="#F9F9F9"/>
<stop offset="0.956667" stop-color="#F0F0F0"/>
</linearGradient>
</defs>
</svg>
